{"glyphs":{"0":{"ha":833,"x_min":28,"x_max":667,"o":"m 346 944 l 346 944 q 318 933 331 944 q 306 904 306 921 l 306 901 q 318 874 306 886 q 346 861 331 861 l 349 861 q 377 874 365 861 q 389 901 389 886 l 389 904 q 377 933 389 921 q 349 944 365 944 l 346 944 m 207 806 l 207 806 q 179 794 192 806 q 167 765 167 782 l 167 763 q 179 735 167 747 q 207 722 192 722 l 210 722 q 238 735 226 722 q 250 763 250 747 l 250 765 q 238 794 250 782 q 210 806 226 806 l 207 806 m 485 806 l 485 806 q 457 794 469 806 q 444 765 444 782 l 444 763 q 457 735 444 747 q 485 722 469 722 l 488 722 q 516 735 504 722 q 528 763 528 747 l 528 765 q 516 794 528 782 q 488 806 504 806 l 485 806 m 68 667 l 68 667 q 40 655 53 667 q 28 626 28 643 l 28 624 q 40 596 28 608 q 68 583 53 583 l 71 583 q 99 596 88 583 q 111 624 111 608 l 111 626 q 99 655 111 643 q 71 667 88 667 l 68 667 m 624 667 l 624 667 q 596 655 608 667 q 583 626 583 643 l 583 624 q 596 596 583 608 q 624 583 608 583 l 626 583 q 655 596 643 583 q 667 624 667 608 l 667 626 q 655 655 667 643 q 626 667 643 667 l 624 667 m 68 528 l 68 528 q 40 516 53 528 q 28 488 28 504 l 28 485 q 40 457 28 469 q 68 444 53 444 l 71 444 q 99 457 88 444 q 111 485 111 469 l 111 488 q 99 516 111 504 q 71 528 88 528 l 68 528 m 624 528 l 624 528 q 596 516 608 528 q 583 488 583 504 l 583 485 q 596 457 583 469 q 624 444 608 444 l 626 444 q 655 457 643 444 q 667 485 667 469 l 667 488 q 655 516 667 504 q 626 528 643 528 l 624 528 m 68 389 l 68 389 q 40 377 53 389 q 28 349 28 365 l 28 346 q 40 318 28 331 q 68 306 53 306 l 71 306 q 99 318 88 306 q 111 346 111 331 l 111 349 q 99 377 111 365 q 71 389 88 389 l 68 389 m 624 389 l 624 389 q 596 377 608 389 q 583 349 583 365 l 583 346 q 596 318 583 331 q 624 306 608 306 l 626 306 q 655 318 643 306 q 667 346 667 331 l 667 349 q 655 377 667 365 q 626 389 643 389 l 624 389 m 207 250 l 207 250 q 179 238 192 250 q 167 210 167 226 l 167 207 q 179 179 167 192 q 207 167 192 167 l 210 167 q 238 179 226 167 q 250 207 250 192 l 250 210 q 238 238 250 226 q 210 250 226 250 l 207 250 m 485 250 l 485 250 q 457 238 469 250 q 444 210 444 226 l 444 207 q 457 179 444 192 q 485 167 469 167 l 488 167 q 516 179 504 167 q 528 207 528 192 l 528 210 q 516 238 528 226 q 488 250 504 250 l 485 250 m 346 111 l 346 111 q 318 99 331 111 q 306 71 306 88 l 306 68 q 318 40 306 53 q 346 28 331 28 l 349 28 q 377 40 365 28 q 389 68 389 53 l 389 71 q 377 99 389 88 q 349 111 365 111 l 346 111 z "},"1":{"ha":833,"x_min":28,"x_max":667,"o":"m 346 944 l 346 944 q 318 933 331 944 q 306 904 306 921 l 306 901 q 318 874 306 886 q 346 861 331 861 l 349 861 q 377 874 365 861 q 389 901 389 886 l 389 904 q 377 933 389 921 q 349 944 365 944 l 346 944 m 207 806 l 207 806 q 179 794 192 806 q 167 765 167 782 l 167 763 q 179 735 167 747 q 207 722 192 722 l 210 722 q 238 735 226 722 q 250 763 250 747 l 250 765 q 238 794 250 782 q 210 806 226 806 l 207 806 m 346 806 l 346 806 q 318 794 331 806 q 306 765 306 782 l 306 763 q 318 735 306 747 q 346 722 331 722 l 349 722 q 377 735 365 722 q 389 763 389 747 l 389 765 q 377 794 389 782 q 349 806 365 806 l 346 806 m 68 667 l 68 667 q 40 655 53 667 q 28 626 28 643 l 28 624 q 40 596 28 608 q 68 583 53 583 l 71 583 q 99 596 88 583 q 111 624 111 608 l 111 626 q 99 655 111 643 q 71 667 88 667 l 68 667 m 346 667 l 346 667 q 318 655 331 667 q 306 626 306 643 l 306 624 q 318 596 306 608 q 346 583 331 583 l 349 583 q 377 596 365 583 q 389 624 389 608 l 389 626 q 377 655 389 643 q 349 667 365 667 l 346 667 m 346 528 l 346 528 q 318 516 331 528 q 306 488 306 504 l 306 485 q 318 457 306 469 q 346 444 331 444 l 349 444 q 377 457 365 444 q 389 485 389 469 l 389 488 q 377 516 389 504 q 349 528 365 528 l 346 528 m 346 389 l 346 389 q 318 377 331 389 q 306 349 306 365 l 306 346 q 318 318 306 331 q 346 306 331 306 l 349 306 q 377 318 365 306 q 389 346 389 331 l 389 349 q 377 377 389 365 q 349 389 365 389 l 346 389 m 346 250 l 346 250 q 318 238 331 250 q 306 210 306 226 l 306 207 q 318 179 306 192 q 346 167 331 167 l 349 167 q 377 179 365 167 q 389 207 389 192 l 389 210 q 377 238 389 226 q 349 250 365 250 l 346 250 m 68 111 l 68 111 q 40 99 53 111 q 28 71 28 88 l 28 68 q 40 40 28 53 q 68 28 53 28 l 71 28 q 99 40 88 28 q 111 68 111 53 l 111 71 q 99 99 111 88 q 71 111 88 111 l 68 111 m 207 111 l 207 111 q 179 99 192 111 q 167 71 167 88 l 167 68 q 179 40 167 53 q 207 28 192 28 l 210 28 q 238 40 226 28 q 250 68 250 53 l 250 71 q 238 99 250 88 q 210 111 226 111 l 207 111 m 346 111 l 346 111 q 318 99 331 111 q 306 71 306 88 l 306 68 q 318 40 306 53 q 346 28 331 28 l 349 28 q 377 40 365 28 q 389 68 389 53 l 389 71 q 377 99 389 88 q 349 111 365 111 l 346 111 m 485 111 l 485 111 q 457 99 469 111 q 444 71 444 88 l 444 68 q 457 40 444 53 q 485 28 469 28 l 488 28 q 516 40 504 28 q 528 68 528 53 l 528 71 q 516 99 528 88 q 488 111 504 111 l 485 111 m 624 111 l 624 111 q 596 99 608 111 q 583 71 583 88 l 583 68 q 596 40 583 53 q 624 28 608 28 l 626 28 q 655 40 643 28 q 667 68 667 53 l 667 71 q 655 99 667 88 q 626 111 643 111 l 624 111 z "},"2":{"ha":833,"x_min":28,"x_max":667,"o":"m 207 944 l 207 944 q 179 933 192 944 q 167 904 167 921 l 167 901 q 179 874 167 886 q 207 861 192 861 l 210 861 q 238 874 226 861 q 250 901 250 886 l 250 904 q 238 933 250 921 q 210 944 226 944 l 207 944 m 346 944 l 346 944 q 318 933 331 944 q 306 904 306 921 l 306 901 q 318 874 306 886 q 346 861 331 861 l 349 861 q 377 874 365 861 q 389 901 389 886 l 389 904 q 377 933 389 921 q 349 944 365 944 l 346 944 m 485 944 l 485 944 q 457 933 469 944 q 444 904 444 921 l 444 901 q 457 874 444 886 q 485 861 469 861 l 488 861 q 516 874 504 861 q 528 901 528 886 l 528 904 q 516 933 528 921 q 488 944 504 944 l 485 944 m 68 806 l 68 806 q 40 794 53 806 q 28 765 28 782 l 28 763 q 40 735 28 747 q 68 722 53 722 l 71 722 q 99 735 88 722 q 111 763 111 747 l 111 765 q 99 794 111 782 q 71 806 88 806 l 68 806 m 624 806 l 624 806 q 596 794 608 806 q 583 765 583 782 l 583 763 q 596 735 583 747 q 624 722 608 722 l 626 722 q 655 735 643 722 q 667 763 667 747 l 667 765 q 655 794 667 782 q 626 806 643 806 l 624 806 m 624 667 l 624 667 q 596 655 608 667 q 583 626 583 643 l 583 624 q 596 596 583 608 q 624 583 608 583 l 626 583 q 655 596 643 583 q 667 624 667 608 l 667 626 q 655 655 667 643 q 626 667 643 667 l 624 667 m 346 528 l 346 528 q 318 516 331 528 q 306 488 306 504 l 306 485 q 318 457 306 469 q 346 444 331 444 l 349 444 q 377 457 365 444 q 389 485 389 469 l 389 488 q 377 516 389 504 q 349 528 365 528 l 346 528 m 485 528 l 485 528 q 457 516 469 528 q 444 488 444 504 l 444 485 q 457 457 444 469 q 485 444 469 444 l 488 444 q 516 457 504 444 q 528 485 528 469 l 528 488 q 516 516 528 504 q 488 528 504 528 l 485 528 m 207 389 l 207 389 q 179 377 192 389 q 167 349 167 365 l 167 346 q 179 318 167 331 q 207 306 192 306 l 210 306 q 238 318 226 306 q 250 346 250 331 l 250 349 q 238 377 250 365 q 210 389 226 389 l 207 389 m 68 250 l 68 250 q 40 238 53 250 q 28 210 28 226 l 28 207 q 40 179 28 192 q 68 167 53 167 l 71 167 q 99 179 88 167 q 111 207 111 192 l 111 210 q 99 238 111 226 q 71 250 88 250 l 68 250 m 68 111 l 68 111 q 40 99 53 111 q 28 71 28 88 l 28 68 q 40 40 28 53 q 68 28 53 28 l 71 28 q 99 40 88 28 q 111 68 111 53 l 111 71 q 99 99 111 88 q 71 111 88 111 l 68 111 m 207 111 l 207 111 q 179 99 192 111 q 167 71 167 88 l 167 68 q 179 40 167 53 q 207 28 192 28 l 210 28 q 238 40 226 28 q 250 68 250 53 l 250 71 q 238 99 250 88 q 210 111 226 111 l 207 111 m 346 111 l 346 111 q 318 99 331 111 q 306 71 306 88 l 306 68 q 318 40 306 53 q 346 28 331 28 l 349 28 q 377 40 365 28 q 389 68 389 53 l 389 71 q 377 99 389 88 q 349 111 365 111 l 346 111 m 485 111 l 485 111 q 457 99 469 111 q 444 71 444 88 l 444 68 q 457 40 444 53 q 485 28 469 28 l 488 28 q 516 40 504 28 q 528 68 528 53 l 528 71 q 516 99 528 88 q 488 111 504 111 l 485 111 m 624 111 l 624 111 q 596 99 608 111 q 583 71 583 88 l 583 68 q 596 40 583 53 q 624 28 608 28 l 626 28 q 655 40 643 28 q 667 68 667 53 l 667 71 q 655 99 667 88 q 626 111 643 111 l 624 111 z "},"3":{"ha":833,"x_min":28,"x_max":667,"o":"m 68 944 l 68 944 q 40 933 53 944 q 28 904 28 921 l 28 901 q 40 874 28 886 q 68 861 53 861 l 71 861 q 99 874 88 861 q 111 901 111 886 l 111 904 q 99 933 111 921 q 71 944 88 944 l 68 944 m 207 944 l 207 944 q 179 933 192 944 q 167 904 167 921 l 167 901 q 179 874 167 886 q 207 861 192 861 l 210 861 q 238 874 226 861 q 250 901 250 886 l 250 904 q 238 933 250 921 q 210 944 226 944 l 207 944 m 346 944 l 346 944 q 318 933 331 944 q 306 904 306 921 l 306 901 q 318 874 306 886 q 346 861 331 861 l 349 861 q 377 874 365 861 q 389 901 389 886 l 389 904 q 377 933 389 921 q 349 944 365 944 l 346 944 m 485 944 l 485 944 q 457 933 469 944 q 444 904 444 921 l 444 901 q 457 874 444 886 q 485 861 469 861 l 488 861 q 516 874 504 861 q 528 901 528 886 l 528 904 q 516 933 528 921 q 488 944 504 944 l 485 944 m 624 944 l 624 944 q 596 933 608 944 q 583 904 583 921 l 583 901 q 596 874 583 886 q 624 861 608 861 l 626 861 q 655 874 643 861 q 667 901 667 886 l 667 904 q 655 933 667 921 q 626 944 643 944 l 624 944 m 624 806 l 624 806 q 596 794 608 806 q 583 765 583 782 l 583 763 q 596 735 583 747 q 624 722 608 722 l 626 722 q 655 735 643 722 q 667 763 667 747 l 667 765 q 655 794 667 782 q 626 806 643 806 l 624 806 m 485 667 l 485 667 q 457 655 469 667 q 444 626 444 643 l 444 624 q 457 596 444 608 q 485 583 469 583 l 488 583 q 516 596 504 583 q 528 624 528 608 l 528 626 q 516 655 528 643 q 488 667 504 667 l 485 667 m 346 528 l 346 528 q 318 516 331 528 q 306 488 306 504 l 306 485 q 318 457 306 469 q 346 444 331 444 l 349 444 q 377 457 365 444 q 389 485 389 469 l 389 488 q 377 516 389 504 q 349 528 365 528 l 346 528 m 485 528 l 485 528 q 457 516 469 528 q 444 488 444 504 l 444 485 q 457 457 444 469 q 485 444 469 444 l 488 444 q 516 457 504 444 q 528 485 528 469 l 528 488 q 516 516 528 504 q 488 528 504 528 l 485 528 m 624 389 l 624 389 q 596 377 608 389 q 583 349 583 365 l 583 346 q 596 318 583 331 q 624 306 608 306 l 626 306 q 655 318 643 306 q 667 346 667 331 l 667 349 q 655 377 667 365 q 626 389 643 389 l 624 389 m 68 250 l 68 250 q 40 238 53 250 q 28 210 28 226 l 28 207 q 40 179 28 192 q 68 167 53 167 l 71 167 q 99 179 88 167 q 111 207 111 192 l 111 210 q 99 238 111 226 q 71 250 88 250 l 68 250 m 624 250 l 624 250 q 596 238 608 250 q 583 210 583 226 l 583 207 q 596 179 583 192 q 624 167 608 167 l 626 167 q 655 179 643 167 q 667 207 667 192 l 667 210 q 655 238 667 226 q 626 250 643 250 l 624 250 m 207 111 l 207 111 q 179 99 192 111 q 167 71 167 88 l 167 68 q 179 40 167 53 q 207 28 192 28 l 210 28 q 238 40 226 28 q 250 68 250 53 l 250 71 q 238 99 250 88 q 210 111 226 111 l 207 111 m 346 111 l 346 111 q 318 99 331 111 q 306 71 306 88 l 306 68 q 318 40 306 53 q 346 28 331 28 l 349 28 q 377 40 365 28 q 389 68 389 53 l 389 71 q 377 99 389 88 q 349 111 365 111 l 346 111 m 485 111 l 485 111 q 457 99 469 111 q 444 71 444 88 l 444 68 q 457 40 444 53 q 485 28 469 28 l 488 28 q 516 40 504 28 q 528 68 528 53 l 528 71 q 516 99 528 88 q 488 111 504 111 l 485 111 z "},"4":{"ha":833,"x_min":28,"x_max":667,"o":"m 485 944 l 485 944 q 457 933 469 944 q 444 904 444 921 l 444 901 q 457 874 444 886 q 485 861 469 861 l 488 861 q 516 874 504 861 q 528 901 528 886 l 528 904 q 516 933 528 921 q 488 944 504 944 l 485 944 m 346 806 l 346 806 q 318 794 331 806 q 306 765 306 782 l 306 763 q 318 735 306 747 q 346 722 331 722 l 349 722 q 377 735 365 722 q 389 763 389 747 l 389 765 q 377 794 389 782 q 349 806 365 806 l 346 806 m 485 806 l 485 806 q 457 794 469 806 q 444 765 444 782 l 444 763 q 457 735 444 747 q 485 722 469 722 l 488 722 q 516 735 504 722 q 528 763 528 747 l 528 765 q 516 794 528 782 q 488 806 504 806 l 485 806 m 207 667 l 207 667 q 179 655 192 667 q 167 626 167 643 l 167 624 q 179 596 167 608 q 207 583 192 583 l 210 583 q 238 596 226 583 q 250 624 250 608 l 250 626 q 238 655 250 643 q 210 667 226 667 l 207 667 m 485 667 l 485 667 q 457 655 469 667 q 444 626 444 643 l 444 624 q 457 596 444 608 q 485 583 469 583 l 488 583 q 516 596 504 583 q 528 624 528 608 l 528 626 q 516 655 528 643 q 488 667 504 667 l 485 667 m 68 528 l 68 528 q 40 516 53 528 q 28 488 28 504 l 28 485 q 40 457 28 469 q 68 444 53 444 l 71 444 q 99 457 88 444 q 111 485 111 469 l 111 488 q 99 516 111 504 q 71 528 88 528 l 68 528 m 485 528 l 485 528 q 457 516 469 528 q 444 488 444 504 l 444 485 q 457 457 444 469 q 485 444 469 444 l 488 444 q 516 457 504 444 q 528 485 528 469 l 528 488 q 516 516 528 504 q 488 528 504 528 l 485 528 m 68 389 l 68 389 q 40 377 53 389 q 28 349 28 365 l 28 346 q 40 318 28 331 q 68 306 53 306 l 71 306 q 99 318 88 306 q 111 346 111 331 l 111 349 q 99 377 111 365 q 71 389 88 389 l 68 389 m 207 389 l 207 389 q 179 377 192 389 q 167 349 167 365 l 167 346 q 179 318 167 331 q 207 306 192 306 l 210 306 q 238 318 226 306 q 250 346 250 331 l 250 349 q 238 377 250 365 q 210 389 226 389 l 207 389 m 346 389 l 346 389 q 318 377 331 389 q 306 349 306 365 l 306 346 q 318 318 306 331 q 346 306 331 306 l 349 306 q 377 318 365 306 q 389 346 389 331 l 389 349 q 377 377 389 365 q 349 389 365 389 l 346 389 m 485 389 l 485 389 q 457 377 469 389 q 444 349 444 365 l 444 346 q 457 318 444 331 q 485 306 469 306 l 488 306 q 516 318 504 306 q 528 346 528 331 l 528 349 q 516 377 528 365 q 488 389 504 389 l 485 389 m 624 389 l 624 389 q 596 377 608 389 q 583 349 583 365 l 583 346 q 596 318 583 331 q 624 306 608 306 l 626 306 q 655 318 643 306 q 667 346 667 331 l 667 349 q 655 377 667 365 q 626 389 643 389 l 624 389 m 485 250 l 485 250 q 457 238 469 250 q 444 210 444 226 l 444 207 q 457 179 444 192 q 485 167 469 167 l 488 167 q 516 179 504 167 q 528 207 528 192 l 528 210 q 516 238 528 226 q 488 250 504 250 l 485 250 m 485 111 l 485 111 q 457 99 469 111 q 444 71 444 88 l 444 68 q 457 40 444 53 q 485 28 469 28 l 488 28 q 516 40 504 28 q 528 68 528 53 l 528 71 q 516 99 528 88 q 488 111 504 111 l 485 111 z "},"5":{"ha":833,"x_min":28,"x_max":667,"o":"m 68 944 l 68 944 q 40 933 53 944 q 28 904 28 921 l 28 901 q 40 874 28 886 q 68 861 53 861 l 71 861 q 99 874 88 861 q 111 901 111 886 l 111 904 q 99 933 111 921 q 71 944 88 944 l 68 944 m 207 944 l 207 944 q 179 933 192 944 q 167 904 167 921 l 167 901 q 179 874 167 886 q 207 861 192 861 l 210 861 q 238 874 226 861 q 250 901 250 886 l 250 904 q 238 933 250 921 q 210 944 226 944 l 207 944 m 346 944 l 346 944 q 318 933 331 944 q 306 904 306 921 l 306 901 q 318 874 306 886 q 346 861 331 861 l 349 861 q 377 874 365 861 q 389 901 389 886 l 389 904 q 377 933 389 921 q 349 944 365 944 l 346 944 m 485 944 l 485 944 q 457 933 469 944 q 444 904 444 921 l 444 901 q 457 874 444 886 q 485 861 469 861 l 488 861 q 516 874 504 861 q 528 901 528 886 l 528 904 q 516 933 528 921 q 488 944 504 944 l 485 944 m 624 944 l 624 944 q 596 933 608 944 q 583 904 583 921 l 583 901 q 596 874 583 886 q 624 861 608 861 l 626 861 q 655 874 643 861 q 667 901 667 886 l 667 904 q 655 933 667 921 q 626 944 643 944 l 624 944 m 68 806 l 68 806 q 40 794 53 806 q 28 765 28 782 l 28 763 q 40 735 28 747 q 68 722 53 722 l 71 722 q 99 735 88 722 q 111 763 111 747 l 111 765 q 99 794 111 782 q 71 806 88 806 l 68 806 m 68 667 l 68 667 q 40 655 53 667 q 28 626 28 643 l 28 624 q 40 596 28 608 q 68 583 53 583 l 71 583 q 99 596 88 583 q 111 624 111 608 l 111 626 q 99 655 111 643 q 71 667 88 667 l 68 667 m 346 667 l 346 667 q 318 655 331 667 q 306 626 306 643 l 306 624 q 318 596 306 608 q 346 583 331 583 l 349 583 q 377 596 365 583 q 389 624 389 608 l 389 626 q 377 655 389 643 q 349 667 365 667 l 346 667 m 485 667 l 485 667 q 457 655 469 667 q 444 626 444 643 l 444 624 q 457 596 444 608 q 485 583 469 583 l 488 583 q 516 596 504 583 q 528 624 528 608 l 528 626 q 516 655 528 643 q 488 667 504 667 l 485 667 m 68 528 l 68 528 q 40 516 53 528 q 28 488 28 504 l 28 485 q 40 457 28 469 q 68 444 53 444 l 71 444 q 99 457 88 444 q 111 485 111 469 l 111 488 q 99 516 111 504 q 71 528 88 528 l 68 528 m 207 528 l 207 528 q 179 516 192 528 q 167 488 167 504 l 167 485 q 179 457 167 469 q 207 444 192 444 l 210 444 q 238 457 226 444 q 250 485 250 469 l 250 488 q 238 516 250 504 q 210 528 226 528 l 207 528 m 624 528 l 624 528 q 596 516 608 528 q 583 488 583 504 l 583 485 q 596 457 583 469 q 624 444 608 444 l 626 444 q 655 457 643 444 q 667 485 667 469 l 667 488 q 655 516 667 504 q 626 528 643 528 l 624 528 m 624 389 l 624 389 q 596 377 608 389 q 583 349 583 365 l 583 346 q 596 318 583 331 q 624 306 608 306 l 626 306 q 655 318 643 306 q 667 346 667 331 l 667 349 q 655 377 667 365 q 626 389 643 389 l 624 389 m 68 250 l 68 250 q 40 238 53 250 q 28 210 28 226 l 28 207 q 40 179 28 192 q 68 167 53 167 l 71 167 q 99 179 88 167 q 111 207 111 192 l 111 210 q 99 238 111 226 q 71 250 88 250 l 68 250 m 624 250 l 624 250 q 596 238 608 250 q 583 210 583 226 l 583 207 q 596 179 583 192 q 624 167 608 167 l 626 167 q 655 179 643 167 q 667 207 667 192 l 667 210 q 655 238 667 226 q 626 250 643 250 l 624 250 m 207 111 l 207 111 q 179 99 192 111 q 167 71 167 88 l 167 68 q 179 40 167 53 q 207 28 192 28 l 210 28 q 238 40 226 28 q 250 68 250 53 l 250 71 q 238 99 250 88 q 210 111 226 111 l 207 111 m 346 111 l 346 111 q 318 99 331 111 q 306 71 306 88 l 306 68 q 318 40 306 53 q 346 28 331 28 l 349 28 q 377 40 365 28 q 389 68 389 53 l 389 71 q 377 99 389 88 q 349 111 365 111 l 346 111 m 485 111 l 485 111 q 457 99 469 111 q 444 71 444 88 l 444 68 q 457 40 444 53 q 485 28 469 28 l 488 28 q 516 40 504 28 q 528 68 528 53 l 528 71 q 516 99 528 88 q 488 111 504 111 l 485 111 z "},"6":{"ha":833,"x_min":28,"x_max":667,"o":"m 346 944 l 346 944 q 318 933 331 944 q 306 904 306 921 l 306 901 q 318 874 306 886 q 346 861 331 861 l 349 861 q 377 874 365 861 q 389 901 389 886 l 389 904 q 377 933 389 921 q 349 944 365 944 l 346 944 m 485 944 l 485 944 q 457 933 469 944 q 444 904 444 921 l 444 901 q 457 874 444 886 q 485 861 469 861 l 488 861 q 516 874 504 861 q 528 901 528 886 l 528 904 q 516 933 528 921 q 488 944 504 944 l 485 944 m 207 806 l 207 806 q 179 794 192 806 q 167 765 167 782 l 167 763 q 179 735 167 747 q 207 722 192 722 l 210 722 q 238 735 226 722 q 250 763 250 747 l 250 765 q 238 794 250 782 q 210 806 226 806 l 207 806 m 68 667 l 68 667 q 40 655 53 667 q 28 626 28 643 l 28 624 q 40 596 28 608 q 68 583 53 583 l 71 583 q 99 596 88 583 q 111 624 111 608 l 111 626 q 99 655 111 643 q 71 667 88 667 l 68 667 m 68 528 l 68 528 q 40 516 53 528 q 28 488 28 504 l 28 485 q 40 457 28 469 q 68 444 53 444 l 71 444 q 99 457 88 444 q 111 485 111 469 l 111 488 q 99 516 111 504 q 71 528 88 528 l 68 528 m 346 528 l 346 528 q 318 516 331 528 q 306 488 306 504 l 306 485 q 318 457 306 469 q 346 444 331 444 l 349 444 q 377 457 365 444 q 389 485 389 469 l 389 488 q 377 516 389 504 q 349 528 365 528 l 346 528 m 485 528 l 485 528 q 457 516 469 528 q 444 488 444 504 l 444 485 q 457 457 444 469 q 485 444 469 444 l 488 444 q 516 457 504 444 q 528 485 528 469 l 528 488 q 516 516 528 504 q 488 528 504 528 l 485 528 m 68 389 l 68 389 q 40 377 53 389 q 28 349 28 365 l 28 346 q 40 318 28 331 q 68 306 53 306 l 71 306 q 99 318 88 306 q 111 346 111 331 l 111 349 q 99 377 111 365 q 71 389 88 389 l 68 389 m 207 389 l 207 389 q 179 377 192 389 q 167 349 167 365 l 167 346 q 179 318 167 331 q 207 306 192 306 l 210 306 q 238 318 226 306 q 250 346 250 331 l 250 349 q 238 377 250 365 q 210 389 226 389 l 207 389 m 624 389 l 624 389 q 596 377 608 389 q 583 349 583 365 l 583 346 q 596 318 583 331 q 624 306 608 306 l 626 306 q 655 318 643 306 q 667 346 667 331 l 667 349 q 655 377 667 365 q 626 389 643 389 l 624 389 m 68 250 l 68 250 q 40 238 53 250 q 28 210 28 226 l 28 207 q 40 179 28 192 q 68 167 53 167 l 71 167 q 99 179 88 167 q 111 207 111 192 l 111 210 q 99 238 111 226 q 71 250 88 250 l 68 250 m 624 250 l 624 250 q 596 238 608 250 q 583 210 583 226 l 583 207 q 596 179 583 192 q 624 167 608 167 l 626 167 q 655 179 643 167 q 667 207 667 192 l 667 210 q 655 238 667 226 q 626 250 643 250 l 624 250 m 207 111 l 207 111 q 179 99 192 111 q 167 71 167 88 l 167 68 q 179 40 167 53 q 207 28 192 28 l 210 28 q 238 40 226 28 q 250 68 250 53 l 250 71 q 238 99 250 88 q 210 111 226 111 l 207 111 m 346 111 l 346 111 q 318 99 331 111 q 306 71 306 88 l 306 68 q 318 40 306 53 q 346 28 331 28 l 349 28 q 377 40 365 28 q 389 68 389 53 l 389 71 q 377 99 389 88 q 349 111 365 111 l 346 111 m 485 111 l 485 111 q 457 99 469 111 q 444 71 444 88 l 444 68 q 457 40 444 53 q 485 28 469 28 l 488 28 q 516 40 504 28 q 528 68 528 53 l 528 71 q 516 99 528 88 q 488 111 504 111 l 485 111 z "},"7":{"ha":833,"x_min":28,"x_max":667,"o":"m 68 944 l 68 944 q 40 933 53 944 q 28 904 28 921 l 28 901 q 40 874 28 886 q 68 861 53 861 l 71 861 q 99 874 88 861 q 111 901 111 886 l 111 904 q 99 933 111 921 q 71 944 88 944 l 68 944 m 207 944 l 207 944 q 179 933 192 944 q 167 904 167 921 l 167 901 q 179 874 167 886 q 207 861 192 861 l 210 861 q 238 874 226 861 q 250 901 250 886 l 250 904 q 238 933 250 921 q 210 944 226 944 l 207 944 m 346 944 l 346 944 q 318 933 331 944 q 306 904 306 921 l 306 901 q 318 874 306 886 q 346 861 331 861 l 349 861 q 377 874 365 861 q 389 901 389 886 l 389 904 q 377 933 389 921 q 349 944 365 944 l 346 944 m 485 944 l 485 944 q 457 933 469 944 q 444 904 444 921 l 444 901 q 457 874 444 886 q 485 861 469 861 l 488 861 q 516 874 504 861 q 528 901 528 886 l 528 904 q 516 933 528 921 q 488 944 504 944 l 485 944 m 624 944 l 624 944 q 596 933 608 944 q 583 904 583 921 l 583 901 q 596 874 583 886 q 624 861 608 861 l 626 861 q 655 874 643 861 q 667 901 667 886 l 667 904 q 655 933 667 921 q 626 944 643 944 l 624 944 m 624 806 l 624 806 q 596 794 608 806 q 583 765 583 782 l 583 763 q 596 735 583 747 q 624 722 608 722 l 626 722 q 655 735 643 722 q 667 763 667 747 l 667 765 q 655 794 667 782 q 626 806 643 806 l 624 806 m 485 667 l 485 667 q 457 655 469 667 q 444 626 444 643 l 444 624 q 457 596 444 608 q 485 583 469 583 l 488 583 q 516 596 504 583 q 528 624 528 608 l 528 626 q 516 655 528 643 q 488 667 504 667 l 485 667 m 485 528 l 485 528 q 457 516 469 528 q 444 488 444 504 l 444 485 q 457 457 444 469 q 485 444 469 444 l 488 444 q 516 457 504 444 q 528 485 528 469 l 528 488 q 516 516 528 504 q 488 528 504 528 l 485 528 m 346 389 l 346 389 q 318 377 331 389 q 306 349 306 365 l 306 346 q 318 318 306 331 q 346 306 331 306 l 349 306 q 377 318 365 306 q 389 346 389 331 l 389 349 q 377 377 389 365 q 349 389 365 389 l 346 389 m 207 250 l 207 250 q 179 238 192 250 q 167 210 167 226 l 167 207 q 179 179 167 192 q 207 167 192 167 l 210 167 q 238 179 226 167 q 250 207 250 192 l 250 210 q 238 238 250 226 q 210 250 226 250 l 207 250 m 207 111 l 207 111 q 179 99 192 111 q 167 71 167 88 l 167 68 q 179 40 167 53 q 207 28 192 28 l 210 28 q 238 40 226 28 q 250 68 250 53 l 250 71 q 238 99 250 88 q 210 111 226 111 l 207 111 z "},"8":{"ha":833,"x_min":28,"x_max":667,"o":"m 207 944 l 207 944 q 179 933 192 944 q 167 904 167 921 l 167 901 q 179 874 167 886 q 207 861 192 861 l 210 861 q 238 874 226 861 q 250 901 250 886 l 250 904 q 238 933 250 921 q 210 944 226 944 l 207 944 m 346 944 l 346 944 q 318 933 331 944 q 306 904 306 921 l 306 901 q 318 874 306 886 q 346 861 331 861 l 349 861 q 377 874 365 861 q 389 901 389 886 l 389 904 q 377 933 389 921 q 349 944 365 944 l 346 944 m 485 944 l 485 944 q 457 933 469 944 q 444 904 444 921 l 444 901 q 457 874 444 886 q 485 861 469 861 l 488 861 q 516 874 504 861 q 528 901 528 886 l 528 904 q 516 933 528 921 q 488 944 504 944 l 485 944 m 68 806 l 68 806 q 40 794 53 806 q 28 765 28 782 l 28 763 q 40 735 28 747 q 68 722 53 722 l 71 722 q 99 735 88 722 q 111 763 111 747 l 111 765 q 99 794 111 782 q 71 806 88 806 l 68 806 m 624 806 l 624 806 q 596 794 608 806 q 583 765 583 782 l 583 763 q 596 735 583 747 q 624 722 608 722 l 626 722 q 655 735 643 722 q 667 763 667 747 l 667 765 q 655 794 667 782 q 626 806 643 806 l 624 806 m 68 667 l 68 667 q 40 655 53 667 q 28 626 28 643 l 28 624 q 40 596 28 608 q 68 583 53 583 l 71 583 q 99 596 88 583 q 111 624 111 608 l 111 626 q 99 655 111 643 q 71 667 88 667 l 68 667 m 624 667 l 624 667 q 596 655 608 667 q 583 626 583 643 l 583 624 q 596 596 583 608 q 624 583 608 583 l 626 583 q 655 596 643 583 q 667 624 667 608 l 667 626 q 655 655 667 643 q 626 667 643 667 l 624 667 m 207 528 l 207 528 q 179 516 192 528 q 167 488 167 504 l 167 485 q 179 457 167 469 q 207 444 192 444 l 210 444 q 238 457 226 444 q 250 485 250 469 l 250 488 q 238 516 250 504 q 210 528 226 528 l 207 528 m 346 528 l 346 528 q 318 516 331 528 q 306 488 306 504 l 306 485 q 318 457 306 469 q 346 444 331 444 l 349 444 q 377 457 365 444 q 389 485 389 469 l 389 488 q 377 516 389 504 q 349 528 365 528 l 346 528 m 485 528 l 485 528 q 457 516 469 528 q 444 488 444 504 l 444 485 q 457 457 444 469 q 485 444 469 444 l 488 444 q 516 457 504 444 q 528 485 528 469 l 528 488 q 516 516 528 504 q 488 528 504 528 l 485 528 m 68 389 l 68 389 q 40 377 53 389 q 28 349 28 365 l 28 346 q 40 318 28 331 q 68 306 53 306 l 71 306 q 99 318 88 306 q 111 346 111 331 l 111 349 q 99 377 111 365 q 71 389 88 389 l 68 389 m 624 389 l 624 389 q 596 377 608 389 q 583 349 583 365 l 583 346 q 596 318 583 331 q 624 306 608 306 l 626 306 q 655 318 643 306 q 667 346 667 331 l 667 349 q 655 377 667 365 q 626 389 643 389 l 624 389 m 68 250 l 68 250 q 40 238 53 250 q 28 210 28 226 l 28 207 q 40 179 28 192 q 68 167 53 167 l 71 167 q 99 179 88 167 q 111 207 111 192 l 111 210 q 99 238 111 226 q 71 250 88 250 l 68 250 m 624 250 l 624 250 q 596 238 608 250 q 583 210 583 226 l 583 207 q 596 179 583 192 q 624 167 608 167 l 626 167 q 655 179 643 167 q 667 207 667 192 l 667 210 q 655 238 667 226 q 626 250 643 250 l 624 250 m 207 111 l 207 111 q 179 99 192 111 q 167 71 167 88 l 167 68 q 179 40 167 53 q 207 28 192 28 l 210 28 q 238 40 226 28 q 250 68 250 53 l 250 71 q 238 99 250 88 q 210 111 226 111 l 207 111 m 346 111 l 346 111 q 318 99 331 111 q 306 71 306 88 l 306 68 q 318 40 306 53 q 346 28 331 28 l 349 28 q 377 40 365 28 q 389 68 389 53 l 389 71 q 377 99 389 88 q 349 111 365 111 l 346 111 m 485 111 l 485 111 q 457 99 469 111 q 444 71 444 88 l 444 68 q 457 40 444 53 q 485 28 469 28 l 488 28 q 516 40 504 28 q 528 68 528 53 l 528 71 q 516 99 528 88 q 488 111 504 111 l 485 111 z "},"9":{"ha":833,"x_min":28,"x_max":667,"o":"m 207 944 l 207 944 q 179 933 192 944 q 167 904 167 921 l 167 901 q 179 874 167 886 q 207 861 192 861 l 210 861 q 238 874 226 861 q 250 901 250 886 l 250 904 q 238 933 250 921 q 210 944 226 944 l 207 944 m 346 944 l 346 944 q 318 933 331 944 q 306 904 306 921 l 306 901 q 318 874 306 886 q 346 861 331 861 l 349 861 q 377 874 365 861 q 389 901 389 886 l 389 904 q 377 933 389 921 q 349 944 365 944 l 346 944 m 485 944 l 485 944 q 457 933 469 944 q 444 904 444 921 l 444 901 q 457 874 444 886 q 485 861 469 861 l 488 861 q 516 874 504 861 q 528 901 528 886 l 528 904 q 516 933 528 921 q 488 944 504 944 l 485 944 m 68 806 l 68 806 q 40 794 53 806 q 28 765 28 782 l 28 763 q 40 735 28 747 q 68 722 53 722 l 71 722 q 99 735 88 722 q 111 763 111 747 l 111 765 q 99 794 111 782 q 71 806 88 806 l 68 806 m 624 806 l 624 806 q 596 794 608 806 q 583 765 583 782 l 583 763 q 596 735 583 747 q 624 722 608 722 l 626 722 q 655 735 643 722 q 667 763 667 747 l 667 765 q 655 794 667 782 q 626 806 643 806 l 624 806 m 68 667 l 68 667 q 40 655 53 667 q 28 626 28 643 l 28 624 q 40 596 28 608 q 68 583 53 583 l 71 583 q 99 596 88 583 q 111 624 111 608 l 111 626 q 99 655 111 643 q 71 667 88 667 l 68 667 m 485 667 l 485 667 q 457 655 469 667 q 444 626 444 643 l 444 624 q 457 596 444 608 q 485 583 469 583 l 488 583 q 516 596 504 583 q 528 624 528 608 l 528 626 q 516 655 528 643 q 488 667 504 667 l 485 667 m 624 667 l 624 667 q 596 655 608 667 q 583 626 583 643 l 583 624 q 596 596 583 608 q 624 583 608 583 l 626 583 q 655 596 643 583 q 667 624 667 608 l 667 626 q 655 655 667 643 q 626 667 643 667 l 624 667 m 207 528 l 207 528 q 179 516 192 528 q 167 488 167 504 l 167 485 q 179 457 167 469 q 207 444 192 444 l 210 444 q 238 457 226 444 q 250 485 250 469 l 250 488 q 238 516 250 504 q 210 528 226 528 l 207 528 m 346 528 l 346 528 q 318 516 331 528 q 306 488 306 504 l 306 485 q 318 457 306 469 q 346 444 331 444 l 349 444 q 377 457 365 444 q 389 485 389 469 l 389 488 q 377 516 389 504 q 349 528 365 528 l 346 528 m 624 528 l 624 528 q 596 516 608 528 q 583 488 583 504 l 583 485 q 596 457 583 469 q 624 444 608 444 l 626 444 q 655 457 643 444 q 667 485 667 469 l 667 488 q 655 516 667 504 q 626 528 643 528 l 624 528 m 624 389 l 624 389 q 596 377 608 389 q 583 349 583 365 l 583 346 q 596 318 583 331 q 624 306 608 306 l 626 306 q 655 318 643 306 q 667 346 667 331 l 667 349 q 655 377 667 365 q 626 389 643 389 l 624 389 m 485 250 l 485 250 q 457 238 469 250 q 444 210 444 226 l 444 207 q 457 179 444 192 q 485 167 469 167 l 488 167 q 516 179 504 167 q 528 207 528 192 l 528 210 q 516 238 528 226 q 488 250 504 250 l 485 250 m 207 111 l 207 111 q 179 99 192 111 q 167 71 167 88 l 167 68 q 179 40 167 53 q 207 28 192 28 l 210 28 q 238 40 226 28 q 250 68 250 53 l 250 71 q 238 99 250 88 q 210 111 226 111 l 207 111 m 346 111 l 346 111 q 318 99 331 111 q 306 71 306 88 l 306 68 q 318 40 306 53 q 346 28 331 28 l 349 28 q 377 40 365 28 q 389 68 389 53 l 389 71 q 377 99 389 88 q 349 111 365 111 l 346 111 z "},"A":{"ha":833,"x_min":28,"x_max":667,"o":"m 346 944 l 346 944 q 318 933 331 944 q 306 904 306 921 l 306 901 q 318 874 306 886 q 346 861 331 861 l 349 861 q 377 874 365 861 q 389 901 389 886 l 389 904 q 377 933 389 921 q 349 944 365 944 l 346 944 m 207 806 l 207 806 q 179 794 192 806 q 167 765 167 782 l 167 763 q 179 735 167 747 q 207 722 192 722 l 210 722 q 238 735 226 722 q 250 763 250 747 l 250 765 q 238 794 250 782 q 210 806 226 806 l 207 806 m 485 806 l 485 806 q 457 794 469 806 q 444 765 444 782 l 444 763 q 457 735 444 747 q 485 722 469 722 l 488 722 q 516 735 504 722 q 528 763 528 747 l 528 765 q 516 794 528 782 q 488 806 504 806 l 485 806 m 68 667 l 68 667 q 40 655 53 667 q 28 626 28 643 l 28 624 q 40 596 28 608 q 68 583 53 583 l 71 583 q 99 596 88 583 q 111 624 111 608 l 111 626 q 99 655 111 643 q 71 667 88 667 l 68 667 m 624 667 l 624 667 q 596 655 608 667 q 583 626 583 643 l 583 624 q 596 596 583 608 q 624 583 608 583 l 626 583 q 655 596 643 583 q 667 624 667 608 l 667 626 q 655 655 667 643 q 626 667 643 667 l 624 667 m 68 528 l 68 528 q 40 516 53 528 q 28 488 28 504 l 28 485 q 40 457 28 469 q 68 444 53 444 l 71 444 q 99 457 88 444 q 111 485 111 469 l 111 488 q 99 516 111 504 q 71 528 88 528 l 68 528 m 624 528 l 624 528 q 596 516 608 528 q 583 488 583 504 l 583 485 q 596 457 583 469 q 624 444 608 444 l 626 444 q 655 457 643 444 q 667 485 667 469 l 667 488 q 655 516 667 504 q 626 528 643 528 l 624 528 m 68 389 l 68 389 q 40 377 53 389 q 28 349 28 365 l 28 346 q 40 318 28 331 q 68 306 53 306 l 71 306 q 99 318 88 306 q 111 346 111 331 l 111 349 q 99 377 111 365 q 71 389 88 389 l 68 389 m 207 389 l 207 389 q 179 377 192 389 q 167 349 167 365 l 167 346 q 179 318 167 331 q 207 306 192 306 l 210 306 q 238 318 226 306 q 250 346 250 331 l 250 349 q 238 377 250 365 q 210 389 226 389 l 207 389 m 346 389 l 346 389 q 318 377 331 389 q 306 349 306 365 l 306 346 q 318 318 306 331 q 346 306 331 306 l 349 306 q 377 318 365 306 q 389 346 389 331 l 389 349 q 377 377 389 365 q 349 389 365 389 l 346 389 m 485 389 l 485 389 q 457 377 469 389 q 444 349 444 365 l 444 346 q 457 318 444 331 q 485 306 469 306 l 488 306 q 516 318 504 306 q 528 346 528 331 l 528 349 q 516 377 528 365 q 488 389 504 389 l 485 389 m 624 389 l 624 389 q 596 377 608 389 q 583 349 583 365 l 583 346 q 596 318 583 331 q 624 306 608 306 l 626 306 q 655 318 643 306 q 667 346 667 331 l 667 349 q 655 377 667 365 q 626 389 643 389 l 624 389 m 68 250 l 68 250 q 40 238 53 250 q 28 210 28 226 l 28 207 q 40 179 28 192 q 68 167 53 167 l 71 167 q 99 179 88 167 q 111 207 111 192 l 111 210 q 99 238 111 226 q 71 250 88 250 l 68 250 m 624 250 l 624 250 q 596 238 608 250 q 583 210 583 226 l 583 207 q 596 179 583 192 q 624 167 608 167 l 626 167 q 655 179 643 167 q 667 207 667 192 l 667 210 q 655 238 667 226 q 626 250 643 250 l 624 250 m 68 111 l 68 111 q 40 99 53 111 q 28 71 28 88 l 28 68 q 40 40 28 53 q 68 28 53 28 l 71 28 q 99 40 88 28 q 111 68 111 53 l 111 71 q 99 99 111 88 q 71 111 88 111 l 68 111 m 624 111 l 624 111 q 596 99 608 111 q 583 71 583 88 l 583 68 q 596 40 583 53 q 624 28 608 28 l 626 28 q 655 40 643 28 q 667 68 667 53 l 667 71 q 655 99 667 88 q 626 111 643 111 l 624 111 z "},"Æ":{"ha":833,"x_min":28,"x_max":667,"o":"m 346 944 l 346 944 q 318 933 331 944 q 306 904 306 921 l 306 901 q 318 874 306 886 q 346 861 331 861 l 349 861 q 377 874 365 861 q 389 901 389 886 l 389 904 q 377 933 389 921 q 349 944 365 944 l 346 944 m 485 944 l 485 944 q 457 933 469 944 q 444 904 444 921 l 444 901 q 457 874 444 886 q 485 861 469 861 l 488 861 q 516 874 504 861 q 528 901 528 886 l 528 904 q 516 933 528 921 q 488 944 504 944 l 485 944 m 624 944 l 624 944 q 596 933 608 944 q 583 904 583 921 l 583 901 q 596 874 583 886 q 624 861 608 861 l 626 861 q 655 874 643 861 q 667 901 667 886 l 667 904 q 655 933 667 921 q 626 944 643 944 l 624 944 m 207 806 l 207 806 q 179 794 192 806 q 167 765 167 782 l 167 763 q 179 735 167 747 q 207 722 192 722 l 210 722 q 238 735 226 722 q 250 763 250 747 l 250 765 q 238 794 250 782 q 210 806 226 806 l 207 806 m 346 806 l 346 806 q 318 794 331 806 q 306 765 306 782 l 306 763 q 318 735 306 747 q 346 722 331 722 l 349 722 q 377 735 365 722 q 389 763 389 747 l 389 765 q 377 794 389 782 q 349 806 365 806 l 346 806 m 68 667 l 68 667 q 40 655 53 667 q 28 626 28 643 l 28 624 q 40 596 28 608 q 68 583 53 583 l 71 583 q 99 596 88 583 q 111 624 111 608 l 111 626 q 99 655 111 643 q 71 667 88 667 l 68 667 m 346 667 l 346 667 q 318 655 331 667 q 306 626 306 643 l 306 624 q 318 596 306 608 q 346 583 331 583 l 349 583 q 377 596 365 583 q 389 624 389 608 l 389 626 q 377 655 389 643 q 349 667 365 667 l 346 667 m 68 528 l 68 528 q 40 516 53 528 q 28 488 28 504 l 28 485 q 40 457 28 469 q 68 444 53 444 l 71 444 q 99 457 88 444 q 111 485 111 469 l 111 488 q 99 516 111 504 q 71 528 88 528 l 68 528 m 346 528 l 346 528 q 318 516 331 528 q 306 488 306 504 l 306 485 q 318 457 306 469 q 346 444 331 444 l 349 444 q 377 457 365 444 q 389 485 389 469 l 389 488 q 377 516 389 504 q 349 528 365 528 l 346 528 m 485 528 l 485 528 q 457 516 469 528 q 444 488 444 504 l 444 485 q 457 457 444 469 q 485 444 469 444 l 488 444 q 516 457 504 444 q 528 485 528 469 l 528 488 q 516 516 528 504 q 488 528 504 528 l 485 528 m 624 528 l 624 528 q 596 516 608 528 q 583 488 583 504 l 583 485 q 596 457 583 469 q 624 444 608 444 l 626 444 q 655 457 643 444 q 667 485 667 469 l 667 488 q 655 516 667 504 q 626 528 643 528 l 624 528 m 68 389 l 68 389 q 40 377 53 389 q 28 349 28 365 l 28 346 q 40 318 28 331 q 68 306 53 306 l 71 306 q 99 318 88 306 q 111 346 111 331 l 111 349 q 99 377 111 365 q 71 389 88 389 l 68 389 m 207 389 l 207 389 q 179 377 192 389 q 167 349 167 365 l 167 346 q 179 318 167 331 q 207 306 192 306 l 210 306 q 238 318 226 306 q 250 346 250 331 l 250 349 q 238 377 250 365 q 210 389 226 389 l 207 389 m 346 389 l 346 389 q 318 377 331 389 q 306 349 306 365 l 306 346 q 318 318 306 331 q 346 306 331 306 l 349 306 q 377 318 365 306 q 389 346 389 331 l 389 349 q 377 377 389 365 q 349 389 365 389 l 346 389 m 68 250 l 68 250 q 40 238 53 250 q 28 210 28 226 l 28 207 q 40 179 28 192 q 68 167 53 167 l 71 167 q 99 179 88 167 q 111 207 111 192 l 111 210 q 99 238 111 226 q 71 250 88 250 l 68 250 m 346 250 l 346 250 q 318 238 331 250 q 306 210 306 226 l 306 207 q 318 179 306 192 q 346 167 331 167 l 349 167 q 377 179 365 167 q 389 207 389 192 l 389 210 q 377 238 389 226 q 349 250 365 250 l 346 250 m 68 111 l 68 111 q 40 99 53 111 q 28 71 28 88 l 28 68 q 40 40 28 53 q 68 28 53 28 l 71 28 q 99 40 88 28 q 111 68 111 53 l 111 71 q 99 99 111 88 q 71 111 88 111 l 68 111 m 346 111 l 346 111 q 318 99 331 111 q 306 71 306 88 l 306 68 q 318 40 306 53 q 346 28 331 28 l 349 28 q 377 40 365 28 q 389 68 389 53 l 389 71 q 377 99 389 88 q 349 111 365 111 l 346 111 m 485 111 l 485 111 q 457 99 469 111 q 444 71 444 88 l 444 68 q 457 40 444 53 q 485 28 469 28 l 488 28 q 516 40 504 28 q 528 68 528 53 l 528 71 q 516 99 528 88 q 488 111 504 111 l 485 111 m 624 111 l 624 111 q 596 99 608 111 q 583 71 583 88 l 583 68 q 596 40 583 53 q 624 28 608 28 l 626 28 q 655 40 643 28 q 667 68 667 53 l 667 71 q 655 99 667 88 q 626 111 643 111 l 624 111 z "},"Á":{"ha":833,"x_min":28,"x_max":667,"o":"m 485 1083 l 485 1083 q 457 1072 469 1083 q 444 1043 444 1060 l 444 1040 q 457 1013 444 1025 q 485 1000 469 1000 l 488 1000 q 516 1013 504 1000 q 528 1040 528 1025 l 528 1043 q 516 1072 528 1060 q 488 1083 504 1083 l 485 1083 m 346 944 l 346 944 q 318 933 331 944 q 306 904 306 921 l 306 901 q 318 874 306 886 q 346 861 331 861 l 349 861 q 377 874 365 861 q 389 901 389 886 l 389 904 q 377 933 389 921 q 349 944 365 944 l 346 944 m 207 806 l 207 806 q 179 794 192 806 q 167 765 167 782 l 167 763 q 179 735 167 747 q 207 722 192 722 l 210 722 q 238 735 226 722 q 250 763 250 747 l 250 765 q 238 794 250 782 q 210 806 226 806 l 207 806 m 346 806 l 346 806 q 318 794 331 806 q 306 765 306 782 l 306 763 q 318 735 306 747 q 346 722 331 722 l 349 722 q 377 735 365 722 q 389 763 389 747 l 389 765 q 377 794 389 782 q 349 806 365 806 l 346 806 m 485 806 l 485 806 q 457 794 469 806 q 444 765 444 782 l 444 763 q 457 735 444 747 q 485 722 469 722 l 488 722 q 516 735 504 722 q 528 763 528 747 l 528 765 q 516 794 528 782 q 488 806 504 806 l 485 806 m 68 667 l 68 667 q 40 655 53 667 q 28 626 28 643 l 28 624 q 40 596 28 608 q 68 583 53 583 l 71 583 q 99 596 88 583 q 111 624 111 608 l 111 626 q 99 655 111 643 q 71 667 88 667 l 68 667 m 624 667 l 624 667 q 596 655 608 667 q 583 626 583 643 l 583 624 q 596 596 583 608 q 624 583 608 583 l 626 583 q 655 596 643 583 q 667 624 667 608 l 667 626 q 655 655 667 643 q 626 667 643 667 l 624 667 m 68 528 l 68 528 q 40 516 53 528 q 28 488 28 504 l 28 485 q 40 457 28 469 q 68 444 53 444 l 71 444 q 99 457 88 444 q 111 485 111 469 l 111 488 q 99 516 111 504 q 71 528 88 528 l 68 528 m 624 528 l 624 528 q 596 516 608 528 q 583 488 583 504 l 583 485 q 596 457 583 469 q 624 444 608 444 l 626 444 q 655 457 643 444 q 667 485 667 469 l 667 488 q 655 516 667 504 q 626 528 643 528 l 624 528 m 68 389 l 68 389 q 40 377 53 389 q 28 349 28 365 l 28 346 q 40 318 28 331 q 68 306 53 306 l 71 306 q 99 318 88 306 q 111 346 111 331 l 111 349 q 99 377 111 365 q 71 389 88 389 l 68 389 m 207 389 l 207 389 q 179 377 192 389 q 167 349 167 365 l 167 346 q 179 318 167 331 q 207 306 192 306 l 210 306 q 238 318 226 306 q 250 346 250 331 l 250 349 q 238 377 250 365 q 210 389 226 389 l 207 389 m 346 389 l 346 389 q 318 377 331 389 q 306 349 306 365 l 306 346 q 318 318 306 331 q 346 306 331 306 l 349 306 q 377 318 365 306 q 389 346 389 331 l 389 349 q 377 377 389 365 q 349 389 365 389 l 346 389 m 485 389 l 485 389 q 457 377 469 389 q 444 349 444 365 l 444 346 q 457 318 444 331 q 485 306 469 306 l 488 306 q 516 318 504 306 q 528 346 528 331 l 528 349 q 516 377 528 365 q 488 389 504 389 l 485 389 m 624 389 l 624 389 q 596 377 608 389 q 583 349 583 365 l 583 346 q 596 318 583 331 q 624 306 608 306 l 626 306 q 655 318 643 306 q 667 346 667 331 l 667 349 q 655 377 667 365 q 626 389 643 389 l 624 389 m 68 250 l 68 250 q 40 238 53 250 q 28 210 28 226 l 28 207 q 40 179 28 192 q 68 167 53 167 l 71 167 q 99 179 88 167 q 111 207 111 192 l 111 210 q 99 238 111 226 q 71 250 88 250 l 68 250 m 624 250 l 624 250 q 596 238 608 250 q 583 210 583 226 l 583 207 q 596 179 583 192 q 624 167 608 167 l 626 167 q 655 179 643 167 q 667 207 667 192 l 667 210 q 655 238 667 226 q 626 250 643 250 l 624 250 m 68 111 l 68 111 q 40 99 53 111 q 28 71 28 88 l 28 68 q 40 40 28 53 q 68 28 53 28 l 71 28 q 99 40 88 28 q 111 68 111 53 l 111 71 q 99 99 111 88 q 71 111 88 111 l 68 111 m 624 111 l 624 111 q 596 99 608 111 q 583 71 583 88 l 583 68 q 596 40 583 53 q 624 28 608 28 l 626 28 q 655 40 643 28 q 667 68 667 53 l 667 71 q 655 99 667 88 q 626 111 643 111 l 624 111 z "},"Ă":{"ha":833,"x_min":28,"x_max":667,"o":"m 68 1083 l 68 1083 q 40 1072 53 1083 q 28 1043 28 1060 l 28 1040 q 40 1013 28 1025 q 68 1000 53 1000 l 71 1000 q 99 1013 88 1000 q 111 1040 111 1025 l 111 1043 q 99 1072 111 1060 q 71 1083 88 1083 l 68 1083 m 624 1083 l 624 1083 q 596 1072 608 1083 q 583 1043 583 1060 l 583 1040 q 596 1013 583 1025 q 624 1000 608 1000 l 626 1000 q 655 1013 643 1000 q 667 1040 667 1025 l 667 1043 q 655 1072 667 1060 q 626 1083 643 1083 l 624 1083 m 207 944 l 207 944 q 179 933 192 944 q 167 904 167 921 l 167 901 q 179 874 167 886 q 207 861 192 861 l 210 861 q 238 874 226 861 q 250 901 250 886 l 250 904 q 238 933 250 921 q 210 944 226 944 l 207 944 m 346 944 l 346 944 q 318 933 331 944 q 306 904 306 921 l 306 901 q 318 874 306 886 q 346 861 331 861 l 349 861 q 377 874 365 861 q 389 901 389 886 l 389 904 q 377 933 389 921 q 349 944 365 944 l 346 944 m 485 944 l 485 944 q 457 933 469 944 q 444 904 444 921 l 444 901 q 457 874 444 886 q 485 861 469 861 l 488 861 q 516 874 504 861 q 528 901 528 886 l 528 904 q 516 933 528 921 q 488 944 504 944 l 485 944 m 207 806 l 207 806 q 179 794 192 806 q 167 765 167 782 l 167 763 q 179 735 167 747 q 207 722 192 722 l 210 722 q 238 735 226 722 q 250 763 250 747 l 250 765 q 238 794 250 782 q 210 806 226 806 l 207 806 m 346 806 l 346 806 q 318 794 331 806 q 306 765 306 782 l 306 763 q 318 735 306 747 q 346 722 331 722 l 349 722 q 377 735 365 722 q 389 763 389 747 l 389 765 q 377 794 389 782 q 349 806 365 806 l 346 806 m 485 806 l 485 806 q 457 794 469 806 q 444 765 444 782 l 444 763 q 457 735 444 747 q 485 722 469 722 l 488 722 q 516 735 504 722 q 528 763 528 747 l 528 765 q 516 794 528 782 q 488 806 504 806 l 485 806 m 68 667 l 68 667 q 40 655 53 667 q 28 626 28 643 l 28 624 q 40 596 28 608 q 68 583 53 583 l 71 583 q 99 596 88 583 q 111 624 111 608 l 111 626 q 99 655 111 643 q 71 667 88 667 l 68 667 m 624 667 l 624 667 q 596 655 608 667 q 583 626 583 643 l 583 624 q 596 596 583 608 q 624 583 608 583 l 626 583 q 655 596 643 583 q 667 624 667 608 l 667 626 q 655 655 667 643 q 626 667 643 667 l 624 667 m 68 528 l 68 528 q 40 516 53 528 q 28 488 28 504 l 28 485 q 40 457 28 469 q 68 444 53 444 l 71 444 q 99 457 88 444 q 111 485 111 469 l 111 488 q 99 516 111 504 q 71 528 88 528 l 68 528 m 624 528 l 624 528 q 596 516 608 528 q 583 488 583 504 l 583 485 q 596 457 583 469 q 624 444 608 444 l 626 444 q 655 457 643 444 q 667 485 667 469 l 667 488 q 655 516 667 504 q 626 528 643 528 l 624 528 m 68 389 l 68 389 q 40 377 53 389 q 28 349 28 365 l 28 346 q 40 318 28 331 q 68 306 53 306 l 71 306 q 99 318 88 306 q 111 346 111 331 l 111 349 q 99 377 111 365 q 71 389 88 389 l 68 389 m 207 389 l 207 389 q 179 377 192 389 q 167 349 167 365 l 167 346 q 179 318 167 331 q 207 306 192 306 l 210 306 q 238 318 226 306 q 250 346 250 331 l 250 349 q 238 377 250 365 q 210 389 226 389 l 207 389 m 346 389 l 346 389 q 318 377 331 389 q 306 349 306 365 l 306 346 q 318 318 306 331 q 346 306 331 306 l 349 306 q 377 318 365 306 q 389 346 389 331 l 389 349 q 377 377 389 365 q 349 389 365 389 l 346 389 m 485 389 l 485 389 q 457 377 469 389 q 444 349 444 365 l 444 346 q 457 318 444 331 q 485 306 469 306 l 488 306 q 516 318 504 306 q 528 346 528 331 l 528 349 q 516 377 528 365 q 488 389 504 389 l 485 389 m 624 389 l 624 389 q 596 377 608 389 q 583 349 583 365 l 583 346 q 596 318 583 331 q 624 306 608 306 l 626 306 q 655 318 643 306 q 667 346 667 331 l 667 349 q 655 377 667 365 q 626 389 643 389 l 624 389 m 68 250 l 68 250 q 40 238 53 250 q 28 210 28 226 l 28 207 q 40 179 28 192 q 68 167 53 167 l 71 167 q 99 179 88 167 q 111 207 111 192 l 111 210 q 99 238 111 226 q 71 250 88 250 l 68 250 m 624 250 l 624 250 q 596 238 608 250 q 583 210 583 226 l 583 207 q 596 179 583 192 q 624 167 608 167 l 626 167 q 655 179 643 167 q 667 207 667 192 l 667 210 q 655 238 667 226 q 626 250 643 250 l 624 250 m 68 111 l 68 111 q 40 99 53 111 q 28 71 28 88 l 28 68 q 40 40 28 53 q 68 28 53 28 l 71 28 q 99 40 88 28 q 111 68 111 53 l 111 71 q 99 99 111 88 q 71 111 88 111 l 68 111 m 624 111 l 624 111 q 596 99 608 111 q 583 71 583 88 l 583 68 q 596 40 583 53 q 624 28 608 28 l 626 28 q 655 40 643 28 q 667 68 667 53 l 667 71 q 655 99 667 88 q 626 111 643 111 l 624 111 z "},"Â":{"ha":833,"x_min":28,"x_max":667,"o":"m 346 1083 l 346 1083 q 318 1072 331 1083 q 306 1043 306 1060 l 306 1040 q 318 1013 306 1025 q 346 1000 331 1000 l 349 1000 q 377 1013 365 1000 q 389 1040 389 1025 l 389 1043 q 377 1072 389 1060 q 349 1083 365 1083 l 346 1083 m 207 944 l 207 944 q 179 933 192 944 q 167 904 167 921 l 167 901 q 179 874 167 886 q 207 861 192 861 l 210 861 q 238 874 226 861 q 250 901 250 886 l 250 904 q 238 933 250 921 q 210 944 226 944 l 207 944 m 485 944 l 485 944 q 457 933 469 944 q 444 904 444 921 l 444 901 q 457 874 444 886 q 485 861 469 861 l 488 861 q 516 874 504 861 q 528 901 528 886 l 528 904 q 516 933 528 921 q 488 944 504 944 l 485 944 m 207 806 l 207 806 q 179 794 192 806 q 167 765 167 782 l 167 763 q 179 735 167 747 q 207 722 192 722 l 210 722 q 238 735 226 722 q 250 763 250 747 l 250 765 q 238 794 250 782 q 210 806 226 806 l 207 806 m 346 806 l 346 806 q 318 794 331 806 q 306 765 306 782 l 306 763 q 318 735 306 747 q 346 722 331 722 l 349 722 q 377 735 365 722 q 389 763 389 747 l 389 765 q 377 794 389 782 q 349 806 365 806 l 346 806 m 485 806 l 485 806 q 457 794 469 806 q 444 765 444 782 l 444 763 q 457 735 444 747 q 485 722 469 722 l 488 722 q 516 735 504 722 q 528 763 528 747 l 528 765 q 516 794 528 782 q 488 806 504 806 l 485 806 m 68 667 l 68 667 q 40 655 53 667 q 28 626 28 643 l 28 624 q 40 596 28 608 q 68 583 53 583 l 71 583 q 99 596 88 583 q 111 624 111 608 l 111 626 q 99 655 111 643 q 71 667 88 667 l 68 667 m 624 667 l 624 667 q 596 655 608 667 q 583 626 583 643 l 583 624 q 596 596 583 608 q 624 583 608 583 l 626 583 q 655 596 643 583 q 667 624 667 608 l 667 626 q 655 655 667 643 q 626 667 643 667 l 624 667 m 68 528 l 68 528 q 40 516 53 528 q 28 488 28 504 l 28 485 q 40 457 28 469 q 68 444 53 444 l 71 444 q 99 457 88 444 q 111 485 111 469 l 111 488 q 99 516 111 504 q 71 528 88 528 l 68 528 m 624 528 l 624 528 q 596 516 608 528 q 583 488 583 504 l 583 485 q 596 457 583 469 q 624 444 608 444 l 626 444 q 655 457 643 444 q 667 485 667 469 l 667 488 q 655 516 667 504 q 626 528 643 528 l 624 528 m 68 389 l 68 389 q 40 377 53 389 q 28 349 28 365 l 28 346 q 40 318 28 331 q 68 306 53 306 l 71 306 q 99 318 88 306 q 111 346 111 331 l 111 349 q 99 377 111 365 q 71 389 88 389 l 68 389 m 207 389 l 207 389 q 179 377 192 389 q 167 349 167 365 l 167 346 q 179 318 167 331 q 207 306 192 306 l 210 306 q 238 318 226 306 q 250 346 250 331 l 250 349 q 238 377 250 365 q 210 389 226 389 l 207 389 m 346 389 l 346 389 q 318 377 331 389 q 306 349 306 365 l 306 346 q 318 318 306 331 q 346 306 331 306 l 349 306 q 377 318 365 306 q 389 346 389 331 l 389 349 q 377 377 389 365 q 349 389 365 389 l 346 389 m 485 389 l 485 389 q 457 377 469 389 q 444 349 444 365 l 444 346 q 457 318 444 331 q 485 306 469 306 l 488 306 q 516 318 504 306 q 528 346 528 331 l 528 349 q 516 377 528 365 q 488 389 504 389 l 485 389 m 624 389 l 624 389 q 596 377 608 389 q 583 349 583 365 l 583 346 q 596 318 583 331 q 624 306 608 306 l 626 306 q 655 318 643 306 q 667 346 667 331 l 667 349 q 655 377 667 365 q 626 389 643 389 l 624 389 m 68 250 l 68 250 q 40 238 53 250 q 28 210 28 226 l 28 207 q 40 179 28 192 q 68 167 53 167 l 71 167 q 99 179 88 167 q 111 207 111 192 l 111 210 q 99 238 111 226 q 71 250 88 250 l 68 250 m 624 250 l 624 250 q 596 238 608 250 q 583 210 583 226 l 583 207 q 596 179 583 192 q 624 167 608 167 l 626 167 q 655 179 643 167 q 667 207 667 192 l 667 210 q 655 238 667 226 q 626 250 643 250 l 624 250 m 68 111 l 68 111 q 40 99 53 111 q 28 71 28 88 l 28 68 q 40 40 28 53 q 68 28 53 28 l 71 28 q 99 40 88 28 q 111 68 111 53 l 111 71 q 99 99 111 88 q 71 111 88 111 l 68 111 m 624 111 l 624 111 q 596 99 608 111 q 583 71 583 88 l 583 68 q 596 40 583 53 q 624 28 608 28 l 626 28 q 655 40 643 28 q 667 68 667 53 l 667 71 q 655 99 667 88 q 626 111 643 111 l 624 111 z "},"Ä":{"ha":833,"x_min":28,"x_max":667,"o":"m 207 1083 l 207 1083 q 179 1072 192 1083 q 167 1043 167 1060 l 167 1040 q 179 1013 167 1025 q 207 1000 192 1000 l 210 1000 q 238 1013 226 1000 q 250 1040 250 1025 l 250 1043 q 238 1072 250 1060 q 210 1083 226 1083 l 207 1083 m 485 1083 l 485 1083 q 457 1072 469 1083 q 444 1043 444 1060 l 444 1040 q 457 1013 444 1025 q 485 1000 469 1000 l 488 1000 q 516 1013 504 1000 q 528 1040 528 1025 l 528 1043 q 516 1072 528 1060 q 488 1083 504 1083 l 485 1083 m 207 806 l 207 806 q 179 794 192 806 q 167 765 167 782 l 167 763 q 179 735 167 747 q 207 722 192 722 l 210 722 q 238 735 226 722 q 250 763 250 747 l 250 765 q 238 794 250 782 q 210 806 226 806 l 207 806 m 346 806 l 346 806 q 318 794 331 806 q 306 765 306 782 l 306 763 q 318 735 306 747 q 346 722 331 722 l 349 722 q 377 735 365 722 q 389 763 389 747 l 389 765 q 377 794 389 782 q 349 806 365 806 l 346 806 m 485 806 l 485 806 q 457 794 469 806 q 444 765 444 782 l 444 763 q 457 735 444 747 q 485 722 469 722 l 488 722 q 516 735 504 722 q 528 763 528 747 l 528 765 q 516 794 528 782 q 488 806 504 806 l 485 806 m 68 667 l 68 667 q 40 655 53 667 q 28 626 28 643 l 28 624 q 40 596 28 608 q 68 583 53 583 l 71 583 q 99 596 88 583 q 111 624 111 608 l 111 626 q 99 655 111 643 q 71 667 88 667 l 68 667 m 624 667 l 624 667 q 596 655 608 667 q 583 626 583 643 l 583 624 q 596 596 583 608 q 624 583 608 583 l 626 583 q 655 596 643 583 q 667 624 667 608 l 667 626 q 655 655 667 643 q 626 667 643 667 l 624 667 m 68 528 l 68 528 q 40 516 53 528 q 28 488 28 504 l 28 485 q 40 457 28 469 q 68 444 53 444 l 71 444 q 99 457 88 444 q 111 485 111 469 l 111 488 q 99 516 111 504 q 71 528 88 528 l 68 528 m 624 528 l 624 528 q 596 516 608 528 q 583 488 583 504 l 583 485 q 596 457 583 469 q 624 444 608 444 l 626 444 q 655 457 643 444 q 667 485 667 469 l 667 488 q 655 516 667 504 q 626 528 643 528 l 624 528 m 68 389 l 68 389 q 40 377 53 389 q 28 349 28 365 l 28 346 q 40 318 28 331 q 68 306 53 306 l 71 306 q 99 318 88 306 q 111 346 111 331 l 111 349 q 99 377 111 365 q 71 389 88 389 l 68 389 m 207 389 l 207 389 q 179 377 192 389 q 167 349 167 365 l 167 346 q 179 318 167 331 q 207 306 192 306 l 210 306 q 238 318 226 306 q 250 346 250 331 l 250 349 q 238 377 250 365 q 210 389 226 389 l 207 389 m 346 389 l 346 389 q 318 377 331 389 q 306 349 306 365 l 306 346 q 318 318 306 331 q 346 306 331 306 l 349 306 q 377 318 365 306 q 389 346 389 331 l 389 349 q 377 377 389 365 q 349 389 365 389 l 346 389 m 485 389 l 485 389 q 457 377 469 389 q 444 349 444 365 l 444 346 q 457 318 444 331 q 485 306 469 306 l 488 306 q 516 318 504 306 q 528 346 528 331 l 528 349 q 516 377 528 365 q 488 389 504 389 l 485 389 m 624 389 l 624 389 q 596 377 608 389 q 583 349 583 365 l 583 346 q 596 318 583 331 q 624 306 608 306 l 626 306 q 655 318 643 306 q 667 346 667 331 l 667 349 q 655 377 667 365 q 626 389 643 389 l 624 389 m 68 250 l 68 250 q 40 238 53 250 q 28 210 28 226 l 28 207 q 40 179 28 192 q 68 167 53 167 l 71 167 q 99 179 88 167 q 111 207 111 192 l 111 210 q 99 238 111 226 q 71 250 88 250 l 68 250 m 624 250 l 624 250 q 596 238 608 250 q 583 210 583 226 l 583 207 q 596 179 583 192 q 624 167 608 167 l 626 167 q 655 179 643 167 q 667 207 667 192 l 667 210 q 655 238 667 226 q 626 250 643 250 l 624 250 m 68 111 l 68 111 q 40 99 53 111 q 28 71 28 88 l 28 68 q 40 40 28 53 q 68 28 53 28 l 71 28 q 99 40 88 28 q 111 68 111 53 l 111 71 q 99 99 111 88 q 71 111 88 111 l 68 111 m 624 111 l 624 111 q 596 99 608 111 q 583 71 583 88 l 583 68 q 596 40 583 53 q 624 28 608 28 l 626 28 q 655 40 643 28 q 667 68 667 53 l 667 71 q 655 99 667 88 q 626 111 643 111 l 624 111 z "},"À":{"ha":833,"x_min":28,"x_max":667,"o":"m 207 1083 l 207 1083 q 179 1072 192 1083 q 167 1043 167 1060 l 167 1040 q 179 1013 167 1025 q 207 1000 192 1000 l 210 1000 q 238 1013 226 1000 q 250 1040 250 1025 l 250 1043 q 238 1072 250 1060 q 210 1083 226 1083 l 207 1083 m 346 944 l 346 944 q 318 933 331 944 q 306 904 306 921 l 306 901 q 318 874 306 886 q 346 861 331 861 l 349 861 q 377 874 365 861 q 389 901 389 886 l 389 904 q 377 933 389 921 q 349 944 365 944 l 346 944 m 207 806 l 207 806 q 179 794 192 806 q 167 765 167 782 l 167 763 q 179 735 167 747 q 207 722 192 722 l 210 722 q 238 735 226 722 q 250 763 250 747 l 250 765 q 238 794 250 782 q 210 806 226 806 l 207 806 m 346 806 l 346 806 q 318 794 331 806 q 306 765 306 782 l 306 763 q 318 735 306 747 q 346 722 331 722 l 349 722 q 377 735 365 722 q 389 763 389 747 l 389 765 q 377 794 389 782 q 349 806 365 806 l 346 806 m 485 806 l 485 806 q 457 794 469 806 q 444 765 444 782 l 444 763 q 457 735 444 747 q 485 722 469 722 l 488 722 q 516 735 504 722 q 528 763 528 747 l 528 765 q 516 794 528 782 q 488 806 504 806 l 485 806 m 68 667 l 68 667 q 40 655 53 667 q 28 626 28 643 l 28 624 q 40 596 28 608 q 68 583 53 583 l 71 583 q 99 596 88 583 q 111 624 111 608 l 111 626 q 99 655 111 643 q 71 667 88 667 l 68 667 m 624 667 l 624 667 q 596 655 608 667 q 583 626 583 643 l 583 624 q 596 596 583 608 q 624 583 608 583 l 626 583 q 655 596 643 583 q 667 624 667 608 l 667 626 q 655 655 667 643 q 626 667 643 667 l 624 667 m 68 528 l 68 528 q 40 516 53 528 q 28 488 28 504 l 28 485 q 40 457 28 469 q 68 444 53 444 l 71 444 q 99 457 88 444 q 111 485 111 469 l 111 488 q 99 516 111 504 q 71 528 88 528 l 68 528 m 624 528 l 624 528 q 596 516 608 528 q 583 488 583 504 l 583 485 q 596 457 583 469 q 624 444 608 444 l 626 444 q 655 457 643 444 q 667 485 667 469 l 667 488 q 655 516 667 504 q 626 528 643 528 l 624 528 m 68 389 l 68 389 q 40 377 53 389 q 28 349 28 365 l 28 346 q 40 318 28 331 q 68 306 53 306 l 71 306 q 99 318 88 306 q 111 346 111 331 l 111 349 q 99 377 111 365 q 71 389 88 389 l 68 389 m 207 389 l 207 389 q 179 377 192 389 q 167 349 167 365 l 167 346 q 179 318 167 331 q 207 306 192 306 l 210 306 q 238 318 226 306 q 250 346 250 331 l 250 349 q 238 377 250 365 q 210 389 226 389 l 207 389 m 346 389 l 346 389 q 318 377 331 389 q 306 349 306 365 l 306 346 q 318 318 306 331 q 346 306 331 306 l 349 306 q 377 318 365 306 q 389 346 389 331 l 389 349 q 377 377 389 365 q 349 389 365 389 l 346 389 m 485 389 l 485 389 q 457 377 469 389 q 444 349 444 365 l 444 346 q 457 318 444 331 q 485 306 469 306 l 488 306 q 516 318 504 306 q 528 346 528 331 l 528 349 q 516 377 528 365 q 488 389 504 389 l 485 389 m 624 389 l 624 389 q 596 377 608 389 q 583 349 583 365 l 583 346 q 596 318 583 331 q 624 306 608 306 l 626 306 q 655 318 643 306 q 667 346 667 331 l 667 349 q 655 377 667 365 q 626 389 643 389 l 624 389 m 68 250 l 68 250 q 40 238 53 250 q 28 210 28 226 l 28 207 q 40 179 28 192 q 68 167 53 167 l 71 167 q 99 179 88 167 q 111 207 111 192 l 111 210 q 99 238 111 226 q 71 250 88 250 l 68 250 m 624 250 l 624 250 q 596 238 608 250 q 583 210 583 226 l 583 207 q 596 179 583 192 q 624 167 608 167 l 626 167 q 655 179 643 167 q 667 207 667 192 l 667 210 q 655 238 667 226 q 626 250 643 250 l 624 250 m 68 111 l 68 111 q 40 99 53 111 q 28 71 28 88 l 28 68 q 40 40 28 53 q 68 28 53 28 l 71 28 q 99 40 88 28 q 111 68 111 53 l 111 71 q 99 99 111 88 q 71 111 88 111 l 68 111 m 624 111 l 624 111 q 596 99 608 111 q 583 71 583 88 l 583 68 q 596 40 583 53 q 624 28 608 28 l 626 28 q 655 40 643 28 q 667 68 667 53 l 667 71 q 655 99 667 88 q 626 111 643 111 l 624 111 z "},"Ā":{"ha":833,"x_min":28,"x_max":667,"o":"m 207 1083 l 207 1083 q 179 1072 192 1083 q 167 1043 167 1060 l 167 1040 q 179 1013 167 1025 q 207 1000 192 1000 l 210 1000 q 238 1013 226 1000 q 250 1040 250 1025 l 250 1043 q 238 1072 250 1060 q 210 1083 226 1083 l 207 1083 m 346 1083 l 346 1083 q 318 1072 331 1083 q 306 1043 306 1060 l 306 1040 q 318 1013 306 1025 q 346 1000 331 1000 l 349 1000 q 377 1013 365 1000 q 389 1040 389 1025 l 389 1043 q 377 1072 389 1060 q 349 1083 365 1083 l 346 1083 m 485 1083 l 485 1083 q 457 1072 469 1083 q 444 1043 444 1060 l 444 1040 q 457 1013 444 1025 q 485 1000 469 1000 l 488 1000 q 516 1013 504 1000 q 528 1040 528 1025 l 528 1043 q 516 1072 528 1060 q 488 1083 504 1083 l 485 1083 m 207 806 l 207 806 q 179 794 192 806 q 167 765 167 782 l 167 763 q 179 735 167 747 q 207 722 192 722 l 210 722 q 238 735 226 722 q 250 763 250 747 l 250 765 q 238 794 250 782 q 210 806 226 806 l 207 806 m 346 806 l 346 806 q 318 794 331 806 q 306 765 306 782 l 306 763 q 318 735 306 747 q 346 722 331 722 l 349 722 q 377 735 365 722 q 389 763 389 747 l 389 765 q 377 794 389 782 q 349 806 365 806 l 346 806 m 485 806 l 485 806 q 457 794 469 806 q 444 765 444 782 l 444 763 q 457 735 444 747 q 485 722 469 722 l 488 722 q 516 735 504 722 q 528 763 528 747 l 528 765 q 516 794 528 782 q 488 806 504 806 l 485 806 m 68 667 l 68 667 q 40 655 53 667 q 28 626 28 643 l 28 624 q 40 596 28 608 q 68 583 53 583 l 71 583 q 99 596 88 583 q 111 624 111 608 l 111 626 q 99 655 111 643 q 71 667 88 667 l 68 667 m 624 667 l 624 667 q 596 655 608 667 q 583 626 583 643 l 583 624 q 596 596 583 608 q 624 583 608 583 l 626 583 q 655 596 643 583 q 667 624 667 608 l 667 626 q 655 655 667 643 q 626 667 643 667 l 624 667 m 68 528 l 68 528 q 40 516 53 528 q 28 488 28 504 l 28 485 q 40 457 28 469 q 68 444 53 444 l 71 444 q 99 457 88 444 q 111 485 111 469 l 111 488 q 99 516 111 504 q 71 528 88 528 l 68 528 m 624 528 l 624 528 q 596 516 608 528 q 583 488 583 504 l 583 485 q 596 457 583 469 q 624 444 608 444 l 626 444 q 655 457 643 444 q 667 485 667 469 l 667 488 q 655 516 667 504 q 626 528 643 528 l 624 528 m 68 389 l 68 389 q 40 377 53 389 q 28 349 28 365 l 28 346 q 40 318 28 331 q 68 306 53 306 l 71 306 q 99 318 88 306 q 111 346 111 331 l 111 349 q 99 377 111 365 q 71 389 88 389 l 68 389 m 207 389 l 207 389 q 179 377 192 389 q 167 349 167 365 l 167 346 q 179 318 167 331 q 207 306 192 306 l 210 306 q 238 318 226 306 q 250 346 250 331 l 250 349 q 238 377 250 365 q 210 389 226 389 l 207 389 m 346 389 l 346 389 q 318 377 331 389 q 306 349 306 365 l 306 346 q 318 318 306 331 q 346 306 331 306 l 349 306 q 377 318 365 306 q 389 346 389 331 l 389 349 q 377 377 389 365 q 349 389 365 389 l 346 389 m 485 389 l 485 389 q 457 377 469 389 q 444 349 444 365 l 444 346 q 457 318 444 331 q 485 306 469 306 l 488 306 q 516 318 504 306 q 528 346 528 331 l 528 349 q 516 377 528 365 q 488 389 504 389 l 485 389 m 624 389 l 624 389 q 596 377 608 389 q 583 349 583 365 l 583 346 q 596 318 583 331 q 624 306 608 306 l 626 306 q 655 318 643 306 q 667 346 667 331 l 667 349 q 655 377 667 365 q 626 389 643 389 l 624 389 m 68 250 l 68 250 q 40 238 53 250 q 28 210 28 226 l 28 207 q 40 179 28 192 q 68 167 53 167 l 71 167 q 99 179 88 167 q 111 207 111 192 l 111 210 q 99 238 111 226 q 71 250 88 250 l 68 250 m 624 250 l 624 250 q 596 238 608 250 q 583 210 583 226 l 583 207 q 596 179 583 192 q 624 167 608 167 l 626 167 q 655 179 643 167 q 667 207 667 192 l 667 210 q 655 238 667 226 q 626 250 643 250 l 624 250 m 68 111 l 68 111 q 40 99 53 111 q 28 71 28 88 l 28 68 q 40 40 28 53 q 68 28 53 28 l 71 28 q 99 40 88 28 q 111 68 111 53 l 111 71 q 99 99 111 88 q 71 111 88 111 l 68 111 m 624 111 l 624 111 q 596 99 608 111 q 583 71 583 88 l 583 68 q 596 40 583 53 q 624 28 608 28 l 626 28 q 655 40 643 28 q 667 68 667 53 l 667 71 q 655 99 667 88 q 626 111 643 111 l 624 111 z "},"Ą":{"ha":833,"x_min":28,"x_max":667,"o":"m 346 944 l 346 944 q 318 933 331 944 q 306 904 306 921 l 306 901 q 318 874 306 886 q 346 861 331 861 l 349 861 q 377 874 365 861 q 389 901 389 886 l 389 904 q 377 933 389 921 q 349 944 365 944 l 346 944 m 207 806 l 207 806 q 179 794 192 806 q 167 765 167 782 l 167 763 q 179 735 167 747 q 207 722 192 722 l 210 722 q 238 735 226 722 q 250 763 250 747 l 250 765 q 238 794 250 782 q 210 806 226 806 l 207 806 m 485 806 l 485 806 q 457 794 469 806 q 444 765 444 782 l 444 763 q 457 735 444 747 q 485 722 469 722 l 488 722 q 516 735 504 722 q 528 763 528 747 l 528 765 q 516 794 528 782 q 488 806 504 806 l 485 806 m 68 667 l 68 667 q 40 655 53 667 q 28 626 28 643 l 28 624 q 40 596 28 608 q 68 583 53 583 l 71 583 q 99 596 88 583 q 111 624 111 608 l 111 626 q 99 655 111 643 q 71 667 88 667 l 68 667 m 624 667 l 624 667 q 596 655 608 667 q 583 626 583 643 l 583 624 q 596 596 583 608 q 624 583 608 583 l 626 583 q 655 596 643 583 q 667 624 667 608 l 667 626 q 655 655 667 643 q 626 667 643 667 l 624 667 m 68 528 l 68 528 q 40 516 53 528 q 28 488 28 504 l 28 485 q 40 457 28 469 q 68 444 53 444 l 71 444 q 99 457 88 444 q 111 485 111 469 l 111 488 q 99 516 111 504 q 71 528 88 528 l 68 528 m 624 528 l 624 528 q 596 516 608 528 q 583 488 583 504 l 583 485 q 596 457 583 469 q 624 444 608 444 l 626 444 q 655 457 643 444 q 667 485 667 469 l 667 488 q 655 516 667 504 q 626 528 643 528 l 624 528 m 68 389 l 68 389 q 40 377 53 389 q 28 349 28 365 l 28 346 q 40 318 28 331 q 68 306 53 306 l 71 306 q 99 318 88 306 q 111 346 111 331 l 111 349 q 99 377 111 365 q 71 389 88 389 l 68 389 m 207 389 l 207 389 q 179 377 192 389 q 167 349 167 365 l 167 346 q 179 318 167 331 q 207 306 192 306 l 210 306 q 238 318 226 306 q 250 346 250 331 l 250 349 q 238 377 250 365 q 210 389 226 389 l 207 389 m 346 389 l 346 389 q 318 377 331 389 q 306 349 306 365 l 306 346 q 318 318 306 331 q 346 306 331 306 l 349 306 q 377 318 365 306 q 389 346 389 331 l 389 349 q 377 377 389 365 q 349 389 365 389 l 346 389 m 485 389 l 485 389 q 457 377 469 389 q 444 349 444 365 l 444 346 q 457 318 444 331 q 485 306 469 306 l 488 306 q 516 318 504 306 q 528 346 528 331 l 528 349 q 516 377 528 365 q 488 389 504 389 l 485 389 m 624 389 l 624 389 q 596 377 608 389 q 583 349 583 365 l 583 346 q 596 318 583 331 q 624 306 608 306 l 626 306 q 655 318 643 306 q 667 346 667 331 l 667 349 q 655 377 667 365 q 626 389 643 389 l 624 389 m 68 250 l 68 250 q 40 238 53 250 q 28 210 28 226 l 28 207 q 40 179 28 192 q 68 167 53 167 l 71 167 q 99 179 88 167 q 111 207 111 192 l 111 210 q 99 238 111 226 q 71 250 88 250 l 68 250 m 624 250 l 624 250 q 596 238 608 250 q 583 210 583 226 l 583 207 q 596 179 583 192 q 624 167 608 167 l 626 167 q 655 179 643 167 q 667 207 667 192 l 667 210 q 655 238 667 226 q 626 250 643 250 l 624 250 m 68 111 l 68 111 q 40 99 53 111 q 28 71 28 88 l 28 68 q 40 40 28 53 q 68 28 53 28 l 71 28 q 99 40 88 28 q 111 68 111 53 l 111 71 q 99 99 111 88 q 71 111 88 111 l 68 111 m 624 111 l 624 111 q 596 99 608 111 q 583 71 583 88 l 583 68 q 596 40 583 53 q 624 28 608 28 l 626 28 q 655 40 643 28 q 667 68 667 53 l 667 71 q 655 99 667 88 q 626 111 643 111 l 624 111 m 485 -28 l 485 -28 q 457 -40 469 -28 q 444 -68 444 -51 l 444 -71 q 457 -99 444 -86 q 485 -111 469 -111 l 488 -111 q 516 -99 504 -111 q 528 -71 528 -86 l 528 -68 q 516 -40 528 -51 q 488 -28 504 -28 l 485 -28 m 485 -167 l 485 -167 q 457 -178 469 -167 q 444 -207 444 -190 l 444 -210 q 457 -237 444 -225 q 485 -250 469 -250 l 488 -250 q 516 -237 504 -250 q 528 -210 528 -225 l 528 -207 q 516 -178 528 -190 q 488 -167 504 -167 l 485 -167 m 624 -167 l 624 -167 q 596 -178 608 -167 q 583 -207 583 -190 l 583 -210 q 596 -237 583 -225 q 624 -250 608 -250 l 626 -250 q 655 -237 643 -250 q 667 -210 667 -225 l 667 -207 q 655 -178 667 -190 q 626 -167 643 -167 l 624 -167 z "},"Å":{"ha":833,"x_min":28,"x_max":667,"o":"m 346 1083 l 346 1083 q 318 1072 331 1083 q 306 1043 306 1060 l 306 1040 q 318 1013 306 1025 q 346 1000 331 1000 l 349 1000 q 377 1013 365 1000 q 389 1040 389 1025 l 389 1043 q 377 1072 389 1060 q 349 1083 365 1083 l 346 1083 m 207 944 l 207 944 q 179 933 192 944 q 167 904 167 921 l 167 901 q 179 874 167 886 q 207 861 192 861 l 210 861 q 238 874 226 861 q 250 901 250 886 l 250 904 q 238 933 250 921 q 210 944 226 944 l 207 944 m 485 944 l 485 944 q 457 933 469 944 q 444 904 444 921 l 444 901 q 457 874 444 886 q 485 861 469 861 l 488 861 q 516 874 504 861 q 528 901 528 886 l 528 904 q 516 933 528 921 q 488 944 504 944 l 485 944 m 207 806 l 207 806 q 179 794 192 806 q 167 765 167 782 l 167 763 q 179 735 167 747 q 207 722 192 722 l 210 722 q 238 735 226 722 q 250 763 250 747 l 250 765 q 238 794 250 782 q 210 806 226 806 l 207 806 m 346 806 l 346 806 q 318 794 331 806 q 306 765 306 782 l 306 763 q 318 735 306 747 q 346 722 331 722 l 349 722 q 377 735 365 722 q 389 763 389 747 l 389 765 q 377 794 389 782 q 349 806 365 806 l 346 806 m 485 806 l 485 806 q 457 794 469 806 q 444 765 444 782 l 444 763 q 457 735 444 747 q 485 722 469 722 l 488 722 q 516 735 504 722 q 528 763 528 747 l 528 765 q 516 794 528 782 q 488 806 504 806 l 485 806 m 68 667 l 68 667 q 40 655 53 667 q 28 626 28 643 l 28 624 q 40 596 28 608 q 68 583 53 583 l 71 583 q 99 596 88 583 q 111 624 111 608 l 111 626 q 99 655 111 643 q 71 667 88 667 l 68 667 m 624 667 l 624 667 q 596 655 608 667 q 583 626 583 643 l 583 624 q 596 596 583 608 q 624 583 608 583 l 626 583 q 655 596 643 583 q 667 624 667 608 l 667 626 q 655 655 667 643 q 626 667 643 667 l 624 667 m 68 528 l 68 528 q 40 516 53 528 q 28 488 28 504 l 28 485 q 40 457 28 469 q 68 444 53 444 l 71 444 q 99 457 88 444 q 111 485 111 469 l 111 488 q 99 516 111 504 q 71 528 88 528 l 68 528 m 624 528 l 624 528 q 596 516 608 528 q 583 488 583 504 l 583 485 q 596 457 583 469 q 624 444 608 444 l 626 444 q 655 457 643 444 q 667 485 667 469 l 667 488 q 655 516 667 504 q 626 528 643 528 l 624 528 m 68 389 l 68 389 q 40 377 53 389 q 28 349 28 365 l 28 346 q 40 318 28 331 q 68 306 53 306 l 71 306 q 99 318 88 306 q 111 346 111 331 l 111 349 q 99 377 111 365 q 71 389 88 389 l 68 389 m 207 389 l 207 389 q 179 377 192 389 q 167 349 167 365 l 167 346 q 179 318 167 331 q 207 306 192 306 l 210 306 q 238 318 226 306 q 250 346 250 331 l 250 349 q 238 377 250 365 q 210 389 226 389 l 207 389 m 346 389 l 346 389 q 318 377 331 389 q 306 349 306 365 l 306 346 q 318 318 306 331 q 346 306 331 306 l 349 306 q 377 318 365 306 q 389 346 389 331 l 389 349 q 377 377 389 365 q 349 389 365 389 l 346 389 m 485 389 l 485 389 q 457 377 469 389 q 444 349 444 365 l 444 346 q 457 318 444 331 q 485 306 469 306 l 488 306 q 516 318 504 306 q 528 346 528 331 l 528 349 q 516 377 528 365 q 488 389 504 389 l 485 389 m 624 389 l 624 389 q 596 377 608 389 q 583 349 583 365 l 583 346 q 596 318 583 331 q 624 306 608 306 l 626 306 q 655 318 643 306 q 667 346 667 331 l 667 349 q 655 377 667 365 q 626 389 643 389 l 624 389 m 68 250 l 68 250 q 40 238 53 250 q 28 210 28 226 l 28 207 q 40 179 28 192 q 68 167 53 167 l 71 167 q 99 179 88 167 q 111 207 111 192 l 111 210 q 99 238 111 226 q 71 250 88 250 l 68 250 m 624 250 l 624 250 q 596 238 608 250 q 583 210 583 226 l 583 207 q 596 179 583 192 q 624 167 608 167 l 626 167 q 655 179 643 167 q 667 207 667 192 l 667 210 q 655 238 667 226 q 626 250 643 250 l 624 250 m 68 111 l 68 111 q 40 99 53 111 q 28 71 28 88 l 28 68 q 40 40 28 53 q 68 28 53 28 l 71 28 q 99 40 88 28 q 111 68 111 53 l 111 71 q 99 99 111 88 q 71 111 88 111 l 68 111 m 624 111 l 624 111 q 596 99 608 111 q 583 71 583 88 l 583 68 q 596 40 583 53 q 624 28 608 28 l 626 28 q 655 40 643 28 q 667 68 667 53 l 667 71 q 655 99 667 88 q 626 111 643 111 l 624 111 z "},"Ã":{"ha":833,"x_min":28,"x_max":667,"o":"m 207 1083 l 207 1083 q 179 1072 192 1083 q 167 1043 167 1060 l 167 1040 q 179 1013 167 1025 q 207 1000 192 1000 l 210 1000 q 238 1013 226 1000 q 250 1040 250 1025 l 250 1043 q 238 1072 250 1060 q 210 1083 226 1083 l 207 1083 m 624 1083 l 624 1083 q 596 1072 608 1083 q 583 1043 583 1060 l 583 1040 q 596 1013 583 1025 q 624 1000 608 1000 l 626 1000 q 655 1013 643 1000 q 667 1040 667 1025 l 667 1043 q 655 1072 667 1060 q 626 1083 643 1083 l 624 1083 m 68 944 l 68 944 q 40 933 53 944 q 28 904 28 921 l 28 901 q 40 874 28 886 q 68 861 53 861 l 71 861 q 99 874 88 861 q 111 901 111 886 l 111 904 q 99 933 111 921 q 71 944 88 944 l 68 944 m 346 944 l 346 944 q 318 933 331 944 q 306 904 306 921 l 306 901 q 318 874 306 886 q 346 861 331 861 l 349 861 q 377 874 365 861 q 389 901 389 886 l 389 904 q 377 933 389 921 q 349 944 365 944 l 346 944 m 485 944 l 485 944 q 457 933 469 944 q 444 904 444 921 l 444 901 q 457 874 444 886 q 485 861 469 861 l 488 861 q 516 874 504 861 q 528 901 528 886 l 528 904 q 516 933 528 921 q 488 944 504 944 l 485 944 m 207 806 l 207 806 q 179 794 192 806 q 167 765 167 782 l 167 763 q 179 735 167 747 q 207 722 192 722 l 210 722 q 238 735 226 722 q 250 763 250 747 l 250 765 q 238 794 250 782 q 210 806 226 806 l 207 806 m 346 806 l 346 806 q 318 794 331 806 q 306 765 306 782 l 306 763 q 318 735 306 747 q 346 722 331 722 l 349 722 q 377 735 365 722 q 389 763 389 747 l 389 765 q 377 794 389 782 q 349 806 365 806 l 346 806 m 485 806 l 485 806 q 457 794 469 806 q 444 765 444 782 l 444 763 q 457 735 444 747 q 485 722 469 722 l 488 722 q 516 735 504 722 q 528 763 528 747 l 528 765 q 516 794 528 782 q 488 806 504 806 l 485 806 m 68 667 l 68 667 q 40 655 53 667 q 28 626 28 643 l 28 624 q 40 596 28 608 q 68 583 53 583 l 71 583 q 99 596 88 583 q 111 624 111 608 l 111 626 q 99 655 111 643 q 71 667 88 667 l 68 667 m 624 667 l 624 667 q 596 655 608 667 q 583 626 583 643 l 583 624 q 596 596 583 608 q 624 583 608 583 l 626 583 q 655 596 643 583 q 667 624 667 608 l 667 626 q 655 655 667 643 q 626 667 643 667 l 624 667 m 68 528 l 68 528 q 40 516 53 528 q 28 488 28 504 l 28 485 q 40 457 28 469 q 68 444 53 444 l 71 444 q 99 457 88 444 q 111 485 111 469 l 111 488 q 99 516 111 504 q 71 528 88 528 l 68 528 m 624 528 l 624 528 q 596 516 608 528 q 583 488 583 504 l 583 485 q 596 457 583 469 q 624 444 608 444 l 626 444 q 655 457 643 444 q 667 485 667 469 l 667 488 q 655 516 667 504 q 626 528 643 528 l 624 528 m 68 389 l 68 389 q 40 377 53 389 q 28 349 28 365 l 28 346 q 40 318 28 331 q 68 306 53 306 l 71 306 q 99 318 88 306 q 111 346 111 331 l 111 349 q 99 377 111 365 q 71 389 88 389 l 68 389 m 207 389 l 207 389 q 179 377 192 389 q 167 349 167 365 l 167 346 q 179 318 167 331 q 207 306 192 306 l 210 306 q 238 318 226 306 q 250 346 250 331 l 250 349 q 238 377 250 365 q 210 389 226 389 l 207 389 m 346 389 l 346 389 q 318 377 331 389 q 306 349 306 365 l 306 346 q 318 318 306 331 q 346 306 331 306 l 349 306 q 377 318 365 306 q 389 346 389 331 l 389 349 q 377 377 389 365 q 349 389 365 389 l 346 389 m 485 389 l 485 389 q 457 377 469 389 q 444 349 444 365 l 444 346 q 457 318 444 331 q 485 306 469 306 l 488 306 q 516 318 504 306 q 528 346 528 331 l 528 349 q 516 377 528 365 q 488 389 504 389 l 485 389 m 624 389 l 624 389 q 596 377 608 389 q 583 349 583 365 l 583 346 q 596 318 583 331 q 624 306 608 306 l 626 306 q 655 318 643 306 q 667 346 667 331 l 667 349 q 655 377 667 365 q 626 389 643 389 l 624 389 m 68 250 l 68 250 q 40 238 53 250 q 28 210 28 226 l 28 207 q 40 179 28 192 q 68 167 53 167 l 71 167 q 99 179 88 167 q 111 207 111 192 l 111 210 q 99 238 111 226 q 71 250 88 250 l 68 250 m 624 250 l 624 250 q 596 238 608 250 q 583 210 583 226 l 583 207 q 596 179 583 192 q 624 167 608 167 l 626 167 q 655 179 643 167 q 667 207 667 192 l 667 210 q 655 238 667 226 q 626 250 643 250 l 624 250 m 68 111 l 68 111 q 40 99 53 111 q 28 71 28 88 l 28 68 q 40 40 28 53 q 68 28 53 28 l 71 28 q 99 40 88 28 q 111 68 111 53 l 111 71 q 99 99 111 88 q 71 111 88 111 l 68 111 m 624 111 l 624 111 q 596 99 608 111 q 583 71 583 88 l 583 68 q 596 40 583 53 q 624 28 608 28 l 626 28 q 655 40 643 28 q 667 68 667 53 l 667 71 q 655 99 667 88 q 626 111 643 111 l 624 111 z "},"B":{"ha":833,"x_min":28,"x_max":667,"o":"m 68 944 l 68 944 q 40 933 53 944 q 28 904 28 921 l 28 901 q 40 874 28 886 q 68 861 53 861 l 71 861 q 99 874 88 861 q 111 901 111 886 l 111 904 q 99 933 111 921 q 71 944 88 944 l 68 944 m 207 944 l 207 944 q 179 933 192 944 q 167 904 167 921 l 167 901 q 179 874 167 886 q 207 861 192 861 l 210 861 q 238 874 226 861 q 250 901 250 886 l 250 904 q 238 933 250 921 q 210 944 226 944 l 207 944 m 346 944 l 346 944 q 318 933 331 944 q 306 904 306 921 l 306 901 q 318 874 306 886 q 346 861 331 861 l 349 861 q 377 874 365 861 q 389 901 389 886 l 389 904 q 377 933 389 921 q 349 944 365 944 l 346 944 m 485 944 l 485 944 q 457 933 469 944 q 444 904 444 921 l 444 901 q 457 874 444 886 q 485 861 469 861 l 488 861 q 516 874 504 861 q 528 901 528 886 l 528 904 q 516 933 528 921 q 488 944 504 944 l 485 944 m 207 806 l 207 806 q 179 794 192 806 q 167 765 167 782 l 167 763 q 179 735 167 747 q 207 722 192 722 l 210 722 q 238 735 226 722 q 250 763 250 747 l 250 765 q 238 794 250 782 q 210 806 226 806 l 207 806 m 624 806 l 624 806 q 596 794 608 806 q 583 765 583 782 l 583 763 q 596 735 583 747 q 624 722 608 722 l 626 722 q 655 735 643 722 q 667 763 667 747 l 667 765 q 655 794 667 782 q 626 806 643 806 l 624 806 m 207 667 l 207 667 q 179 655 192 667 q 167 626 167 643 l 167 624 q 179 596 167 608 q 207 583 192 583 l 210 583 q 238 596 226 583 q 250 624 250 608 l 250 626 q 238 655 250 643 q 210 667 226 667 l 207 667 m 624 667 l 624 667 q 596 655 608 667 q 583 626 583 643 l 583 624 q 596 596 583 608 q 624 583 608 583 l 626 583 q 655 596 643 583 q 667 624 667 608 l 667 626 q 655 655 667 643 q 626 667 643 667 l 624 667 m 207 528 l 207 528 q 179 516 192 528 q 167 488 167 504 l 167 485 q 179 457 167 469 q 207 444 192 444 l 210 444 q 238 457 226 444 q 250 485 250 469 l 250 488 q 238 516 250 504 q 210 528 226 528 l 207 528 m 346 528 l 346 528 q 318 516 331 528 q 306 488 306 504 l 306 485 q 318 457 306 469 q 346 444 331 444 l 349 444 q 377 457 365 444 q 389 485 389 469 l 389 488 q 377 516 389 504 q 349 528 365 528 l 346 528 m 485 528 l 485 528 q 457 516 469 528 q 444 488 444 504 l 444 485 q 457 457 444 469 q 485 444 469 444 l 488 444 q 516 457 504 444 q 528 485 528 469 l 528 488 q 516 516 528 504 q 488 528 504 528 l 485 528 m 207 389 l 207 389 q 179 377 192 389 q 167 349 167 365 l 167 346 q 179 318 167 331 q 207 306 192 306 l 210 306 q 238 318 226 306 q 250 346 250 331 l 250 349 q 238 377 250 365 q 210 389 226 389 l 207 389 m 624 389 l 624 389 q 596 377 608 389 q 583 349 583 365 l 583 346 q 596 318 583 331 q 624 306 608 306 l 626 306 q 655 318 643 306 q 667 346 667 331 l 667 349 q 655 377 667 365 q 626 389 643 389 l 624 389 m 207 250 l 207 250 q 179 238 192 250 q 167 210 167 226 l 167 207 q 179 179 167 192 q 207 167 192 167 l 210 167 q 238 179 226 167 q 250 207 250 192 l 250 210 q 238 238 250 226 q 210 250 226 250 l 207 250 m 624 250 l 624 250 q 596 238 608 250 q 583 210 583 226 l 583 207 q 596 179 583 192 q 624 167 608 167 l 626 167 q 655 179 643 167 q 667 207 667 192 l 667 210 q 655 238 667 226 q 626 250 643 250 l 624 250 m 68 111 l 68 111 q 40 99 53 111 q 28 71 28 88 l 28 68 q 40 40 28 53 q 68 28 53 28 l 71 28 q 99 40 88 28 q 111 68 111 53 l 111 71 q 99 99 111 88 q 71 111 88 111 l 68 111 m 207 111 l 207 111 q 179 99 192 111 q 167 71 167 88 l 167 68 q 179 40 167 53 q 207 28 192 28 l 210 28 q 238 40 226 28 q 250 68 250 53 l 250 71 q 238 99 250 88 q 210 111 226 111 l 207 111 m 346 111 l 346 111 q 318 99 331 111 q 306 71 306 88 l 306 68 q 318 40 306 53 q 346 28 331 28 l 349 28 q 377 40 365 28 q 389 68 389 53 l 389 71 q 377 99 389 88 q 349 111 365 111 l 346 111 m 485 111 l 485 111 q 457 99 469 111 q 444 71 444 88 l 444 68 q 457 40 444 53 q 485 28 469 28 l 488 28 q 516 40 504 28 q 528 68 528 53 l 528 71 q 516 99 528 88 q 488 111 504 111 l 485 111 z "},"C":{"ha":833,"x_min":28,"x_max":667,"o":"m 207 944 l 207 944 q 179 933 192 944 q 167 904 167 921 l 167 901 q 179 874 167 886 q 207 861 192 861 l 210 861 q 238 874 226 861 q 250 901 250 886 l 250 904 q 238 933 250 921 q 210 944 226 944 l 207 944 m 346 944 l 346 944 q 318 933 331 944 q 306 904 306 921 l 306 901 q 318 874 306 886 q 346 861 331 861 l 349 861 q 377 874 365 861 q 389 901 389 886 l 389 904 q 377 933 389 921 q 349 944 365 944 l 346 944 m 485 944 l 485 944 q 457 933 469 944 q 444 904 444 921 l 444 901 q 457 874 444 886 q 485 861 469 861 l 488 861 q 516 874 504 861 q 528 901 528 886 l 528 904 q 516 933 528 921 q 488 944 504 944 l 485 944 m 68 806 l 68 806 q 40 794 53 806 q 28 765 28 782 l 28 763 q 40 735 28 747 q 68 722 53 722 l 71 722 q 99 735 88 722 q 111 763 111 747 l 111 765 q 99 794 111 782 q 71 806 88 806 l 68 806 m 624 806 l 624 806 q 596 794 608 806 q 583 765 583 782 l 583 763 q 596 735 583 747 q 624 722 608 722 l 626 722 q 655 735 643 722 q 667 763 667 747 l 667 765 q 655 794 667 782 q 626 806 643 806 l 624 806 m 68 667 l 68 667 q 40 655 53 667 q 28 626 28 643 l 28 624 q 40 596 28 608 q 68 583 53 583 l 71 583 q 99 596 88 583 q 111 624 111 608 l 111 626 q 99 655 111 643 q 71 667 88 667 l 68 667 m 68 528 l 68 528 q 40 516 53 528 q 28 488 28 504 l 28 485 q 40 457 28 469 q 68 444 53 444 l 71 444 q 99 457 88 444 q 111 485 111 469 l 111 488 q 99 516 111 504 q 71 528 88 528 l 68 528 m 68 389 l 68 389 q 40 377 53 389 q 28 349 28 365 l 28 346 q 40 318 28 331 q 68 306 53 306 l 71 306 q 99 318 88 306 q 111 346 111 331 l 111 349 q 99 377 111 365 q 71 389 88 389 l 68 389 m 68 250 l 68 250 q 40 238 53 250 q 28 210 28 226 l 28 207 q 40 179 28 192 q 68 167 53 167 l 71 167 q 99 179 88 167 q 111 207 111 192 l 111 210 q 99 238 111 226 q 71 250 88 250 l 68 250 m 624 250 l 624 250 q 596 238 608 250 q 583 210 583 226 l 583 207 q 596 179 583 192 q 624 167 608 167 l 626 167 q 655 179 643 167 q 667 207 667 192 l 667 210 q 655 238 667 226 q 626 250 643 250 l 624 250 m 207 111 l 207 111 q 179 99 192 111 q 167 71 167 88 l 167 68 q 179 40 167 53 q 207 28 192 28 l 210 28 q 238 40 226 28 q 250 68 250 53 l 250 71 q 238 99 250 88 q 210 111 226 111 l 207 111 m 346 111 l 346 111 q 318 99 331 111 q 306 71 306 88 l 306 68 q 318 40 306 53 q 346 28 331 28 l 349 28 q 377 40 365 28 q 389 68 389 53 l 389 71 q 377 99 389 88 q 349 111 365 111 l 346 111 m 485 111 l 485 111 q 457 99 469 111 q 444 71 444 88 l 444 68 q 457 40 444 53 q 485 28 469 28 l 488 28 q 516 40 504 28 q 528 68 528 53 l 528 71 q 516 99 528 88 q 488 111 504 111 l 485 111 z "},"Ć":{"ha":833,"x_min":28,"x_max":667,"o":"m 485 1083 l 485 1083 q 457 1072 469 1083 q 444 1043 444 1060 l 444 1040 q 457 1013 444 1025 q 485 1000 469 1000 l 488 1000 q 516 1013 504 1000 q 528 1040 528 1025 l 528 1043 q 516 1072 528 1060 q 488 1083 504 1083 l 485 1083 m 346 944 l 346 944 q 318 933 331 944 q 306 904 306 921 l 306 901 q 318 874 306 886 q 346 861 331 861 l 349 861 q 377 874 365 861 q 389 901 389 886 l 389 904 q 377 933 389 921 q 349 944 365 944 l 346 944 m 207 806 l 207 806 q 179 794 192 806 q 167 765 167 782 l 167 763 q 179 735 167 747 q 207 722 192 722 l 210 722 q 238 735 226 722 q 250 763 250 747 l 250 765 q 238 794 250 782 q 210 806 226 806 l 207 806 m 346 806 l 346 806 q 318 794 331 806 q 306 765 306 782 l 306 763 q 318 735 306 747 q 346 722 331 722 l 349 722 q 377 735 365 722 q 389 763 389 747 l 389 765 q 377 794 389 782 q 349 806 365 806 l 346 806 m 485 806 l 485 806 q 457 794 469 806 q 444 765 444 782 l 444 763 q 457 735 444 747 q 485 722 469 722 l 488 722 q 516 735 504 722 q 528 763 528 747 l 528 765 q 516 794 528 782 q 488 806 504 806 l 485 806 m 68 667 l 68 667 q 40 655 53 667 q 28 626 28 643 l 28 624 q 40 596 28 608 q 68 583 53 583 l 71 583 q 99 596 88 583 q 111 624 111 608 l 111 626 q 99 655 111 643 q 71 667 88 667 l 68 667 m 624 667 l 624 667 q 596 655 608 667 q 583 626 583 643 l 583 624 q 596 596 583 608 q 624 583 608 583 l 626 583 q 655 596 643 583 q 667 624 667 608 l 667 626 q 655 655 667 643 q 626 667 643 667 l 624 667 m 68 528 l 68 528 q 40 516 53 528 q 28 488 28 504 l 28 485 q 40 457 28 469 q 68 444 53 444 l 71 444 q 99 457 88 444 q 111 485 111 469 l 111 488 q 99 516 111 504 q 71 528 88 528 l 68 528 m 68 389 l 68 389 q 40 377 53 389 q 28 349 28 365 l 28 346 q 40 318 28 331 q 68 306 53 306 l 71 306 q 99 318 88 306 q 111 346 111 331 l 111 349 q 99 377 111 365 q 71 389 88 389 l 68 389 m 68 250 l 68 250 q 40 238 53 250 q 28 210 28 226 l 28 207 q 40 179 28 192 q 68 167 53 167 l 71 167 q 99 179 88 167 q 111 207 111 192 l 111 210 q 99 238 111 226 q 71 250 88 250 l 68 250 m 624 250 l 624 250 q 596 238 608 250 q 583 210 583 226 l 583 207 q 596 179 583 192 q 624 167 608 167 l 626 167 q 655 179 643 167 q 667 207 667 192 l 667 210 q 655 238 667 226 q 626 250 643 250 l 624 250 m 207 111 l 207 111 q 179 99 192 111 q 167 71 167 88 l 167 68 q 179 40 167 53 q 207 28 192 28 l 210 28 q 238 40 226 28 q 250 68 250 53 l 250 71 q 238 99 250 88 q 210 111 226 111 l 207 111 m 346 111 l 346 111 q 318 99 331 111 q 306 71 306 88 l 306 68 q 318 40 306 53 q 346 28 331 28 l 349 28 q 377 40 365 28 q 389 68 389 53 l 389 71 q 377 99 389 88 q 349 111 365 111 l 346 111 m 485 111 l 485 111 q 457 99 469 111 q 444 71 444 88 l 444 68 q 457 40 444 53 q 485 28 469 28 l 488 28 q 516 40 504 28 q 528 68 528 53 l 528 71 q 516 99 528 88 q 488 111 504 111 l 485 111 z "},"Č":{"ha":833,"x_min":28,"x_max":667,"o":"m 207 1083 l 207 1083 q 179 1072 192 1083 q 167 1043 167 1060 l 167 1040 q 179 1013 167 1025 q 207 1000 192 1000 l 210 1000 q 238 1013 226 1000 q 250 1040 250 1025 l 250 1043 q 238 1072 250 1060 q 210 1083 226 1083 l 207 1083 m 485 1083 l 485 1083 q 457 1072 469 1083 q 444 1043 444 1060 l 444 1040 q 457 1013 444 1025 q 485 1000 469 1000 l 488 1000 q 516 1013 504 1000 q 528 1040 528 1025 l 528 1043 q 516 1072 528 1060 q 488 1083 504 1083 l 485 1083 m 346 944 l 346 944 q 318 933 331 944 q 306 904 306 921 l 306 901 q 318 874 306 886 q 346 861 331 861 l 349 861 q 377 874 365 861 q 389 901 389 886 l 389 904 q 377 933 389 921 q 349 944 365 944 l 346 944 m 207 806 l 207 806 q 179 794 192 806 q 167 765 167 782 l 167 763 q 179 735 167 747 q 207 722 192 722 l 210 722 q 238 735 226 722 q 250 763 250 747 l 250 765 q 238 794 250 782 q 210 806 226 806 l 207 806 m 346 806 l 346 806 q 318 794 331 806 q 306 765 306 782 l 306 763 q 318 735 306 747 q 346 722 331 722 l 349 722 q 377 735 365 722 q 389 763 389 747 l 389 765 q 377 794 389 782 q 349 806 365 806 l 346 806 m 485 806 l 485 806 q 457 794 469 806 q 444 765 444 782 l 444 763 q 457 735 444 747 q 485 722 469 722 l 488 722 q 516 735 504 722 q 528 763 528 747 l 528 765 q 516 794 528 782 q 488 806 504 806 l 485 806 m 68 667 l 68 667 q 40 655 53 667 q 28 626 28 643 l 28 624 q 40 596 28 608 q 68 583 53 583 l 71 583 q 99 596 88 583 q 111 624 111 608 l 111 626 q 99 655 111 643 q 71 667 88 667 l 68 667 m 624 667 l 624 667 q 596 655 608 667 q 583 626 583 643 l 583 624 q 596 596 583 608 q 624 583 608 583 l 626 583 q 655 596 643 583 q 667 624 667 608 l 667 626 q 655 655 667 643 q 626 667 643 667 l 624 667 m 68 528 l 68 528 q 40 516 53 528 q 28 488 28 504 l 28 485 q 40 457 28 469 q 68 444 53 444 l 71 444 q 99 457 88 444 q 111 485 111 469 l 111 488 q 99 516 111 504 q 71 528 88 528 l 68 528 m 68 389 l 68 389 q 40 377 53 389 q 28 349 28 365 l 28 346 q 40 318 28 331 q 68 306 53 306 l 71 306 q 99 318 88 306 q 111 346 111 331 l 111 349 q 99 377 111 365 q 71 389 88 389 l 68 389 m 68 250 l 68 250 q 40 238 53 250 q 28 210 28 226 l 28 207 q 40 179 28 192 q 68 167 53 167 l 71 167 q 99 179 88 167 q 111 207 111 192 l 111 210 q 99 238 111 226 q 71 250 88 250 l 68 250 m 624 250 l 624 250 q 596 238 608 250 q 583 210 583 226 l 583 207 q 596 179 583 192 q 624 167 608 167 l 626 167 q 655 179 643 167 q 667 207 667 192 l 667 210 q 655 238 667 226 q 626 250 643 250 l 624 250 m 207 111 l 207 111 q 179 99 192 111 q 167 71 167 88 l 167 68 q 179 40 167 53 q 207 28 192 28 l 210 28 q 238 40 226 28 q 250 68 250 53 l 250 71 q 238 99 250 88 q 210 111 226 111 l 207 111 m 346 111 l 346 111 q 318 99 331 111 q 306 71 306 88 l 306 68 q 318 40 306 53 q 346 28 331 28 l 349 28 q 377 40 365 28 q 389 68 389 53 l 389 71 q 377 99 389 88 q 349 111 365 111 l 346 111 m 485 111 l 485 111 q 457 99 469 111 q 444 71 444 88 l 444 68 q 457 40 444 53 q 485 28 469 28 l 488 28 q 516 40 504 28 q 528 68 528 53 l 528 71 q 516 99 528 88 q 488 111 504 111 l 485 111 z "},"Ç":{"ha":833,"x_min":28,"x_max":667,"o":"m 207 944 l 207 944 q 179 933 192 944 q 167 904 167 921 l 167 901 q 179 874 167 886 q 207 861 192 861 l 210 861 q 238 874 226 861 q 250 901 250 886 l 250 904 q 238 933 250 921 q 210 944 226 944 l 207 944 m 346 944 l 346 944 q 318 933 331 944 q 306 904 306 921 l 306 901 q 318 874 306 886 q 346 861 331 861 l 349 861 q 377 874 365 861 q 389 901 389 886 l 389 904 q 377 933 389 921 q 349 944 365 944 l 346 944 m 485 944 l 485 944 q 457 933 469 944 q 444 904 444 921 l 444 901 q 457 874 444 886 q 485 861 469 861 l 488 861 q 516 874 504 861 q 528 901 528 886 l 528 904 q 516 933 528 921 q 488 944 504 944 l 485 944 m 68 806 l 68 806 q 40 794 53 806 q 28 765 28 782 l 28 763 q 40 735 28 747 q 68 722 53 722 l 71 722 q 99 735 88 722 q 111 763 111 747 l 111 765 q 99 794 111 782 q 71 806 88 806 l 68 806 m 624 806 l 624 806 q 596 794 608 806 q 583 765 583 782 l 583 763 q 596 735 583 747 q 624 722 608 722 l 626 722 q 655 735 643 722 q 667 763 667 747 l 667 765 q 655 794 667 782 q 626 806 643 806 l 624 806 m 68 667 l 68 667 q 40 655 53 667 q 28 626 28 643 l 28 624 q 40 596 28 608 q 68 583 53 583 l 71 583 q 99 596 88 583 q 111 624 111 608 l 111 626 q 99 655 111 643 q 71 667 88 667 l 68 667 m 68 528 l 68 528 q 40 516 53 528 q 28 488 28 504 l 28 485 q 40 457 28 469 q 68 444 53 444 l 71 444 q 99 457 88 444 q 111 485 111 469 l 111 488 q 99 516 111 504 q 71 528 88 528 l 68 528 m 68 389 l 68 389 q 40 377 53 389 q 28 349 28 365 l 28 346 q 40 318 28 331 q 68 306 53 306 l 71 306 q 99 318 88 306 q 111 346 111 331 l 111 349 q 99 377 111 365 q 71 389 88 389 l 68 389 m 68 250 l 68 250 q 40 238 53 250 q 28 210 28 226 l 28 207 q 40 179 28 192 q 68 167 53 167 l 71 167 q 99 179 88 167 q 111 207 111 192 l 111 210 q 99 238 111 226 q 71 250 88 250 l 68 250 m 624 250 l 624 250 q 596 238 608 250 q 583 210 583 226 l 583 207 q 596 179 583 192 q 624 167 608 167 l 626 167 q 655 179 643 167 q 667 207 667 192 l 667 210 q 655 238 667 226 q 626 250 643 250 l 624 250 m 207 111 l 207 111 q 179 99 192 111 q 167 71 167 88 l 167 68 q 179 40 167 53 q 207 28 192 28 l 210 28 q 238 40 226 28 q 250 68 250 53 l 250 71 q 238 99 250 88 q 210 111 226 111 l 207 111 m 346 111 l 346 111 q 318 99 331 111 q 306 71 306 88 l 306 68 q 318 40 306 53 q 346 28 331 28 l 349 28 q 377 40 365 28 q 389 68 389 53 l 389 71 q 377 99 389 88 q 349 111 365 111 l 346 111 m 485 111 l 485 111 q 457 99 469 111 q 444 71 444 88 l 444 68 q 457 40 444 53 q 485 28 469 28 l 488 28 q 516 40 504 28 q 528 68 528 53 l 528 71 q 516 99 528 88 q 488 111 504 111 l 485 111 m 346 -28 l 346 -28 q 318 -40 331 -28 q 306 -68 306 -51 l 306 -71 q 318 -99 306 -86 q 346 -111 331 -111 l 349 -111 q 377 -99 365 -111 q 389 -71 389 -86 l 389 -68 q 377 -40 389 -51 q 349 -28 365 -28 l 346 -28 m 207 -167 l 207 -167 q 179 -178 192 -167 q 167 -207 167 -190 l 167 -210 q 179 -237 167 -225 q 207 -250 192 -250 l 210 -250 q 238 -237 226 -250 q 250 -210 250 -225 l 250 -207 q 238 -178 250 -190 q 210 -167 226 -167 l 207 -167 z "},"Ċ":{"ha":833,"x_min":28,"x_max":667,"o":"m 346 1083 l 346 1083 q 318 1072 331 1083 q 306 1043 306 1060 l 306 1040 q 318 1013 306 1025 q 346 1000 331 1000 l 349 1000 q 377 1013 365 1000 q 389 1040 389 1025 l 389 1043 q 377 1072 389 1060 q 349 1083 365 1083 l 346 1083 m 207 806 l 207 806 q 179 794 192 806 q 167 765 167 782 l 167 763 q 179 735 167 747 q 207 722 192 722 l 210 722 q 238 735 226 722 q 250 763 250 747 l 250 765 q 238 794 250 782 q 210 806 226 806 l 207 806 m 346 806 l 346 806 q 318 794 331 806 q 306 765 306 782 l 306 763 q 318 735 306 747 q 346 722 331 722 l 349 722 q 377 735 365 722 q 389 763 389 747 l 389 765 q 377 794 389 782 q 349 806 365 806 l 346 806 m 485 806 l 485 806 q 457 794 469 806 q 444 765 444 782 l 444 763 q 457 735 444 747 q 485 722 469 722 l 488 722 q 516 735 504 722 q 528 763 528 747 l 528 765 q 516 794 528 782 q 488 806 504 806 l 485 806 m 68 667 l 68 667 q 40 655 53 667 q 28 626 28 643 l 28 624 q 40 596 28 608 q 68 583 53 583 l 71 583 q 99 596 88 583 q 111 624 111 608 l 111 626 q 99 655 111 643 q 71 667 88 667 l 68 667 m 624 667 l 624 667 q 596 655 608 667 q 583 626 583 643 l 583 624 q 596 596 583 608 q 624 583 608 583 l 626 583 q 655 596 643 583 q 667 624 667 608 l 667 626 q 655 655 667 643 q 626 667 643 667 l 624 667 m 68 528 l 68 528 q 40 516 53 528 q 28 488 28 504 l 28 485 q 40 457 28 469 q 68 444 53 444 l 71 444 q 99 457 88 444 q 111 485 111 469 l 111 488 q 99 516 111 504 q 71 528 88 528 l 68 528 m 68 389 l 68 389 q 40 377 53 389 q 28 349 28 365 l 28 346 q 40 318 28 331 q 68 306 53 306 l 71 306 q 99 318 88 306 q 111 346 111 331 l 111 349 q 99 377 111 365 q 71 389 88 389 l 68 389 m 68 250 l 68 250 q 40 238 53 250 q 28 210 28 226 l 28 207 q 40 179 28 192 q 68 167 53 167 l 71 167 q 99 179 88 167 q 111 207 111 192 l 111 210 q 99 238 111 226 q 71 250 88 250 l 68 250 m 624 250 l 624 250 q 596 238 608 250 q 583 210 583 226 l 583 207 q 596 179 583 192 q 624 167 608 167 l 626 167 q 655 179 643 167 q 667 207 667 192 l 667 210 q 655 238 667 226 q 626 250 643 250 l 624 250 m 207 111 l 207 111 q 179 99 192 111 q 167 71 167 88 l 167 68 q 179 40 167 53 q 207 28 192 28 l 210 28 q 238 40 226 28 q 250 68 250 53 l 250 71 q 238 99 250 88 q 210 111 226 111 l 207 111 m 346 111 l 346 111 q 318 99 331 111 q 306 71 306 88 l 306 68 q 318 40 306 53 q 346 28 331 28 l 349 28 q 377 40 365 28 q 389 68 389 53 l 389 71 q 377 99 389 88 q 349 111 365 111 l 346 111 m 485 111 l 485 111 q 457 99 469 111 q 444 71 444 88 l 444 68 q 457 40 444 53 q 485 28 469 28 l 488 28 q 516 40 504 28 q 528 68 528 53 l 528 71 q 516 99 528 88 q 488 111 504 111 l 485 111 z "},"D":{"ha":833,"x_min":28,"x_max":667,"o":"m 68 944 l 68 944 q 40 933 53 944 q 28 904 28 921 l 28 901 q 40 874 28 886 q 68 861 53 861 l 71 861 q 99 874 88 861 q 111 901 111 886 l 111 904 q 99 933 111 921 q 71 944 88 944 l 68 944 m 207 944 l 207 944 q 179 933 192 944 q 167 904 167 921 l 167 901 q 179 874 167 886 q 207 861 192 861 l 210 861 q 238 874 226 861 q 250 901 250 886 l 250 904 q 238 933 250 921 q 210 944 226 944 l 207 944 m 346 944 l 346 944 q 318 933 331 944 q 306 904 306 921 l 306 901 q 318 874 306 886 q 346 861 331 861 l 349 861 q 377 874 365 861 q 389 901 389 886 l 389 904 q 377 933 389 921 q 349 944 365 944 l 346 944 m 485 944 l 485 944 q 457 933 469 944 q 444 904 444 921 l 444 901 q 457 874 444 886 q 485 861 469 861 l 488 861 q 516 874 504 861 q 528 901 528 886 l 528 904 q 516 933 528 921 q 488 944 504 944 l 485 944 m 207 806 l 207 806 q 179 794 192 806 q 167 765 167 782 l 167 763 q 179 735 167 747 q 207 722 192 722 l 210 722 q 238 735 226 722 q 250 763 250 747 l 250 765 q 238 794 250 782 q 210 806 226 806 l 207 806 m 624 806 l 624 806 q 596 794 608 806 q 583 765 583 782 l 583 763 q 596 735 583 747 q 624 722 608 722 l 626 722 q 655 735 643 722 q 667 763 667 747 l 667 765 q 655 794 667 782 q 626 806 643 806 l 624 806 m 207 667 l 207 667 q 179 655 192 667 q 167 626 167 643 l 167 624 q 179 596 167 608 q 207 583 192 583 l 210 583 q 238 596 226 583 q 250 624 250 608 l 250 626 q 238 655 250 643 q 210 667 226 667 l 207 667 m 624 667 l 624 667 q 596 655 608 667 q 583 626 583 643 l 583 624 q 596 596 583 608 q 624 583 608 583 l 626 583 q 655 596 643 583 q 667 624 667 608 l 667 626 q 655 655 667 643 q 626 667 643 667 l 624 667 m 207 528 l 207 528 q 179 516 192 528 q 167 488 167 504 l 167 485 q 179 457 167 469 q 207 444 192 444 l 210 444 q 238 457 226 444 q 250 485 250 469 l 250 488 q 238 516 250 504 q 210 528 226 528 l 207 528 m 624 528 l 624 528 q 596 516 608 528 q 583 488 583 504 l 583 485 q 596 457 583 469 q 624 444 608 444 l 626 444 q 655 457 643 444 q 667 485 667 469 l 667 488 q 655 516 667 504 q 626 528 643 528 l 624 528 m 207 389 l 207 389 q 179 377 192 389 q 167 349 167 365 l 167 346 q 179 318 167 331 q 207 306 192 306 l 210 306 q 238 318 226 306 q 250 346 250 331 l 250 349 q 238 377 250 365 q 210 389 226 389 l 207 389 m 624 389 l 624 389 q 596 377 608 389 q 583 349 583 365 l 583 346 q 596 318 583 331 q 624 306 608 306 l 626 306 q 655 318 643 306 q 667 346 667 331 l 667 349 q 655 377 667 365 q 626 389 643 389 l 624 389 m 207 250 l 207 250 q 179 238 192 250 q 167 210 167 226 l 167 207 q 179 179 167 192 q 207 167 192 167 l 210 167 q 238 179 226 167 q 250 207 250 192 l 250 210 q 238 238 250 226 q 210 250 226 250 l 207 250 m 624 250 l 624 250 q 596 238 608 250 q 583 210 583 226 l 583 207 q 596 179 583 192 q 624 167 608 167 l 626 167 q 655 179 643 167 q 667 207 667 192 l 667 210 q 655 238 667 226 q 626 250 643 250 l 624 250 m 68 111 l 68 111 q 40 99 53 111 q 28 71 28 88 l 28 68 q 40 40 28 53 q 68 28 53 28 l 71 28 q 99 40 88 28 q 111 68 111 53 l 111 71 q 99 99 111 88 q 71 111 88 111 l 68 111 m 207 111 l 207 111 q 179 99 192 111 q 167 71 167 88 l 167 68 q 179 40 167 53 q 207 28 192 28 l 210 28 q 238 40 226 28 q 250 68 250 53 l 250 71 q 238 99 250 88 q 210 111 226 111 l 207 111 m 346 111 l 346 111 q 318 99 331 111 q 306 71 306 88 l 306 68 q 318 40 306 53 q 346 28 331 28 l 349 28 q 377 40 365 28 q 389 68 389 53 l 389 71 q 377 99 389 88 q 349 111 365 111 l 346 111 m 485 111 l 485 111 q 457 99 469 111 q 444 71 444 88 l 444 68 q 457 40 444 53 q 485 28 469 28 l 488 28 q 516 40 504 28 q 528 68 528 53 l 528 71 q 516 99 528 88 q 488 111 504 111 l 485 111 z "},"Ď":{"ha":833,"x_min":28,"x_max":667,"o":"m 207 1083 l 207 1083 q 179 1072 192 1083 q 167 1043 167 1060 l 167 1040 q 179 1013 167 1025 q 207 1000 192 1000 l 210 1000 q 238 1013 226 1000 q 250 1040 250 1025 l 250 1043 q 238 1072 250 1060 q 210 1083 226 1083 l 207 1083 m 485 1083 l 485 1083 q 457 1072 469 1083 q 444 1043 444 1060 l 444 1040 q 457 1013 444 1025 q 485 1000 469 1000 l 488 1000 q 516 1013 504 1000 q 528 1040 528 1025 l 528 1043 q 516 1072 528 1060 q 488 1083 504 1083 l 485 1083 m 346 944 l 346 944 q 318 933 331 944 q 306 904 306 921 l 306 901 q 318 874 306 886 q 346 861 331 861 l 349 861 q 377 874 365 861 q 389 901 389 886 l 389 904 q 377 933 389 921 q 349 944 365 944 l 346 944 m 68 806 l 68 806 q 40 794 53 806 q 28 765 28 782 l 28 763 q 40 735 28 747 q 68 722 53 722 l 71 722 q 99 735 88 722 q 111 763 111 747 l 111 765 q 99 794 111 782 q 71 806 88 806 l 68 806 m 207 806 l 207 806 q 179 794 192 806 q 167 765 167 782 l 167 763 q 179 735 167 747 q 207 722 192 722 l 210 722 q 238 735 226 722 q 250 763 250 747 l 250 765 q 238 794 250 782 q 210 806 226 806 l 207 806 m 346 806 l 346 806 q 318 794 331 806 q 306 765 306 782 l 306 763 q 318 735 306 747 q 346 722 331 722 l 349 722 q 377 735 365 722 q 389 763 389 747 l 389 765 q 377 794 389 782 q 349 806 365 806 l 346 806 m 485 806 l 485 806 q 457 794 469 806 q 444 765 444 782 l 444 763 q 457 735 444 747 q 485 722 469 722 l 488 722 q 516 735 504 722 q 528 763 528 747 l 528 765 q 516 794 528 782 q 488 806 504 806 l 485 806 m 68 667 l 68 667 q 40 655 53 667 q 28 626 28 643 l 28 624 q 40 596 28 608 q 68 583 53 583 l 71 583 q 99 596 88 583 q 111 624 111 608 l 111 626 q 99 655 111 643 q 71 667 88 667 l 68 667 m 624 667 l 624 667 q 596 655 608 667 q 583 626 583 643 l 583 624 q 596 596 583 608 q 624 583 608 583 l 626 583 q 655 596 643 583 q 667 624 667 608 l 667 626 q 655 655 667 643 q 626 667 643 667 l 624 667 m 68 528 l 68 528 q 40 516 53 528 q 28 488 28 504 l 28 485 q 40 457 28 469 q 68 444 53 444 l 71 444 q 99 457 88 444 q 111 485 111 469 l 111 488 q 99 516 111 504 q 71 528 88 528 l 68 528 m 624 528 l 624 528 q 596 516 608 528 q 583 488 583 504 l 583 485 q 596 457 583 469 q 624 444 608 444 l 626 444 q 655 457 643 444 q 667 485 667 469 l 667 488 q 655 516 667 504 q 626 528 643 528 l 624 528 m 68 389 l 68 389 q 40 377 53 389 q 28 349 28 365 l 28 346 q 40 318 28 331 q 68 306 53 306 l 71 306 q 99 318 88 306 q 111 346 111 331 l 111 349 q 99 377 111 365 q 71 389 88 389 l 68 389 m 624 389 l 624 389 q 596 377 608 389 q 583 349 583 365 l 583 346 q 596 318 583 331 q 624 306 608 306 l 626 306 q 655 318 643 306 q 667 346 667 331 l 667 349 q 655 377 667 365 q 626 389 643 389 l 624 389 m 68 250 l 68 250 q 40 238 53 250 q 28 210 28 226 l 28 207 q 40 179 28 192 q 68 167 53 167 l 71 167 q 99 179 88 167 q 111 207 111 192 l 111 210 q 99 238 111 226 q 71 250 88 250 l 68 250 m 624 250 l 624 250 q 596 238 608 250 q 583 210 583 226 l 583 207 q 596 179 583 192 q 624 167 608 167 l 626 167 q 655 179 643 167 q 667 207 667 192 l 667 210 q 655 238 667 226 q 626 250 643 250 l 624 250 m 68 111 l 68 111 q 40 99 53 111 q 28 71 28 88 l 28 68 q 40 40 28 53 q 68 28 53 28 l 71 28 q 99 40 88 28 q 111 68 111 53 l 111 71 q 99 99 111 88 q 71 111 88 111 l 68 111 m 207 111 l 207 111 q 179 99 192 111 q 167 71 167 88 l 167 68 q 179 40 167 53 q 207 28 192 28 l 210 28 q 238 40 226 28 q 250 68 250 53 l 250 71 q 238 99 250 88 q 210 111 226 111 l 207 111 m 346 111 l 346 111 q 318 99 331 111 q 306 71 306 88 l 306 68 q 318 40 306 53 q 346 28 331 28 l 349 28 q 377 40 365 28 q 389 68 389 53 l 389 71 q 377 99 389 88 q 349 111 365 111 l 346 111 m 485 111 l 485 111 q 457 99 469 111 q 444 71 444 88 l 444 68 q 457 40 444 53 q 485 28 469 28 l 488 28 q 516 40 504 28 q 528 68 528 53 l 528 71 q 516 99 528 88 q 488 111 504 111 l 485 111 z "},"Đ":{"ha":833,"x_min":28,"x_max":667,"o":"m 207 944 l 207 944 q 179 933 192 944 q 167 904 167 921 l 167 901 q 179 874 167 886 q 207 861 192 861 l 210 861 q 238 874 226 861 q 250 901 250 886 l 250 904 q 238 933 250 921 q 210 944 226 944 l 207 944 m 346 944 l 346 944 q 318 933 331 944 q 306 904 306 921 l 306 901 q 318 874 306 886 q 346 861 331 861 l 349 861 q 377 874 365 861 q 389 901 389 886 l 389 904 q 377 933 389 921 q 349 944 365 944 l 346 944 m 485 944 l 485 944 q 457 933 469 944 q 444 904 444 921 l 444 901 q 457 874 444 886 q 485 861 469 861 l 488 861 q 516 874 504 861 q 528 901 528 886 l 528 904 q 516 933 528 921 q 488 944 504 944 l 485 944 m 207 806 l 207 806 q 179 794 192 806 q 167 765 167 782 l 167 763 q 179 735 167 747 q 207 722 192 722 l 210 722 q 238 735 226 722 q 250 763 250 747 l 250 765 q 238 794 250 782 q 210 806 226 806 l 207 806 m 624 806 l 624 806 q 596 794 608 806 q 583 765 583 782 l 583 763 q 596 735 583 747 q 624 722 608 722 l 626 722 q 655 735 643 722 q 667 763 667 747 l 667 765 q 655 794 667 782 q 626 806 643 806 l 624 806 m 207 667 l 207 667 q 179 655 192 667 q 167 626 167 643 l 167 624 q 179 596 167 608 q 207 583 192 583 l 210 583 q 238 596 226 583 q 250 624 250 608 l 250 626 q 238 655 250 643 q 210 667 226 667 l 207 667 m 624 667 l 624 667 q 596 655 608 667 q 583 626 583 643 l 583 624 q 596 596 583 608 q 624 583 608 583 l 626 583 q 655 596 643 583 q 667 624 667 608 l 667 626 q 655 655 667 643 q 626 667 643 667 l 624 667 m 68 528 l 68 528 q 40 516 53 528 q 28 488 28 504 l 28 485 q 40 457 28 469 q 68 444 53 444 l 71 444 q 99 457 88 444 q 111 485 111 469 l 111 488 q 99 516 111 504 q 71 528 88 528 l 68 528 m 207 528 l 207 528 q 179 516 192 528 q 167 488 167 504 l 167 485 q 179 457 167 469 q 207 444 192 444 l 210 444 q 238 457 226 444 q 250 485 250 469 l 250 488 q 238 516 250 504 q 210 528 226 528 l 207 528 m 346 528 l 346 528 q 318 516 331 528 q 306 488 306 504 l 306 485 q 318 457 306 469 q 346 444 331 444 l 349 444 q 377 457 365 444 q 389 485 389 469 l 389 488 q 377 516 389 504 q 349 528 365 528 l 346 528 m 624 528 l 624 528 q 596 516 608 528 q 583 488 583 504 l 583 485 q 596 457 583 469 q 624 444 608 444 l 626 444 q 655 457 643 444 q 667 485 667 469 l 667 488 q 655 516 667 504 q 626 528 643 528 l 624 528 m 207 389 l 207 389 q 179 377 192 389 q 167 349 167 365 l 167 346 q 179 318 167 331 q 207 306 192 306 l 210 306 q 238 318 226 306 q 250 346 250 331 l 250 349 q 238 377 250 365 q 210 389 226 389 l 207 389 m 624 389 l 624 389 q 596 377 608 389 q 583 349 583 365 l 583 346 q 596 318 583 331 q 624 306 608 306 l 626 306 q 655 318 643 306 q 667 346 667 331 l 667 349 q 655 377 667 365 q 626 389 643 389 l 624 389 m 207 250 l 207 250 q 179 238 192 250 q 167 210 167 226 l 167 207 q 179 179 167 192 q 207 167 192 167 l 210 167 q 238 179 226 167 q 250 207 250 192 l 250 210 q 238 238 250 226 q 210 250 226 250 l 207 250 m 624 250 l 624 250 q 596 238 608 250 q 583 210 583 226 l 583 207 q 596 179 583 192 q 624 167 608 167 l 626 167 q 655 179 643 167 q 667 207 667 192 l 667 210 q 655 238 667 226 q 626 250 643 250 l 624 250 m 207 111 l 207 111 q 179 99 192 111 q 167 71 167 88 l 167 68 q 179 40 167 53 q 207 28 192 28 l 210 28 q 238 40 226 28 q 250 68 250 53 l 250 71 q 238 99 250 88 q 210 111 226 111 l 207 111 m 346 111 l 346 111 q 318 99 331 111 q 306 71 306 88 l 306 68 q 318 40 306 53 q 346 28 331 28 l 349 28 q 377 40 365 28 q 389 68 389 53 l 389 71 q 377 99 389 88 q 349 111 365 111 l 346 111 m 485 111 l 485 111 q 457 99 469 111 q 444 71 444 88 l 444 68 q 457 40 444 53 q 485 28 469 28 l 488 28 q 516 40 504 28 q 528 68 528 53 l 528 71 q 516 99 528 88 q 488 111 504 111 l 485 111 z "},"E":{"ha":833,"x_min":28,"x_max":667,"o":"m 68 944 l 68 944 q 40 933 53 944 q 28 904 28 921 l 28 901 q 40 874 28 886 q 68 861 53 861 l 71 861 q 99 874 88 861 q 111 901 111 886 l 111 904 q 99 933 111 921 q 71 944 88 944 l 68 944 m 207 944 l 207 944 q 179 933 192 944 q 167 904 167 921 l 167 901 q 179 874 167 886 q 207 861 192 861 l 210 861 q 238 874 226 861 q 250 901 250 886 l 250 904 q 238 933 250 921 q 210 944 226 944 l 207 944 m 346 944 l 346 944 q 318 933 331 944 q 306 904 306 921 l 306 901 q 318 874 306 886 q 346 861 331 861 l 349 861 q 377 874 365 861 q 389 901 389 886 l 389 904 q 377 933 389 921 q 349 944 365 944 l 346 944 m 485 944 l 485 944 q 457 933 469 944 q 444 904 444 921 l 444 901 q 457 874 444 886 q 485 861 469 861 l 488 861 q 516 874 504 861 q 528 901 528 886 l 528 904 q 516 933 528 921 q 488 944 504 944 l 485 944 m 624 944 l 624 944 q 596 933 608 944 q 583 904 583 921 l 583 901 q 596 874 583 886 q 624 861 608 861 l 626 861 q 655 874 643 861 q 667 901 667 886 l 667 904 q 655 933 667 921 q 626 944 643 944 l 624 944 m 68 806 l 68 806 q 40 794 53 806 q 28 765 28 782 l 28 763 q 40 735 28 747 q 68 722 53 722 l 71 722 q 99 735 88 722 q 111 763 111 747 l 111 765 q 99 794 111 782 q 71 806 88 806 l 68 806 m 68 667 l 68 667 q 40 655 53 667 q 28 626 28 643 l 28 624 q 40 596 28 608 q 68 583 53 583 l 71 583 q 99 596 88 583 q 111 624 111 608 l 111 626 q 99 655 111 643 q 71 667 88 667 l 68 667 m 68 528 l 68 528 q 40 516 53 528 q 28 488 28 504 l 28 485 q 40 457 28 469 q 68 444 53 444 l 71 444 q 99 457 88 444 q 111 485 111 469 l 111 488 q 99 516 111 504 q 71 528 88 528 l 68 528 m 207 528 l 207 528 q 179 516 192 528 q 167 488 167 504 l 167 485 q 179 457 167 469 q 207 444 192 444 l 210 444 q 238 457 226 444 q 250 485 250 469 l 250 488 q 238 516 250 504 q 210 528 226 528 l 207 528 m 346 528 l 346 528 q 318 516 331 528 q 306 488 306 504 l 306 485 q 318 457 306 469 q 346 444 331 444 l 349 444 q 377 457 365 444 q 389 485 389 469 l 389 488 q 377 516 389 504 q 349 528 365 528 l 346 528 m 485 528 l 485 528 q 457 516 469 528 q 444 488 444 504 l 444 485 q 457 457 444 469 q 485 444 469 444 l 488 444 q 516 457 504 444 q 528 485 528 469 l 528 488 q 516 516 528 504 q 488 528 504 528 l 485 528 m 68 389 l 68 389 q 40 377 53 389 q 28 349 28 365 l 28 346 q 40 318 28 331 q 68 306 53 306 l 71 306 q 99 318 88 306 q 111 346 111 331 l 111 349 q 99 377 111 365 q 71 389 88 389 l 68 389 m 68 250 l 68 250 q 40 238 53 250 q 28 210 28 226 l 28 207 q 40 179 28 192 q 68 167 53 167 l 71 167 q 99 179 88 167 q 111 207 111 192 l 111 210 q 99 238 111 226 q 71 250 88 250 l 68 250 m 68 111 l 68 111 q 40 99 53 111 q 28 71 28 88 l 28 68 q 40 40 28 53 q 68 28 53 28 l 71 28 q 99 40 88 28 q 111 68 111 53 l 111 71 q 99 99 111 88 q 71 111 88 111 l 68 111 m 207 111 l 207 111 q 179 99 192 111 q 167 71 167 88 l 167 68 q 179 40 167 53 q 207 28 192 28 l 210 28 q 238 40 226 28 q 250 68 250 53 l 250 71 q 238 99 250 88 q 210 111 226 111 l 207 111 m 346 111 l 346 111 q 318 99 331 111 q 306 71 306 88 l 306 68 q 318 40 306 53 q 346 28 331 28 l 349 28 q 377 40 365 28 q 389 68 389 53 l 389 71 q 377 99 389 88 q 349 111 365 111 l 346 111 m 485 111 l 485 111 q 457 99 469 111 q 444 71 444 88 l 444 68 q 457 40 444 53 q 485 28 469 28 l 488 28 q 516 40 504 28 q 528 68 528 53 l 528 71 q 516 99 528 88 q 488 111 504 111 l 485 111 m 624 111 l 624 111 q 596 99 608 111 q 583 71 583 88 l 583 68 q 596 40 583 53 q 624 28 608 28 l 626 28 q 655 40 643 28 q 667 68 667 53 l 667 71 q 655 99 667 88 q 626 111 643 111 l 624 111 z "},"É":{"ha":833,"x_min":28,"x_max":667,"o":"m 485 1083 l 485 1083 q 457 1072 469 1083 q 444 1043 444 1060 l 444 1040 q 457 1013 444 1025 q 485 1000 469 1000 l 488 1000 q 516 1013 504 1000 q 528 1040 528 1025 l 528 1043 q 516 1072 528 1060 q 488 1083 504 1083 l 485 1083 m 68 944 l 68 944 q 40 933 53 944 q 28 904 28 921 l 28 901 q 40 874 28 886 q 68 861 53 861 l 71 861 q 99 874 88 861 q 111 901 111 886 l 111 904 q 99 933 111 921 q 71 944 88 944 l 68 944 m 207 944 l 207 944 q 179 933 192 944 q 167 904 167 921 l 167 901 q 179 874 167 886 q 207 861 192 861 l 210 861 q 238 874 226 861 q 250 901 250 886 l 250 904 q 238 933 250 921 q 210 944 226 944 l 207 944 m 346 944 l 346 944 q 318 933 331 944 q 306 904 306 921 l 306 901 q 318 874 306 886 q 346 861 331 861 l 349 861 q 377 874 365 861 q 389 901 389 886 l 389 904 q 377 933 389 921 q 349 944 365 944 l 346 944 m 485 944 l 485 944 q 457 933 469 944 q 444 904 444 921 l 444 901 q 457 874 444 886 q 485 861 469 861 l 488 861 q 516 874 504 861 q 528 901 528 886 l 528 904 q 516 933 528 921 q 488 944 504 944 l 485 944 m 624 944 l 624 944 q 596 933 608 944 q 583 904 583 921 l 583 901 q 596 874 583 886 q 624 861 608 861 l 626 861 q 655 874 643 861 q 667 901 667 886 l 667 904 q 655 933 667 921 q 626 944 643 944 l 624 944 m 68 806 l 68 806 q 40 794 53 806 q 28 765 28 782 l 28 763 q 40 735 28 747 q 68 722 53 722 l 71 722 q 99 735 88 722 q 111 763 111 747 l 111 765 q 99 794 111 782 q 71 806 88 806 l 68 806 m 68 667 l 68 667 q 40 655 53 667 q 28 626 28 643 l 28 624 q 40 596 28 608 q 68 583 53 583 l 71 583 q 99 596 88 583 q 111 624 111 608 l 111 626 q 99 655 111 643 q 71 667 88 667 l 68 667 m 68 528 l 68 528 q 40 516 53 528 q 28 488 28 504 l 28 485 q 40 457 28 469 q 68 444 53 444 l 71 444 q 99 457 88 444 q 111 485 111 469 l 111 488 q 99 516 111 504 q 71 528 88 528 l 68 528 m 207 528 l 207 528 q 179 516 192 528 q 167 488 167 504 l 167 485 q 179 457 167 469 q 207 444 192 444 l 210 444 q 238 457 226 444 q 250 485 250 469 l 250 488 q 238 516 250 504 q 210 528 226 528 l 207 528 m 346 528 l 346 528 q 318 516 331 528 q 306 488 306 504 l 306 485 q 318 457 306 469 q 346 444 331 444 l 349 444 q 377 457 365 444 q 389 485 389 469 l 389 488 q 377 516 389 504 q 349 528 365 528 l 346 528 m 485 528 l 485 528 q 457 516 469 528 q 444 488 444 504 l 444 485 q 457 457 444 469 q 485 444 469 444 l 488 444 q 516 457 504 444 q 528 485 528 469 l 528 488 q 516 516 528 504 q 488 528 504 528 l 485 528 m 68 389 l 68 389 q 40 377 53 389 q 28 349 28 365 l 28 346 q 40 318 28 331 q 68 306 53 306 l 71 306 q 99 318 88 306 q 111 346 111 331 l 111 349 q 99 377 111 365 q 71 389 88 389 l 68 389 m 68 250 l 68 250 q 40 238 53 250 q 28 210 28 226 l 28 207 q 40 179 28 192 q 68 167 53 167 l 71 167 q 99 179 88 167 q 111 207 111 192 l 111 210 q 99 238 111 226 q 71 250 88 250 l 68 250 m 68 111 l 68 111 q 40 99 53 111 q 28 71 28 88 l 28 68 q 40 40 28 53 q 68 28 53 28 l 71 28 q 99 40 88 28 q 111 68 111 53 l 111 71 q 99 99 111 88 q 71 111 88 111 l 68 111 m 207 111 l 207 111 q 179 99 192 111 q 167 71 167 88 l 167 68 q 179 40 167 53 q 207 28 192 28 l 210 28 q 238 40 226 28 q 250 68 250 53 l 250 71 q 238 99 250 88 q 210 111 226 111 l 207 111 m 346 111 l 346 111 q 318 99 331 111 q 306 71 306 88 l 306 68 q 318 40 306 53 q 346 28 331 28 l 349 28 q 377 40 365 28 q 389 68 389 53 l 389 71 q 377 99 389 88 q 349 111 365 111 l 346 111 m 485 111 l 485 111 q 457 99 469 111 q 444 71 444 88 l 444 68 q 457 40 444 53 q 485 28 469 28 l 488 28 q 516 40 504 28 q 528 68 528 53 l 528 71 q 516 99 528 88 q 488 111 504 111 l 485 111 m 624 111 l 624 111 q 596 99 608 111 q 583 71 583 88 l 583 68 q 596 40 583 53 q 624 28 608 28 l 626 28 q 655 40 643 28 q 667 68 667 53 l 667 71 q 655 99 667 88 q 626 111 643 111 l 624 111 z "},"Ě":{"ha":833,"x_min":28,"x_max":667,"o":"m 207 1083 l 207 1083 q 179 1072 192 1083 q 167 1043 167 1060 l 167 1040 q 179 1013 167 1025 q 207 1000 192 1000 l 210 1000 q 238 1013 226 1000 q 250 1040 250 1025 l 250 1043 q 238 1072 250 1060 q 210 1083 226 1083 l 207 1083 m 485 1083 l 485 1083 q 457 1072 469 1083 q 444 1043 444 1060 l 444 1040 q 457 1013 444 1025 q 485 1000 469 1000 l 488 1000 q 516 1013 504 1000 q 528 1040 528 1025 l 528 1043 q 516 1072 528 1060 q 488 1083 504 1083 l 485 1083 m 346 944 l 346 944 q 318 933 331 944 q 306 904 306 921 l 306 901 q 318 874 306 886 q 346 861 331 861 l 349 861 q 377 874 365 861 q 389 901 389 886 l 389 904 q 377 933 389 921 q 349 944 365 944 l 346 944 m 68 806 l 68 806 q 40 794 53 806 q 28 765 28 782 l 28 763 q 40 735 28 747 q 68 722 53 722 l 71 722 q 99 735 88 722 q 111 763 111 747 l 111 765 q 99 794 111 782 q 71 806 88 806 l 68 806 m 207 806 l 207 806 q 179 794 192 806 q 167 765 167 782 l 167 763 q 179 735 167 747 q 207 722 192 722 l 210 722 q 238 735 226 722 q 250 763 250 747 l 250 765 q 238 794 250 782 q 210 806 226 806 l 207 806 m 346 806 l 346 806 q 318 794 331 806 q 306 765 306 782 l 306 763 q 318 735 306 747 q 346 722 331 722 l 349 722 q 377 735 365 722 q 389 763 389 747 l 389 765 q 377 794 389 782 q 349 806 365 806 l 346 806 m 485 806 l 485 806 q 457 794 469 806 q 444 765 444 782 l 444 763 q 457 735 444 747 q 485 722 469 722 l 488 722 q 516 735 504 722 q 528 763 528 747 l 528 765 q 516 794 528 782 q 488 806 504 806 l 485 806 m 624 806 l 624 806 q 596 794 608 806 q 583 765 583 782 l 583 763 q 596 735 583 747 q 624 722 608 722 l 626 722 q 655 735 643 722 q 667 763 667 747 l 667 765 q 655 794 667 782 q 626 806 643 806 l 624 806 m 68 667 l 68 667 q 40 655 53 667 q 28 626 28 643 l 28 624 q 40 596 28 608 q 68 583 53 583 l 71 583 q 99 596 88 583 q 111 624 111 608 l 111 626 q 99 655 111 643 q 71 667 88 667 l 68 667 m 68 528 l 68 528 q 40 516 53 528 q 28 488 28 504 l 28 485 q 40 457 28 469 q 68 444 53 444 l 71 444 q 99 457 88 444 q 111 485 111 469 l 111 488 q 99 516 111 504 q 71 528 88 528 l 68 528 m 207 528 l 207 528 q 179 516 192 528 q 167 488 167 504 l 167 485 q 179 457 167 469 q 207 444 192 444 l 210 444 q 238 457 226 444 q 250 485 250 469 l 250 488 q 238 516 250 504 q 210 528 226 528 l 207 528 m 346 528 l 346 528 q 318 516 331 528 q 306 488 306 504 l 306 485 q 318 457 306 469 q 346 444 331 444 l 349 444 q 377 457 365 444 q 389 485 389 469 l 389 488 q 377 516 389 504 q 349 528 365 528 l 346 528 m 485 528 l 485 528 q 457 516 469 528 q 444 488 444 504 l 444 485 q 457 457 444 469 q 485 444 469 444 l 488 444 q 516 457 504 444 q 528 485 528 469 l 528 488 q 516 516 528 504 q 488 528 504 528 l 485 528 m 68 389 l 68 389 q 40 377 53 389 q 28 349 28 365 l 28 346 q 40 318 28 331 q 68 306 53 306 l 71 306 q 99 318 88 306 q 111 346 111 331 l 111 349 q 99 377 111 365 q 71 389 88 389 l 68 389 m 68 250 l 68 250 q 40 238 53 250 q 28 210 28 226 l 28 207 q 40 179 28 192 q 68 167 53 167 l 71 167 q 99 179 88 167 q 111 207 111 192 l 111 210 q 99 238 111 226 q 71 250 88 250 l 68 250 m 68 111 l 68 111 q 40 99 53 111 q 28 71 28 88 l 28 68 q 40 40 28 53 q 68 28 53 28 l 71 28 q 99 40 88 28 q 111 68 111 53 l 111 71 q 99 99 111 88 q 71 111 88 111 l 68 111 m 207 111 l 207 111 q 179 99 192 111 q 167 71 167 88 l 167 68 q 179 40 167 53 q 207 28 192 28 l 210 28 q 238 40 226 28 q 250 68 250 53 l 250 71 q 238 99 250 88 q 210 111 226 111 l 207 111 m 346 111 l 346 111 q 318 99 331 111 q 306 71 306 88 l 306 68 q 318 40 306 53 q 346 28 331 28 l 349 28 q 377 40 365 28 q 389 68 389 53 l 389 71 q 377 99 389 88 q 349 111 365 111 l 346 111 m 485 111 l 485 111 q 457 99 469 111 q 444 71 444 88 l 444 68 q 457 40 444 53 q 485 28 469 28 l 488 28 q 516 40 504 28 q 528 68 528 53 l 528 71 q 516 99 528 88 q 488 111 504 111 l 485 111 m 624 111 l 624 111 q 596 99 608 111 q 583 71 583 88 l 583 68 q 596 40 583 53 q 624 28 608 28 l 626 28 q 655 40 643 28 q 667 68 667 53 l 667 71 q 655 99 667 88 q 626 111 643 111 l 624 111 z "},"Ê":{"ha":833,"x_min":28,"x_max":667,"o":"m 346 1083 l 346 1083 q 318 1072 331 1083 q 306 1043 306 1060 l 306 1040 q 318 1013 306 1025 q 346 1000 331 1000 l 349 1000 q 377 1013 365 1000 q 389 1040 389 1025 l 389 1043 q 377 1072 389 1060 q 349 1083 365 1083 l 346 1083 m 68 944 l 68 944 q 40 933 53 944 q 28 904 28 921 l 28 901 q 40 874 28 886 q 68 861 53 861 l 71 861 q 99 874 88 861 q 111 901 111 886 l 111 904 q 99 933 111 921 q 71 944 88 944 l 68 944 m 207 944 l 207 944 q 179 933 192 944 q 167 904 167 921 l 167 901 q 179 874 167 886 q 207 861 192 861 l 210 861 q 238 874 226 861 q 250 901 250 886 l 250 904 q 238 933 250 921 q 210 944 226 944 l 207 944 m 346 944 l 346 944 q 318 933 331 944 q 306 904 306 921 l 306 901 q 318 874 306 886 q 346 861 331 861 l 349 861 q 377 874 365 861 q 389 901 389 886 l 389 904 q 377 933 389 921 q 349 944 365 944 l 346 944 m 485 944 l 485 944 q 457 933 469 944 q 444 904 444 921 l 444 901 q 457 874 444 886 q 485 861 469 861 l 488 861 q 516 874 504 861 q 528 901 528 886 l 528 904 q 516 933 528 921 q 488 944 504 944 l 485 944 m 624 944 l 624 944 q 596 933 608 944 q 583 904 583 921 l 583 901 q 596 874 583 886 q 624 861 608 861 l 626 861 q 655 874 643 861 q 667 901 667 886 l 667 904 q 655 933 667 921 q 626 944 643 944 l 624 944 m 68 806 l 68 806 q 40 794 53 806 q 28 765 28 782 l 28 763 q 40 735 28 747 q 68 722 53 722 l 71 722 q 99 735 88 722 q 111 763 111 747 l 111 765 q 99 794 111 782 q 71 806 88 806 l 68 806 m 68 667 l 68 667 q 40 655 53 667 q 28 626 28 643 l 28 624 q 40 596 28 608 q 68 583 53 583 l 71 583 q 99 596 88 583 q 111 624 111 608 l 111 626 q 99 655 111 643 q 71 667 88 667 l 68 667 m 68 528 l 68 528 q 40 516 53 528 q 28 488 28 504 l 28 485 q 40 457 28 469 q 68 444 53 444 l 71 444 q 99 457 88 444 q 111 485 111 469 l 111 488 q 99 516 111 504 q 71 528 88 528 l 68 528 m 207 528 l 207 528 q 179 516 192 528 q 167 488 167 504 l 167 485 q 179 457 167 469 q 207 444 192 444 l 210 444 q 238 457 226 444 q 250 485 250 469 l 250 488 q 238 516 250 504 q 210 528 226 528 l 207 528 m 346 528 l 346 528 q 318 516 331 528 q 306 488 306 504 l 306 485 q 318 457 306 469 q 346 444 331 444 l 349 444 q 377 457 365 444 q 389 485 389 469 l 389 488 q 377 516 389 504 q 349 528 365 528 l 346 528 m 485 528 l 485 528 q 457 516 469 528 q 444 488 444 504 l 444 485 q 457 457 444 469 q 485 444 469 444 l 488 444 q 516 457 504 444 q 528 485 528 469 l 528 488 q 516 516 528 504 q 488 528 504 528 l 485 528 m 68 389 l 68 389 q 40 377 53 389 q 28 349 28 365 l 28 346 q 40 318 28 331 q 68 306 53 306 l 71 306 q 99 318 88 306 q 111 346 111 331 l 111 349 q 99 377 111 365 q 71 389 88 389 l 68 389 m 68 250 l 68 250 q 40 238 53 250 q 28 210 28 226 l 28 207 q 40 179 28 192 q 68 167 53 167 l 71 167 q 99 179 88 167 q 111 207 111 192 l 111 210 q 99 238 111 226 q 71 250 88 250 l 68 250 m 68 111 l 68 111 q 40 99 53 111 q 28 71 28 88 l 28 68 q 40 40 28 53 q 68 28 53 28 l 71 28 q 99 40 88 28 q 111 68 111 53 l 111 71 q 99 99 111 88 q 71 111 88 111 l 68 111 m 207 111 l 207 111 q 179 99 192 111 q 167 71 167 88 l 167 68 q 179 40 167 53 q 207 28 192 28 l 210 28 q 238 40 226 28 q 250 68 250 53 l 250 71 q 238 99 250 88 q 210 111 226 111 l 207 111 m 346 111 l 346 111 q 318 99 331 111 q 306 71 306 88 l 306 68 q 318 40 306 53 q 346 28 331 28 l 349 28 q 377 40 365 28 q 389 68 389 53 l 389 71 q 377 99 389 88 q 349 111 365 111 l 346 111 m 485 111 l 485 111 q 457 99 469 111 q 444 71 444 88 l 444 68 q 457 40 444 53 q 485 28 469 28 l 488 28 q 516 40 504 28 q 528 68 528 53 l 528 71 q 516 99 528 88 q 488 111 504 111 l 485 111 m 624 111 l 624 111 q 596 99 608 111 q 583 71 583 88 l 583 68 q 596 40 583 53 q 624 28 608 28 l 626 28 q 655 40 643 28 q 667 68 667 53 l 667 71 q 655 99 667 88 q 626 111 643 111 l 624 111 z "},"Ë":{"ha":833,"x_min":28,"x_max":667,"o":"m 207 1083 l 207 1083 q 179 1072 192 1083 q 167 1043 167 1060 l 167 1040 q 179 1013 167 1025 q 207 1000 192 1000 l 210 1000 q 238 1013 226 1000 q 250 1040 250 1025 l 250 1043 q 238 1072 250 1060 q 210 1083 226 1083 l 207 1083 m 485 1083 l 485 1083 q 457 1072 469 1083 q 444 1043 444 1060 l 444 1040 q 457 1013 444 1025 q 485 1000 469 1000 l 488 1000 q 516 1013 504 1000 q 528 1040 528 1025 l 528 1043 q 516 1072 528 1060 q 488 1083 504 1083 l 485 1083 m 68 944 l 68 944 q 40 933 53 944 q 28 904 28 921 l 28 901 q 40 874 28 886 q 68 861 53 861 l 71 861 q 99 874 88 861 q 111 901 111 886 l 111 904 q 99 933 111 921 q 71 944 88 944 l 68 944 m 207 944 l 207 944 q 179 933 192 944 q 167 904 167 921 l 167 901 q 179 874 167 886 q 207 861 192 861 l 210 861 q 238 874 226 861 q 250 901 250 886 l 250 904 q 238 933 250 921 q 210 944 226 944 l 207 944 m 346 944 l 346 944 q 318 933 331 944 q 306 904 306 921 l 306 901 q 318 874 306 886 q 346 861 331 861 l 349 861 q 377 874 365 861 q 389 901 389 886 l 389 904 q 377 933 389 921 q 349 944 365 944 l 346 944 m 485 944 l 485 944 q 457 933 469 944 q 444 904 444 921 l 444 901 q 457 874 444 886 q 485 861 469 861 l 488 861 q 516 874 504 861 q 528 901 528 886 l 528 904 q 516 933 528 921 q 488 944 504 944 l 485 944 m 624 944 l 624 944 q 596 933 608 944 q 583 904 583 921 l 583 901 q 596 874 583 886 q 624 861 608 861 l 626 861 q 655 874 643 861 q 667 901 667 886 l 667 904 q 655 933 667 921 q 626 944 643 944 l 624 944 m 68 806 l 68 806 q 40 794 53 806 q 28 765 28 782 l 28 763 q 40 735 28 747 q 68 722 53 722 l 71 722 q 99 735 88 722 q 111 763 111 747 l 111 765 q 99 794 111 782 q 71 806 88 806 l 68 806 m 68 667 l 68 667 q 40 655 53 667 q 28 626 28 643 l 28 624 q 40 596 28 608 q 68 583 53 583 l 71 583 q 99 596 88 583 q 111 624 111 608 l 111 626 q 99 655 111 643 q 71 667 88 667 l 68 667 m 68 528 l 68 528 q 40 516 53 528 q 28 488 28 504 l 28 485 q 40 457 28 469 q 68 444 53 444 l 71 444 q 99 457 88 444 q 111 485 111 469 l 111 488 q 99 516 111 504 q 71 528 88 528 l 68 528 m 207 528 l 207 528 q 179 516 192 528 q 167 488 167 504 l 167 485 q 179 457 167 469 q 207 444 192 444 l 210 444 q 238 457 226 444 q 250 485 250 469 l 250 488 q 238 516 250 504 q 210 528 226 528 l 207 528 m 346 528 l 346 528 q 318 516 331 528 q 306 488 306 504 l 306 485 q 318 457 306 469 q 346 444 331 444 l 349 444 q 377 457 365 444 q 389 485 389 469 l 389 488 q 377 516 389 504 q 349 528 365 528 l 346 528 m 485 528 l 485 528 q 457 516 469 528 q 444 488 444 504 l 444 485 q 457 457 444 469 q 485 444 469 444 l 488 444 q 516 457 504 444 q 528 485 528 469 l 528 488 q 516 516 528 504 q 488 528 504 528 l 485 528 m 68 389 l 68 389 q 40 377 53 389 q 28 349 28 365 l 28 346 q 40 318 28 331 q 68 306 53 306 l 71 306 q 99 318 88 306 q 111 346 111 331 l 111 349 q 99 377 111 365 q 71 389 88 389 l 68 389 m 68 250 l 68 250 q 40 238 53 250 q 28 210 28 226 l 28 207 q 40 179 28 192 q 68 167 53 167 l 71 167 q 99 179 88 167 q 111 207 111 192 l 111 210 q 99 238 111 226 q 71 250 88 250 l 68 250 m 68 111 l 68 111 q 40 99 53 111 q 28 71 28 88 l 28 68 q 40 40 28 53 q 68 28 53 28 l 71 28 q 99 40 88 28 q 111 68 111 53 l 111 71 q 99 99 111 88 q 71 111 88 111 l 68 111 m 207 111 l 207 111 q 179 99 192 111 q 167 71 167 88 l 167 68 q 179 40 167 53 q 207 28 192 28 l 210 28 q 238 40 226 28 q 250 68 250 53 l 250 71 q 238 99 250 88 q 210 111 226 111 l 207 111 m 346 111 l 346 111 q 318 99 331 111 q 306 71 306 88 l 306 68 q 318 40 306 53 q 346 28 331 28 l 349 28 q 377 40 365 28 q 389 68 389 53 l 389 71 q 377 99 389 88 q 349 111 365 111 l 346 111 m 485 111 l 485 111 q 457 99 469 111 q 444 71 444 88 l 444 68 q 457 40 444 53 q 485 28 469 28 l 488 28 q 516 40 504 28 q 528 68 528 53 l 528 71 q 516 99 528 88 q 488 111 504 111 l 485 111 m 624 111 l 624 111 q 596 99 608 111 q 583 71 583 88 l 583 68 q 596 40 583 53 q 624 28 608 28 l 626 28 q 655 40 643 28 q 667 68 667 53 l 667 71 q 655 99 667 88 q 626 111 643 111 l 624 111 z "},"Ė":{"ha":833,"x_min":28,"x_max":667,"o":"m 346 1083 l 346 1083 q 318 1072 331 1083 q 306 1043 306 1060 l 306 1040 q 318 1013 306 1025 q 346 1000 331 1000 l 349 1000 q 377 1013 365 1000 q 389 1040 389 1025 l 389 1043 q 377 1072 389 1060 q 349 1083 365 1083 l 346 1083 m 68 806 l 68 806 q 40 794 53 806 q 28 765 28 782 l 28 763 q 40 735 28 747 q 68 722 53 722 l 71 722 q 99 735 88 722 q 111 763 111 747 l 111 765 q 99 794 111 782 q 71 806 88 806 l 68 806 m 207 806 l 207 806 q 179 794 192 806 q 167 765 167 782 l 167 763 q 179 735 167 747 q 207 722 192 722 l 210 722 q 238 735 226 722 q 250 763 250 747 l 250 765 q 238 794 250 782 q 210 806 226 806 l 207 806 m 346 806 l 346 806 q 318 794 331 806 q 306 765 306 782 l 306 763 q 318 735 306 747 q 346 722 331 722 l 349 722 q 377 735 365 722 q 389 763 389 747 l 389 765 q 377 794 389 782 q 349 806 365 806 l 346 806 m 485 806 l 485 806 q 457 794 469 806 q 444 765 444 782 l 444 763 q 457 735 444 747 q 485 722 469 722 l 488 722 q 516 735 504 722 q 528 763 528 747 l 528 765 q 516 794 528 782 q 488 806 504 806 l 485 806 m 624 806 l 624 806 q 596 794 608 806 q 583 765 583 782 l 583 763 q 596 735 583 747 q 624 722 608 722 l 626 722 q 655 735 643 722 q 667 763 667 747 l 667 765 q 655 794 667 782 q 626 806 643 806 l 624 806 m 68 667 l 68 667 q 40 655 53 667 q 28 626 28 643 l 28 624 q 40 596 28 608 q 68 583 53 583 l 71 583 q 99 596 88 583 q 111 624 111 608 l 111 626 q 99 655 111 643 q 71 667 88 667 l 68 667 m 68 528 l 68 528 q 40 516 53 528 q 28 488 28 504 l 28 485 q 40 457 28 469 q 68 444 53 444 l 71 444 q 99 457 88 444 q 111 485 111 469 l 111 488 q 99 516 111 504 q 71 528 88 528 l 68 528 m 207 528 l 207 528 q 179 516 192 528 q 167 488 167 504 l 167 485 q 179 457 167 469 q 207 444 192 444 l 210 444 q 238 457 226 444 q 250 485 250 469 l 250 488 q 238 516 250 504 q 210 528 226 528 l 207 528 m 346 528 l 346 528 q 318 516 331 528 q 306 488 306 504 l 306 485 q 318 457 306 469 q 346 444 331 444 l 349 444 q 377 457 365 444 q 389 485 389 469 l 389 488 q 377 516 389 504 q 349 528 365 528 l 346 528 m 485 528 l 485 528 q 457 516 469 528 q 444 488 444 504 l 444 485 q 457 457 444 469 q 485 444 469 444 l 488 444 q 516 457 504 444 q 528 485 528 469 l 528 488 q 516 516 528 504 q 488 528 504 528 l 485 528 m 68 389 l 68 389 q 40 377 53 389 q 28 349 28 365 l 28 346 q 40 318 28 331 q 68 306 53 306 l 71 306 q 99 318 88 306 q 111 346 111 331 l 111 349 q 99 377 111 365 q 71 389 88 389 l 68 389 m 68 250 l 68 250 q 40 238 53 250 q 28 210 28 226 l 28 207 q 40 179 28 192 q 68 167 53 167 l 71 167 q 99 179 88 167 q 111 207 111 192 l 111 210 q 99 238 111 226 q 71 250 88 250 l 68 250 m 68 111 l 68 111 q 40 99 53 111 q 28 71 28 88 l 28 68 q 40 40 28 53 q 68 28 53 28 l 71 28 q 99 40 88 28 q 111 68 111 53 l 111 71 q 99 99 111 88 q 71 111 88 111 l 68 111 m 207 111 l 207 111 q 179 99 192 111 q 167 71 167 88 l 167 68 q 179 40 167 53 q 207 28 192 28 l 210 28 q 238 40 226 28 q 250 68 250 53 l 250 71 q 238 99 250 88 q 210 111 226 111 l 207 111 m 346 111 l 346 111 q 318 99 331 111 q 306 71 306 88 l 306 68 q 318 40 306 53 q 346 28 331 28 l 349 28 q 377 40 365 28 q 389 68 389 53 l 389 71 q 377 99 389 88 q 349 111 365 111 l 346 111 m 485 111 l 485 111 q 457 99 469 111 q 444 71 444 88 l 444 68 q 457 40 444 53 q 485 28 469 28 l 488 28 q 516 40 504 28 q 528 68 528 53 l 528 71 q 516 99 528 88 q 488 111 504 111 l 485 111 m 624 111 l 624 111 q 596 99 608 111 q 583 71 583 88 l 583 68 q 596 40 583 53 q 624 28 608 28 l 626 28 q 655 40 643 28 q 667 68 667 53 l 667 71 q 655 99 667 88 q 626 111 643 111 l 624 111 z "},"È":{"ha":833,"x_min":28,"x_max":667,"o":"m 207 1083 l 207 1083 q 179 1072 192 1083 q 167 1043 167 1060 l 167 1040 q 179 1013 167 1025 q 207 1000 192 1000 l 210 1000 q 238 1013 226 1000 q 250 1040 250 1025 l 250 1043 q 238 1072 250 1060 q 210 1083 226 1083 l 207 1083 m 68 944 l 68 944 q 40 933 53 944 q 28 904 28 921 l 28 901 q 40 874 28 886 q 68 861 53 861 l 71 861 q 99 874 88 861 q 111 901 111 886 l 111 904 q 99 933 111 921 q 71 944 88 944 l 68 944 m 207 944 l 207 944 q 179 933 192 944 q 167 904 167 921 l 167 901 q 179 874 167 886 q 207 861 192 861 l 210 861 q 238 874 226 861 q 250 901 250 886 l 250 904 q 238 933 250 921 q 210 944 226 944 l 207 944 m 346 944 l 346 944 q 318 933 331 944 q 306 904 306 921 l 306 901 q 318 874 306 886 q 346 861 331 861 l 349 861 q 377 874 365 861 q 389 901 389 886 l 389 904 q 377 933 389 921 q 349 944 365 944 l 346 944 m 485 944 l 485 944 q 457 933 469 944 q 444 904 444 921 l 444 901 q 457 874 444 886 q 485 861 469 861 l 488 861 q 516 874 504 861 q 528 901 528 886 l 528 904 q 516 933 528 921 q 488 944 504 944 l 485 944 m 624 944 l 624 944 q 596 933 608 944 q 583 904 583 921 l 583 901 q 596 874 583 886 q 624 861 608 861 l 626 861 q 655 874 643 861 q 667 901 667 886 l 667 904 q 655 933 667 921 q 626 944 643 944 l 624 944 m 68 806 l 68 806 q 40 794 53 806 q 28 765 28 782 l 28 763 q 40 735 28 747 q 68 722 53 722 l 71 722 q 99 735 88 722 q 111 763 111 747 l 111 765 q 99 794 111 782 q 71 806 88 806 l 68 806 m 68 667 l 68 667 q 40 655 53 667 q 28 626 28 643 l 28 624 q 40 596 28 608 q 68 583 53 583 l 71 583 q 99 596 88 583 q 111 624 111 608 l 111 626 q 99 655 111 643 q 71 667 88 667 l 68 667 m 68 528 l 68 528 q 40 516 53 528 q 28 488 28 504 l 28 485 q 40 457 28 469 q 68 444 53 444 l 71 444 q 99 457 88 444 q 111 485 111 469 l 111 488 q 99 516 111 504 q 71 528 88 528 l 68 528 m 207 528 l 207 528 q 179 516 192 528 q 167 488 167 504 l 167 485 q 179 457 167 469 q 207 444 192 444 l 210 444 q 238 457 226 444 q 250 485 250 469 l 250 488 q 238 516 250 504 q 210 528 226 528 l 207 528 m 346 528 l 346 528 q 318 516 331 528 q 306 488 306 504 l 306 485 q 318 457 306 469 q 346 444 331 444 l 349 444 q 377 457 365 444 q 389 485 389 469 l 389 488 q 377 516 389 504 q 349 528 365 528 l 346 528 m 485 528 l 485 528 q 457 516 469 528 q 444 488 444 504 l 444 485 q 457 457 444 469 q 485 444 469 444 l 488 444 q 516 457 504 444 q 528 485 528 469 l 528 488 q 516 516 528 504 q 488 528 504 528 l 485 528 m 68 389 l 68 389 q 40 377 53 389 q 28 349 28 365 l 28 346 q 40 318 28 331 q 68 306 53 306 l 71 306 q 99 318 88 306 q 111 346 111 331 l 111 349 q 99 377 111 365 q 71 389 88 389 l 68 389 m 68 250 l 68 250 q 40 238 53 250 q 28 210 28 226 l 28 207 q 40 179 28 192 q 68 167 53 167 l 71 167 q 99 179 88 167 q 111 207 111 192 l 111 210 q 99 238 111 226 q 71 250 88 250 l 68 250 m 68 111 l 68 111 q 40 99 53 111 q 28 71 28 88 l 28 68 q 40 40 28 53 q 68 28 53 28 l 71 28 q 99 40 88 28 q 111 68 111 53 l 111 71 q 99 99 111 88 q 71 111 88 111 l 68 111 m 207 111 l 207 111 q 179 99 192 111 q 167 71 167 88 l 167 68 q 179 40 167 53 q 207 28 192 28 l 210 28 q 238 40 226 28 q 250 68 250 53 l 250 71 q 238 99 250 88 q 210 111 226 111 l 207 111 m 346 111 l 346 111 q 318 99 331 111 q 306 71 306 88 l 306 68 q 318 40 306 53 q 346 28 331 28 l 349 28 q 377 40 365 28 q 389 68 389 53 l 389 71 q 377 99 389 88 q 349 111 365 111 l 346 111 m 485 111 l 485 111 q 457 99 469 111 q 444 71 444 88 l 444 68 q 457 40 444 53 q 485 28 469 28 l 488 28 q 516 40 504 28 q 528 68 528 53 l 528 71 q 516 99 528 88 q 488 111 504 111 l 485 111 m 624 111 l 624 111 q 596 99 608 111 q 583 71 583 88 l 583 68 q 596 40 583 53 q 624 28 608 28 l 626 28 q 655 40 643 28 q 667 68 667 53 l 667 71 q 655 99 667 88 q 626 111 643 111 l 624 111 z "},"Ē":{"ha":833,"x_min":28,"x_max":667,"o":"m 207 1083 l 207 1083 q 179 1072 192 1083 q 167 1043 167 1060 l 167 1040 q 179 1013 167 1025 q 207 1000 192 1000 l 210 1000 q 238 1013 226 1000 q 250 1040 250 1025 l 250 1043 q 238 1072 250 1060 q 210 1083 226 1083 l 207 1083 m 346 1083 l 346 1083 q 318 1072 331 1083 q 306 1043 306 1060 l 306 1040 q 318 1013 306 1025 q 346 1000 331 1000 l 349 1000 q 377 1013 365 1000 q 389 1040 389 1025 l 389 1043 q 377 1072 389 1060 q 349 1083 365 1083 l 346 1083 m 485 1083 l 485 1083 q 457 1072 469 1083 q 444 1043 444 1060 l 444 1040 q 457 1013 444 1025 q 485 1000 469 1000 l 488 1000 q 516 1013 504 1000 q 528 1040 528 1025 l 528 1043 q 516 1072 528 1060 q 488 1083 504 1083 l 485 1083 m 68 806 l 68 806 q 40 794 53 806 q 28 765 28 782 l 28 763 q 40 735 28 747 q 68 722 53 722 l 71 722 q 99 735 88 722 q 111 763 111 747 l 111 765 q 99 794 111 782 q 71 806 88 806 l 68 806 m 207 806 l 207 806 q 179 794 192 806 q 167 765 167 782 l 167 763 q 179 735 167 747 q 207 722 192 722 l 210 722 q 238 735 226 722 q 250 763 250 747 l 250 765 q 238 794 250 782 q 210 806 226 806 l 207 806 m 346 806 l 346 806 q 318 794 331 806 q 306 765 306 782 l 306 763 q 318 735 306 747 q 346 722 331 722 l 349 722 q 377 735 365 722 q 389 763 389 747 l 389 765 q 377 794 389 782 q 349 806 365 806 l 346 806 m 485 806 l 485 806 q 457 794 469 806 q 444 765 444 782 l 444 763 q 457 735 444 747 q 485 722 469 722 l 488 722 q 516 735 504 722 q 528 763 528 747 l 528 765 q 516 794 528 782 q 488 806 504 806 l 485 806 m 624 806 l 624 806 q 596 794 608 806 q 583 765 583 782 l 583 763 q 596 735 583 747 q 624 722 608 722 l 626 722 q 655 735 643 722 q 667 763 667 747 l 667 765 q 655 794 667 782 q 626 806 643 806 l 624 806 m 68 667 l 68 667 q 40 655 53 667 q 28 626 28 643 l 28 624 q 40 596 28 608 q 68 583 53 583 l 71 583 q 99 596 88 583 q 111 624 111 608 l 111 626 q 99 655 111 643 q 71 667 88 667 l 68 667 m 68 528 l 68 528 q 40 516 53 528 q 28 488 28 504 l 28 485 q 40 457 28 469 q 68 444 53 444 l 71 444 q 99 457 88 444 q 111 485 111 469 l 111 488 q 99 516 111 504 q 71 528 88 528 l 68 528 m 207 528 l 207 528 q 179 516 192 528 q 167 488 167 504 l 167 485 q 179 457 167 469 q 207 444 192 444 l 210 444 q 238 457 226 444 q 250 485 250 469 l 250 488 q 238 516 250 504 q 210 528 226 528 l 207 528 m 346 528 l 346 528 q 318 516 331 528 q 306 488 306 504 l 306 485 q 318 457 306 469 q 346 444 331 444 l 349 444 q 377 457 365 444 q 389 485 389 469 l 389 488 q 377 516 389 504 q 349 528 365 528 l 346 528 m 485 528 l 485 528 q 457 516 469 528 q 444 488 444 504 l 444 485 q 457 457 444 469 q 485 444 469 444 l 488 444 q 516 457 504 444 q 528 485 528 469 l 528 488 q 516 516 528 504 q 488 528 504 528 l 485 528 m 68 389 l 68 389 q 40 377 53 389 q 28 349 28 365 l 28 346 q 40 318 28 331 q 68 306 53 306 l 71 306 q 99 318 88 306 q 111 346 111 331 l 111 349 q 99 377 111 365 q 71 389 88 389 l 68 389 m 68 250 l 68 250 q 40 238 53 250 q 28 210 28 226 l 28 207 q 40 179 28 192 q 68 167 53 167 l 71 167 q 99 179 88 167 q 111 207 111 192 l 111 210 q 99 238 111 226 q 71 250 88 250 l 68 250 m 68 111 l 68 111 q 40 99 53 111 q 28 71 28 88 l 28 68 q 40 40 28 53 q 68 28 53 28 l 71 28 q 99 40 88 28 q 111 68 111 53 l 111 71 q 99 99 111 88 q 71 111 88 111 l 68 111 m 207 111 l 207 111 q 179 99 192 111 q 167 71 167 88 l 167 68 q 179 40 167 53 q 207 28 192 28 l 210 28 q 238 40 226 28 q 250 68 250 53 l 250 71 q 238 99 250 88 q 210 111 226 111 l 207 111 m 346 111 l 346 111 q 318 99 331 111 q 306 71 306 88 l 306 68 q 318 40 306 53 q 346 28 331 28 l 349 28 q 377 40 365 28 q 389 68 389 53 l 389 71 q 377 99 389 88 q 349 111 365 111 l 346 111 m 485 111 l 485 111 q 457 99 469 111 q 444 71 444 88 l 444 68 q 457 40 444 53 q 485 28 469 28 l 488 28 q 516 40 504 28 q 528 68 528 53 l 528 71 q 516 99 528 88 q 488 111 504 111 l 485 111 m 624 111 l 624 111 q 596 99 608 111 q 583 71 583 88 l 583 68 q 596 40 583 53 q 624 28 608 28 l 626 28 q 655 40 643 28 q 667 68 667 53 l 667 71 q 655 99 667 88 q 626 111 643 111 l 624 111 z "},"Ę":{"ha":833,"x_min":28,"x_max":667,"o":"m 68 944 l 68 944 q 40 933 53 944 q 28 904 28 921 l 28 901 q 40 874 28 886 q 68 861 53 861 l 71 861 q 99 874 88 861 q 111 901 111 886 l 111 904 q 99 933 111 921 q 71 944 88 944 l 68 944 m 207 944 l 207 944 q 179 933 192 944 q 167 904 167 921 l 167 901 q 179 874 167 886 q 207 861 192 861 l 210 861 q 238 874 226 861 q 250 901 250 886 l 250 904 q 238 933 250 921 q 210 944 226 944 l 207 944 m 346 944 l 346 944 q 318 933 331 944 q 306 904 306 921 l 306 901 q 318 874 306 886 q 346 861 331 861 l 349 861 q 377 874 365 861 q 389 901 389 886 l 389 904 q 377 933 389 921 q 349 944 365 944 l 346 944 m 485 944 l 485 944 q 457 933 469 944 q 444 904 444 921 l 444 901 q 457 874 444 886 q 485 861 469 861 l 488 861 q 516 874 504 861 q 528 901 528 886 l 528 904 q 516 933 528 921 q 488 944 504 944 l 485 944 m 624 944 l 624 944 q 596 933 608 944 q 583 904 583 921 l 583 901 q 596 874 583 886 q 624 861 608 861 l 626 861 q 655 874 643 861 q 667 901 667 886 l 667 904 q 655 933 667 921 q 626 944 643 944 l 624 944 m 68 806 l 68 806 q 40 794 53 806 q 28 765 28 782 l 28 763 q 40 735 28 747 q 68 722 53 722 l 71 722 q 99 735 88 722 q 111 763 111 747 l 111 765 q 99 794 111 782 q 71 806 88 806 l 68 806 m 68 667 l 68 667 q 40 655 53 667 q 28 626 28 643 l 28 624 q 40 596 28 608 q 68 583 53 583 l 71 583 q 99 596 88 583 q 111 624 111 608 l 111 626 q 99 655 111 643 q 71 667 88 667 l 68 667 m 68 528 l 68 528 q 40 516 53 528 q 28 488 28 504 l 28 485 q 40 457 28 469 q 68 444 53 444 l 71 444 q 99 457 88 444 q 111 485 111 469 l 111 488 q 99 516 111 504 q 71 528 88 528 l 68 528 m 207 528 l 207 528 q 179 516 192 528 q 167 488 167 504 l 167 485 q 179 457 167 469 q 207 444 192 444 l 210 444 q 238 457 226 444 q 250 485 250 469 l 250 488 q 238 516 250 504 q 210 528 226 528 l 207 528 m 346 528 l 346 528 q 318 516 331 528 q 306 488 306 504 l 306 485 q 318 457 306 469 q 346 444 331 444 l 349 444 q 377 457 365 444 q 389 485 389 469 l 389 488 q 377 516 389 504 q 349 528 365 528 l 346 528 m 485 528 l 485 528 q 457 516 469 528 q 444 488 444 504 l 444 485 q 457 457 444 469 q 485 444 469 444 l 488 444 q 516 457 504 444 q 528 485 528 469 l 528 488 q 516 516 528 504 q 488 528 504 528 l 485 528 m 68 389 l 68 389 q 40 377 53 389 q 28 349 28 365 l 28 346 q 40 318 28 331 q 68 306 53 306 l 71 306 q 99 318 88 306 q 111 346 111 331 l 111 349 q 99 377 111 365 q 71 389 88 389 l 68 389 m 68 250 l 68 250 q 40 238 53 250 q 28 210 28 226 l 28 207 q 40 179 28 192 q 68 167 53 167 l 71 167 q 99 179 88 167 q 111 207 111 192 l 111 210 q 99 238 111 226 q 71 250 88 250 l 68 250 m 68 111 l 68 111 q 40 99 53 111 q 28 71 28 88 l 28 68 q 40 40 28 53 q 68 28 53 28 l 71 28 q 99 40 88 28 q 111 68 111 53 l 111 71 q 99 99 111 88 q 71 111 88 111 l 68 111 m 207 111 l 207 111 q 179 99 192 111 q 167 71 167 88 l 167 68 q 179 40 167 53 q 207 28 192 28 l 210 28 q 238 40 226 28 q 250 68 250 53 l 250 71 q 238 99 250 88 q 210 111 226 111 l 207 111 m 346 111 l 346 111 q 318 99 331 111 q 306 71 306 88 l 306 68 q 318 40 306 53 q 346 28 331 28 l 349 28 q 377 40 365 28 q 389 68 389 53 l 389 71 q 377 99 389 88 q 349 111 365 111 l 346 111 m 485 111 l 485 111 q 457 99 469 111 q 444 71 444 88 l 444 68 q 457 40 444 53 q 485 28 469 28 l 488 28 q 516 40 504 28 q 528 68 528 53 l 528 71 q 516 99 528 88 q 488 111 504 111 l 485 111 m 624 111 l 624 111 q 596 99 608 111 q 583 71 583 88 l 583 68 q 596 40 583 53 q 624 28 608 28 l 626 28 q 655 40 643 28 q 667 68 667 53 l 667 71 q 655 99 667 88 q 626 111 643 111 l 624 111 m 346 -28 l 346 -28 q 318 -40 331 -28 q 306 -68 306 -51 l 306 -71 q 318 -99 306 -86 q 346 -111 331 -111 l 349 -111 q 377 -99 365 -111 q 389 -71 389 -86 l 389 -68 q 377 -40 389 -51 q 349 -28 365 -28 l 346 -28 m 346 -167 l 346 -167 q 318 -178 331 -167 q 306 -207 306 -190 l 306 -210 q 318 -237 306 -225 q 346 -250 331 -250 l 349 -250 q 377 -237 365 -250 q 389 -210 389 -225 l 389 -207 q 377 -178 389 -190 q 349 -167 365 -167 l 346 -167 m 485 -167 l 485 -167 q 457 -178 469 -167 q 444 -207 444 -190 l 444 -210 q 457 -237 444 -225 q 485 -250 469 -250 l 488 -250 q 516 -237 504 -250 q 528 -210 528 -225 l 528 -207 q 516 -178 528 -190 q 488 -167 504 -167 l 485 -167 z "},"Ð":{"ha":833,"x_min":28,"x_max":667,"o":"m 68 944 l 68 944 q 40 933 53 944 q 28 904 28 921 l 28 901 q 40 874 28 886 q 68 861 53 861 l 71 861 q 99 874 88 861 q 111 901 111 886 l 111 904 q 99 933 111 921 q 71 944 88 944 l 68 944 m 207 944 l 207 944 q 179 933 192 944 q 167 904 167 921 l 167 901 q 179 874 167 886 q 207 861 192 861 l 210 861 q 238 874 226 861 q 250 901 250 886 l 250 904 q 238 933 250 921 q 210 944 226 944 l 207 944 m 346 944 l 346 944 q 318 933 331 944 q 306 904 306 921 l 306 901 q 318 874 306 886 q 346 861 331 861 l 349 861 q 377 874 365 861 q 389 901 389 886 l 389 904 q 377 933 389 921 q 349 944 365 944 l 346 944 m 485 944 l 485 944 q 457 933 469 944 q 444 904 444 921 l 444 901 q 457 874 444 886 q 485 861 469 861 l 488 861 q 516 874 504 861 q 528 901 528 886 l 528 904 q 516 933 528 921 q 488 944 504 944 l 485 944 m 207 806 l 207 806 q 179 794 192 806 q 167 765 167 782 l 167 763 q 179 735 167 747 q 207 722 192 722 l 210 722 q 238 735 226 722 q 250 763 250 747 l 250 765 q 238 794 250 782 q 210 806 226 806 l 207 806 m 624 806 l 624 806 q 596 794 608 806 q 583 765 583 782 l 583 763 q 596 735 583 747 q 624 722 608 722 l 626 722 q 655 735 643 722 q 667 763 667 747 l 667 765 q 655 794 667 782 q 626 806 643 806 l 624 806 m 207 667 l 207 667 q 179 655 192 667 q 167 626 167 643 l 167 624 q 179 596 167 608 q 207 583 192 583 l 210 583 q 238 596 226 583 q 250 624 250 608 l 250 626 q 238 655 250 643 q 210 667 226 667 l 207 667 m 624 667 l 624 667 q 596 655 608 667 q 583 626 583 643 l 583 624 q 596 596 583 608 q 624 583 608 583 l 626 583 q 655 596 643 583 q 667 624 667 608 l 667 626 q 655 655 667 643 q 626 667 643 667 l 624 667 m 68 528 l 68 528 q 40 516 53 528 q 28 488 28 504 l 28 485 q 40 457 28 469 q 68 444 53 444 l 71 444 q 99 457 88 444 q 111 485 111 469 l 111 488 q 99 516 111 504 q 71 528 88 528 l 68 528 m 207 528 l 207 528 q 179 516 192 528 q 167 488 167 504 l 167 485 q 179 457 167 469 q 207 444 192 444 l 210 444 q 238 457 226 444 q 250 485 250 469 l 250 488 q 238 516 250 504 q 210 528 226 528 l 207 528 m 346 528 l 346 528 q 318 516 331 528 q 306 488 306 504 l 306 485 q 318 457 306 469 q 346 444 331 444 l 349 444 q 377 457 365 444 q 389 485 389 469 l 389 488 q 377 516 389 504 q 349 528 365 528 l 346 528 m 624 528 l 624 528 q 596 516 608 528 q 583 488 583 504 l 583 485 q 596 457 583 469 q 624 444 608 444 l 626 444 q 655 457 643 444 q 667 485 667 469 l 667 488 q 655 516 667 504 q 626 528 643 528 l 624 528 m 207 389 l 207 389 q 179 377 192 389 q 167 349 167 365 l 167 346 q 179 318 167 331 q 207 306 192 306 l 210 306 q 238 318 226 306 q 250 346 250 331 l 250 349 q 238 377 250 365 q 210 389 226 389 l 207 389 m 624 389 l 624 389 q 596 377 608 389 q 583 349 583 365 l 583 346 q 596 318 583 331 q 624 306 608 306 l 626 306 q 655 318 643 306 q 667 346 667 331 l 667 349 q 655 377 667 365 q 626 389 643 389 l 624 389 m 207 250 l 207 250 q 179 238 192 250 q 167 210 167 226 l 167 207 q 179 179 167 192 q 207 167 192 167 l 210 167 q 238 179 226 167 q 250 207 250 192 l 250 210 q 238 238 250 226 q 210 250 226 250 l 207 250 m 624 250 l 624 250 q 596 238 608 250 q 583 210 583 226 l 583 207 q 596 179 583 192 q 624 167 608 167 l 626 167 q 655 179 643 167 q 667 207 667 192 l 667 210 q 655 238 667 226 q 626 250 643 250 l 624 250 m 68 111 l 68 111 q 40 99 53 111 q 28 71 28 88 l 28 68 q 40 40 28 53 q 68 28 53 28 l 71 28 q 99 40 88 28 q 111 68 111 53 l 111 71 q 99 99 111 88 q 71 111 88 111 l 68 111 m 207 111 l 207 111 q 179 99 192 111 q 167 71 167 88 l 167 68 q 179 40 167 53 q 207 28 192 28 l 210 28 q 238 40 226 28 q 250 68 250 53 l 250 71 q 238 99 250 88 q 210 111 226 111 l 207 111 m 346 111 l 346 111 q 318 99 331 111 q 306 71 306 88 l 306 68 q 318 40 306 53 q 346 28 331 28 l 349 28 q 377 40 365 28 q 389 68 389 53 l 389 71 q 377 99 389 88 q 349 111 365 111 l 346 111 m 485 111 l 485 111 q 457 99 469 111 q 444 71 444 88 l 444 68 q 457 40 444 53 q 485 28 469 28 l 488 28 q 516 40 504 28 q 528 68 528 53 l 528 71 q 516 99 528 88 q 488 111 504 111 l 485 111 z "},"€":{"ha":833,"x_min":28,"x_max":667,"o":"m 346 944 l 346 944 q 318 933 331 944 q 306 904 306 921 l 306 901 q 318 874 306 886 q 346 861 331 861 l 349 861 q 377 874 365 861 q 389 901 389 886 l 389 904 q 377 933 389 921 q 349 944 365 944 l 346 944 m 485 944 l 485 944 q 457 933 469 944 q 444 904 444 921 l 444 901 q 457 874 444 886 q 485 861 469 861 l 488 861 q 516 874 504 861 q 528 901 528 886 l 528 904 q 516 933 528 921 q 488 944 504 944 l 485 944 m 207 806 l 207 806 q 179 794 192 806 q 167 765 167 782 l 167 763 q 179 735 167 747 q 207 722 192 722 l 210 722 q 238 735 226 722 q 250 763 250 747 l 250 765 q 238 794 250 782 q 210 806 226 806 l 207 806 m 624 806 l 624 806 q 596 794 608 806 q 583 765 583 782 l 583 763 q 596 735 583 747 q 624 722 608 722 l 626 722 q 655 735 643 722 q 667 763 667 747 l 667 765 q 655 794 667 782 q 626 806 643 806 l 624 806 m 68 667 l 68 667 q 40 655 53 667 q 28 626 28 643 l 28 624 q 40 596 28 608 q 68 583 53 583 l 71 583 q 99 596 88 583 q 111 624 111 608 l 111 626 q 99 655 111 643 q 71 667 88 667 l 68 667 m 207 667 l 207 667 q 179 655 192 667 q 167 626 167 643 l 167 624 q 179 596 167 608 q 207 583 192 583 l 210 583 q 238 596 226 583 q 250 624 250 608 l 250 626 q 238 655 250 643 q 210 667 226 667 l 207 667 m 346 667 l 346 667 q 318 655 331 667 q 306 626 306 643 l 306 624 q 318 596 306 608 q 346 583 331 583 l 349 583 q 377 596 365 583 q 389 624 389 608 l 389 626 q 377 655 389 643 q 349 667 365 667 l 346 667 m 207 528 l 207 528 q 179 516 192 528 q 167 488 167 504 l 167 485 q 179 457 167 469 q 207 444 192 444 l 210 444 q 238 457 226 444 q 250 485 250 469 l 250 488 q 238 516 250 504 q 210 528 226 528 l 207 528 m 68 389 l 68 389 q 40 377 53 389 q 28 349 28 365 l 28 346 q 40 318 28 331 q 68 306 53 306 l 71 306 q 99 318 88 306 q 111 346 111 331 l 111 349 q 99 377 111 365 q 71 389 88 389 l 68 389 m 207 389 l 207 389 q 179 377 192 389 q 167 349 167 365 l 167 346 q 179 318 167 331 q 207 306 192 306 l 210 306 q 238 318 226 306 q 250 346 250 331 l 250 349 q 238 377 250 365 q 210 389 226 389 l 207 389 m 346 389 l 346 389 q 318 377 331 389 q 306 349 306 365 l 306 346 q 318 318 306 331 q 346 306 331 306 l 349 306 q 377 318 365 306 q 389 346 389 331 l 389 349 q 377 377 389 365 q 349 389 365 389 l 346 389 m 207 250 l 207 250 q 179 238 192 250 q 167 210 167 226 l 167 207 q 179 179 167 192 q 207 167 192 167 l 210 167 q 238 179 226 167 q 250 207 250 192 l 250 210 q 238 238 250 226 q 210 250 226 250 l 207 250 m 624 250 l 624 250 q 596 238 608 250 q 583 210 583 226 l 583 207 q 596 179 583 192 q 624 167 608 167 l 626 167 q 655 179 643 167 q 667 207 667 192 l 667 210 q 655 238 667 226 q 626 250 643 250 l 624 250 m 346 111 l 346 111 q 318 99 331 111 q 306 71 306 88 l 306 68 q 318 40 306 53 q 346 28 331 28 l 349 28 q 377 40 365 28 q 389 68 389 53 l 389 71 q 377 99 389 88 q 349 111 365 111 l 346 111 m 485 111 l 485 111 q 457 99 469 111 q 444 71 444 88 l 444 68 q 457 40 444 53 q 485 28 469 28 l 488 28 q 516 40 504 28 q 528 68 528 53 l 528 71 q 516 99 528 88 q 488 111 504 111 l 485 111 z "},"F":{"ha":833,"x_min":28,"x_max":667,"o":"m 68 944 l 68 944 q 40 933 53 944 q 28 904 28 921 l 28 901 q 40 874 28 886 q 68 861 53 861 l 71 861 q 99 874 88 861 q 111 901 111 886 l 111 904 q 99 933 111 921 q 71 944 88 944 l 68 944 m 207 944 l 207 944 q 179 933 192 944 q 167 904 167 921 l 167 901 q 179 874 167 886 q 207 861 192 861 l 210 861 q 238 874 226 861 q 250 901 250 886 l 250 904 q 238 933 250 921 q 210 944 226 944 l 207 944 m 346 944 l 346 944 q 318 933 331 944 q 306 904 306 921 l 306 901 q 318 874 306 886 q 346 861 331 861 l 349 861 q 377 874 365 861 q 389 901 389 886 l 389 904 q 377 933 389 921 q 349 944 365 944 l 346 944 m 485 944 l 485 944 q 457 933 469 944 q 444 904 444 921 l 444 901 q 457 874 444 886 q 485 861 469 861 l 488 861 q 516 874 504 861 q 528 901 528 886 l 528 904 q 516 933 528 921 q 488 944 504 944 l 485 944 m 624 944 l 624 944 q 596 933 608 944 q 583 904 583 921 l 583 901 q 596 874 583 886 q 624 861 608 861 l 626 861 q 655 874 643 861 q 667 901 667 886 l 667 904 q 655 933 667 921 q 626 944 643 944 l 624 944 m 68 806 l 68 806 q 40 794 53 806 q 28 765 28 782 l 28 763 q 40 735 28 747 q 68 722 53 722 l 71 722 q 99 735 88 722 q 111 763 111 747 l 111 765 q 99 794 111 782 q 71 806 88 806 l 68 806 m 68 667 l 68 667 q 40 655 53 667 q 28 626 28 643 l 28 624 q 40 596 28 608 q 68 583 53 583 l 71 583 q 99 596 88 583 q 111 624 111 608 l 111 626 q 99 655 111 643 q 71 667 88 667 l 68 667 m 68 528 l 68 528 q 40 516 53 528 q 28 488 28 504 l 28 485 q 40 457 28 469 q 68 444 53 444 l 71 444 q 99 457 88 444 q 111 485 111 469 l 111 488 q 99 516 111 504 q 71 528 88 528 l 68 528 m 207 528 l 207 528 q 179 516 192 528 q 167 488 167 504 l 167 485 q 179 457 167 469 q 207 444 192 444 l 210 444 q 238 457 226 444 q 250 485 250 469 l 250 488 q 238 516 250 504 q 210 528 226 528 l 207 528 m 346 528 l 346 528 q 318 516 331 528 q 306 488 306 504 l 306 485 q 318 457 306 469 q 346 444 331 444 l 349 444 q 377 457 365 444 q 389 485 389 469 l 389 488 q 377 516 389 504 q 349 528 365 528 l 346 528 m 485 528 l 485 528 q 457 516 469 528 q 444 488 444 504 l 444 485 q 457 457 444 469 q 485 444 469 444 l 488 444 q 516 457 504 444 q 528 485 528 469 l 528 488 q 516 516 528 504 q 488 528 504 528 l 485 528 m 68 389 l 68 389 q 40 377 53 389 q 28 349 28 365 l 28 346 q 40 318 28 331 q 68 306 53 306 l 71 306 q 99 318 88 306 q 111 346 111 331 l 111 349 q 99 377 111 365 q 71 389 88 389 l 68 389 m 68 250 l 68 250 q 40 238 53 250 q 28 210 28 226 l 28 207 q 40 179 28 192 q 68 167 53 167 l 71 167 q 99 179 88 167 q 111 207 111 192 l 111 210 q 99 238 111 226 q 71 250 88 250 l 68 250 m 68 111 l 68 111 q 40 99 53 111 q 28 71 28 88 l 28 68 q 40 40 28 53 q 68 28 53 28 l 71 28 q 99 40 88 28 q 111 68 111 53 l 111 71 q 99 99 111 88 q 71 111 88 111 l 68 111 z "},"G":{"ha":833,"x_min":28,"x_max":667,"o":"m 207 944 l 207 944 q 179 933 192 944 q 167 904 167 921 l 167 901 q 179 874 167 886 q 207 861 192 861 l 210 861 q 238 874 226 861 q 250 901 250 886 l 250 904 q 238 933 250 921 q 210 944 226 944 l 207 944 m 346 944 l 346 944 q 318 933 331 944 q 306 904 306 921 l 306 901 q 318 874 306 886 q 346 861 331 861 l 349 861 q 377 874 365 861 q 389 901 389 886 l 389 904 q 377 933 389 921 q 349 944 365 944 l 346 944 m 485 944 l 485 944 q 457 933 469 944 q 444 904 444 921 l 444 901 q 457 874 444 886 q 485 861 469 861 l 488 861 q 516 874 504 861 q 528 901 528 886 l 528 904 q 516 933 528 921 q 488 944 504 944 l 485 944 m 68 806 l 68 806 q 40 794 53 806 q 28 765 28 782 l 28 763 q 40 735 28 747 q 68 722 53 722 l 71 722 q 99 735 88 722 q 111 763 111 747 l 111 765 q 99 794 111 782 q 71 806 88 806 l 68 806 m 624 806 l 624 806 q 596 794 608 806 q 583 765 583 782 l 583 763 q 596 735 583 747 q 624 722 608 722 l 626 722 q 655 735 643 722 q 667 763 667 747 l 667 765 q 655 794 667 782 q 626 806 643 806 l 624 806 m 68 667 l 68 667 q 40 655 53 667 q 28 626 28 643 l 28 624 q 40 596 28 608 q 68 583 53 583 l 71 583 q 99 596 88 583 q 111 624 111 608 l 111 626 q 99 655 111 643 q 71 667 88 667 l 68 667 m 68 528 l 68 528 q 40 516 53 528 q 28 488 28 504 l 28 485 q 40 457 28 469 q 68 444 53 444 l 71 444 q 99 457 88 444 q 111 485 111 469 l 111 488 q 99 516 111 504 q 71 528 88 528 l 68 528 m 68 389 l 68 389 q 40 377 53 389 q 28 349 28 365 l 28 346 q 40 318 28 331 q 68 306 53 306 l 71 306 q 99 318 88 306 q 111 346 111 331 l 111 349 q 99 377 111 365 q 71 389 88 389 l 68 389 m 485 389 l 485 389 q 457 377 469 389 q 444 349 444 365 l 444 346 q 457 318 444 331 q 485 306 469 306 l 488 306 q 516 318 504 306 q 528 346 528 331 l 528 349 q 516 377 528 365 q 488 389 504 389 l 485 389 m 624 389 l 624 389 q 596 377 608 389 q 583 349 583 365 l 583 346 q 596 318 583 331 q 624 306 608 306 l 626 306 q 655 318 643 306 q 667 346 667 331 l 667 349 q 655 377 667 365 q 626 389 643 389 l 624 389 m 68 250 l 68 250 q 40 238 53 250 q 28 210 28 226 l 28 207 q 40 179 28 192 q 68 167 53 167 l 71 167 q 99 179 88 167 q 111 207 111 192 l 111 210 q 99 238 111 226 q 71 250 88 250 l 68 250 m 624 250 l 624 250 q 596 238 608 250 q 583 210 583 226 l 583 207 q 596 179 583 192 q 624 167 608 167 l 626 167 q 655 179 643 167 q 667 207 667 192 l 667 210 q 655 238 667 226 q 626 250 643 250 l 624 250 m 207 111 l 207 111 q 179 99 192 111 q 167 71 167 88 l 167 68 q 179 40 167 53 q 207 28 192 28 l 210 28 q 238 40 226 28 q 250 68 250 53 l 250 71 q 238 99 250 88 q 210 111 226 111 l 207 111 m 346 111 l 346 111 q 318 99 331 111 q 306 71 306 88 l 306 68 q 318 40 306 53 q 346 28 331 28 l 349 28 q 377 40 365 28 q 389 68 389 53 l 389 71 q 377 99 389 88 q 349 111 365 111 l 346 111 m 485 111 l 485 111 q 457 99 469 111 q 444 71 444 88 l 444 68 q 457 40 444 53 q 485 28 469 28 l 488 28 q 516 40 504 28 q 528 68 528 53 l 528 71 q 516 99 528 88 q 488 111 504 111 l 485 111 z "},"Ğ":{"ha":833,"x_min":28,"x_max":667,"o":"m 68 1083 l 68 1083 q 40 1072 53 1083 q 28 1043 28 1060 l 28 1040 q 40 1013 28 1025 q 68 1000 53 1000 l 71 1000 q 99 1013 88 1000 q 111 1040 111 1025 l 111 1043 q 99 1072 111 1060 q 71 1083 88 1083 l 68 1083 m 624 1083 l 624 1083 q 596 1072 608 1083 q 583 1043 583 1060 l 583 1040 q 596 1013 583 1025 q 624 1000 608 1000 l 626 1000 q 655 1013 643 1000 q 667 1040 667 1025 l 667 1043 q 655 1072 667 1060 q 626 1083 643 1083 l 624 1083 m 207 944 l 207 944 q 179 933 192 944 q 167 904 167 921 l 167 901 q 179 874 167 886 q 207 861 192 861 l 210 861 q 238 874 226 861 q 250 901 250 886 l 250 904 q 238 933 250 921 q 210 944 226 944 l 207 944 m 346 944 l 346 944 q 318 933 331 944 q 306 904 306 921 l 306 901 q 318 874 306 886 q 346 861 331 861 l 349 861 q 377 874 365 861 q 389 901 389 886 l 389 904 q 377 933 389 921 q 349 944 365 944 l 346 944 m 485 944 l 485 944 q 457 933 469 944 q 444 904 444 921 l 444 901 q 457 874 444 886 q 485 861 469 861 l 488 861 q 516 874 504 861 q 528 901 528 886 l 528 904 q 516 933 528 921 q 488 944 504 944 l 485 944 m 207 806 l 207 806 q 179 794 192 806 q 167 765 167 782 l 167 763 q 179 735 167 747 q 207 722 192 722 l 210 722 q 238 735 226 722 q 250 763 250 747 l 250 765 q 238 794 250 782 q 210 806 226 806 l 207 806 m 346 806 l 346 806 q 318 794 331 806 q 306 765 306 782 l 306 763 q 318 735 306 747 q 346 722 331 722 l 349 722 q 377 735 365 722 q 389 763 389 747 l 389 765 q 377 794 389 782 q 349 806 365 806 l 346 806 m 485 806 l 485 806 q 457 794 469 806 q 444 765 444 782 l 444 763 q 457 735 444 747 q 485 722 469 722 l 488 722 q 516 735 504 722 q 528 763 528 747 l 528 765 q 516 794 528 782 q 488 806 504 806 l 485 806 m 68 667 l 68 667 q 40 655 53 667 q 28 626 28 643 l 28 624 q 40 596 28 608 q 68 583 53 583 l 71 583 q 99 596 88 583 q 111 624 111 608 l 111 626 q 99 655 111 643 q 71 667 88 667 l 68 667 m 624 667 l 624 667 q 596 655 608 667 q 583 626 583 643 l 583 624 q 596 596 583 608 q 624 583 608 583 l 626 583 q 655 596 643 583 q 667 624 667 608 l 667 626 q 655 655 667 643 q 626 667 643 667 l 624 667 m 68 528 l 68 528 q 40 516 53 528 q 28 488 28 504 l 28 485 q 40 457 28 469 q 68 444 53 444 l 71 444 q 99 457 88 444 q 111 485 111 469 l 111 488 q 99 516 111 504 q 71 528 88 528 l 68 528 m 68 389 l 68 389 q 40 377 53 389 q 28 349 28 365 l 28 346 q 40 318 28 331 q 68 306 53 306 l 71 306 q 99 318 88 306 q 111 346 111 331 l 111 349 q 99 377 111 365 q 71 389 88 389 l 68 389 m 485 389 l 485 389 q 457 377 469 389 q 444 349 444 365 l 444 346 q 457 318 444 331 q 485 306 469 306 l 488 306 q 516 318 504 306 q 528 346 528 331 l 528 349 q 516 377 528 365 q 488 389 504 389 l 485 389 m 624 389 l 624 389 q 596 377 608 389 q 583 349 583 365 l 583 346 q 596 318 583 331 q 624 306 608 306 l 626 306 q 655 318 643 306 q 667 346 667 331 l 667 349 q 655 377 667 365 q 626 389 643 389 l 624 389 m 68 250 l 68 250 q 40 238 53 250 q 28 210 28 226 l 28 207 q 40 179 28 192 q 68 167 53 167 l 71 167 q 99 179 88 167 q 111 207 111 192 l 111 210 q 99 238 111 226 q 71 250 88 250 l 68 250 m 624 250 l 624 250 q 596 238 608 250 q 583 210 583 226 l 583 207 q 596 179 583 192 q 624 167 608 167 l 626 167 q 655 179 643 167 q 667 207 667 192 l 667 210 q 655 238 667 226 q 626 250 643 250 l 624 250 m 207 111 l 207 111 q 179 99 192 111 q 167 71 167 88 l 167 68 q 179 40 167 53 q 207 28 192 28 l 210 28 q 238 40 226 28 q 250 68 250 53 l 250 71 q 238 99 250 88 q 210 111 226 111 l 207 111 m 346 111 l 346 111 q 318 99 331 111 q 306 71 306 88 l 306 68 q 318 40 306 53 q 346 28 331 28 l 349 28 q 377 40 365 28 q 389 68 389 53 l 389 71 q 377 99 389 88 q 349 111 365 111 l 346 111 m 485 111 l 485 111 q 457 99 469 111 q 444 71 444 88 l 444 68 q 457 40 444 53 q 485 28 469 28 l 488 28 q 516 40 504 28 q 528 68 528 53 l 528 71 q 516 99 528 88 q 488 111 504 111 l 485 111 z "},"Ġ":{"ha":833,"x_min":28,"x_max":667,"o":"m 346 1083 l 346 1083 q 318 1072 331 1083 q 306 1043 306 1060 l 306 1040 q 318 1013 306 1025 q 346 1000 331 1000 l 349 1000 q 377 1013 365 1000 q 389 1040 389 1025 l 389 1043 q 377 1072 389 1060 q 349 1083 365 1083 l 346 1083 m 207 806 l 207 806 q 179 794 192 806 q 167 765 167 782 l 167 763 q 179 735 167 747 q 207 722 192 722 l 210 722 q 238 735 226 722 q 250 763 250 747 l 250 765 q 238 794 250 782 q 210 806 226 806 l 207 806 m 346 806 l 346 806 q 318 794 331 806 q 306 765 306 782 l 306 763 q 318 735 306 747 q 346 722 331 722 l 349 722 q 377 735 365 722 q 389 763 389 747 l 389 765 q 377 794 389 782 q 349 806 365 806 l 346 806 m 485 806 l 485 806 q 457 794 469 806 q 444 765 444 782 l 444 763 q 457 735 444 747 q 485 722 469 722 l 488 722 q 516 735 504 722 q 528 763 528 747 l 528 765 q 516 794 528 782 q 488 806 504 806 l 485 806 m 68 667 l 68 667 q 40 655 53 667 q 28 626 28 643 l 28 624 q 40 596 28 608 q 68 583 53 583 l 71 583 q 99 596 88 583 q 111 624 111 608 l 111 626 q 99 655 111 643 q 71 667 88 667 l 68 667 m 624 667 l 624 667 q 596 655 608 667 q 583 626 583 643 l 583 624 q 596 596 583 608 q 624 583 608 583 l 626 583 q 655 596 643 583 q 667 624 667 608 l 667 626 q 655 655 667 643 q 626 667 643 667 l 624 667 m 68 528 l 68 528 q 40 516 53 528 q 28 488 28 504 l 28 485 q 40 457 28 469 q 68 444 53 444 l 71 444 q 99 457 88 444 q 111 485 111 469 l 111 488 q 99 516 111 504 q 71 528 88 528 l 68 528 m 68 389 l 68 389 q 40 377 53 389 q 28 349 28 365 l 28 346 q 40 318 28 331 q 68 306 53 306 l 71 306 q 99 318 88 306 q 111 346 111 331 l 111 349 q 99 377 111 365 q 71 389 88 389 l 68 389 m 485 389 l 485 389 q 457 377 469 389 q 444 349 444 365 l 444 346 q 457 318 444 331 q 485 306 469 306 l 488 306 q 516 318 504 306 q 528 346 528 331 l 528 349 q 516 377 528 365 q 488 389 504 389 l 485 389 m 624 389 l 624 389 q 596 377 608 389 q 583 349 583 365 l 583 346 q 596 318 583 331 q 624 306 608 306 l 626 306 q 655 318 643 306 q 667 346 667 331 l 667 349 q 655 377 667 365 q 626 389 643 389 l 624 389 m 68 250 l 68 250 q 40 238 53 250 q 28 210 28 226 l 28 207 q 40 179 28 192 q 68 167 53 167 l 71 167 q 99 179 88 167 q 111 207 111 192 l 111 210 q 99 238 111 226 q 71 250 88 250 l 68 250 m 624 250 l 624 250 q 596 238 608 250 q 583 210 583 226 l 583 207 q 596 179 583 192 q 624 167 608 167 l 626 167 q 655 179 643 167 q 667 207 667 192 l 667 210 q 655 238 667 226 q 626 250 643 250 l 624 250 m 207 111 l 207 111 q 179 99 192 111 q 167 71 167 88 l 167 68 q 179 40 167 53 q 207 28 192 28 l 210 28 q 238 40 226 28 q 250 68 250 53 l 250 71 q 238 99 250 88 q 210 111 226 111 l 207 111 m 346 111 l 346 111 q 318 99 331 111 q 306 71 306 88 l 306 68 q 318 40 306 53 q 346 28 331 28 l 349 28 q 377 40 365 28 q 389 68 389 53 l 389 71 q 377 99 389 88 q 349 111 365 111 l 346 111 m 485 111 l 485 111 q 457 99 469 111 q 444 71 444 88 l 444 68 q 457 40 444 53 q 485 28 469 28 l 488 28 q 516 40 504 28 q 528 68 528 53 l 528 71 q 516 99 528 88 q 488 111 504 111 l 485 111 z "},"H":{"ha":833,"x_min":28,"x_max":667,"o":"m 68 944 l 68 944 q 40 933 53 944 q 28 904 28 921 l 28 901 q 40 874 28 886 q 68 861 53 861 l 71 861 q 99 874 88 861 q 111 901 111 886 l 111 904 q 99 933 111 921 q 71 944 88 944 l 68 944 m 624 944 l 624 944 q 596 933 608 944 q 583 904 583 921 l 583 901 q 596 874 583 886 q 624 861 608 861 l 626 861 q 655 874 643 861 q 667 901 667 886 l 667 904 q 655 933 667 921 q 626 944 643 944 l 624 944 m 68 806 l 68 806 q 40 794 53 806 q 28 765 28 782 l 28 763 q 40 735 28 747 q 68 722 53 722 l 71 722 q 99 735 88 722 q 111 763 111 747 l 111 765 q 99 794 111 782 q 71 806 88 806 l 68 806 m 624 806 l 624 806 q 596 794 608 806 q 583 765 583 782 l 583 763 q 596 735 583 747 q 624 722 608 722 l 626 722 q 655 735 643 722 q 667 763 667 747 l 667 765 q 655 794 667 782 q 626 806 643 806 l 624 806 m 68 667 l 68 667 q 40 655 53 667 q 28 626 28 643 l 28 624 q 40 596 28 608 q 68 583 53 583 l 71 583 q 99 596 88 583 q 111 624 111 608 l 111 626 q 99 655 111 643 q 71 667 88 667 l 68 667 m 624 667 l 624 667 q 596 655 608 667 q 583 626 583 643 l 583 624 q 596 596 583 608 q 624 583 608 583 l 626 583 q 655 596 643 583 q 667 624 667 608 l 667 626 q 655 655 667 643 q 626 667 643 667 l 624 667 m 68 528 l 68 528 q 40 516 53 528 q 28 488 28 504 l 28 485 q 40 457 28 469 q 68 444 53 444 l 71 444 q 99 457 88 444 q 111 485 111 469 l 111 488 q 99 516 111 504 q 71 528 88 528 l 68 528 m 207 528 l 207 528 q 179 516 192 528 q 167 488 167 504 l 167 485 q 179 457 167 469 q 207 444 192 444 l 210 444 q 238 457 226 444 q 250 485 250 469 l 250 488 q 238 516 250 504 q 210 528 226 528 l 207 528 m 346 528 l 346 528 q 318 516 331 528 q 306 488 306 504 l 306 485 q 318 457 306 469 q 346 444 331 444 l 349 444 q 377 457 365 444 q 389 485 389 469 l 389 488 q 377 516 389 504 q 349 528 365 528 l 346 528 m 485 528 l 485 528 q 457 516 469 528 q 444 488 444 504 l 444 485 q 457 457 444 469 q 485 444 469 444 l 488 444 q 516 457 504 444 q 528 485 528 469 l 528 488 q 516 516 528 504 q 488 528 504 528 l 485 528 m 624 528 l 624 528 q 596 516 608 528 q 583 488 583 504 l 583 485 q 596 457 583 469 q 624 444 608 444 l 626 444 q 655 457 643 444 q 667 485 667 469 l 667 488 q 655 516 667 504 q 626 528 643 528 l 624 528 m 68 389 l 68 389 q 40 377 53 389 q 28 349 28 365 l 28 346 q 40 318 28 331 q 68 306 53 306 l 71 306 q 99 318 88 306 q 111 346 111 331 l 111 349 q 99 377 111 365 q 71 389 88 389 l 68 389 m 624 389 l 624 389 q 596 377 608 389 q 583 349 583 365 l 583 346 q 596 318 583 331 q 624 306 608 306 l 626 306 q 655 318 643 306 q 667 346 667 331 l 667 349 q 655 377 667 365 q 626 389 643 389 l 624 389 m 68 250 l 68 250 q 40 238 53 250 q 28 210 28 226 l 28 207 q 40 179 28 192 q 68 167 53 167 l 71 167 q 99 179 88 167 q 111 207 111 192 l 111 210 q 99 238 111 226 q 71 250 88 250 l 68 250 m 624 250 l 624 250 q 596 238 608 250 q 583 210 583 226 l 583 207 q 596 179 583 192 q 624 167 608 167 l 626 167 q 655 179 643 167 q 667 207 667 192 l 667 210 q 655 238 667 226 q 626 250 643 250 l 624 250 m 68 111 l 68 111 q 40 99 53 111 q 28 71 28 88 l 28 68 q 40 40 28 53 q 68 28 53 28 l 71 28 q 99 40 88 28 q 111 68 111 53 l 111 71 q 99 99 111 88 q 71 111 88 111 l 68 111 m 624 111 l 624 111 q 596 99 608 111 q 583 71 583 88 l 583 68 q 596 40 583 53 q 624 28 608 28 l 626 28 q 655 40 643 28 q 667 68 667 53 l 667 71 q 655 99 667 88 q 626 111 643 111 l 624 111 z "},"Ħ":{"ha":833,"x_min":28,"x_max":667,"o":"m 207 944 l 207 944 q 179 933 192 944 q 167 904 167 921 l 167 901 q 179 874 167 886 q 207 861 192 861 l 210 861 q 238 874 226 861 q 250 901 250 886 l 250 904 q 238 933 250 921 q 210 944 226 944 l 207 944 m 485 944 l 485 944 q 457 933 469 944 q 444 904 444 921 l 444 901 q 457 874 444 886 q 485 861 469 861 l 488 861 q 516 874 504 861 q 528 901 528 886 l 528 904 q 516 933 528 921 q 488 944 504 944 l 485 944 m 68 806 l 68 806 q 40 794 53 806 q 28 765 28 782 l 28 763 q 40 735 28 747 q 68 722 53 722 l 71 722 q 99 735 88 722 q 111 763 111 747 l 111 765 q 99 794 111 782 q 71 806 88 806 l 68 806 m 207 806 l 207 806 q 179 794 192 806 q 167 765 167 782 l 167 763 q 179 735 167 747 q 207 722 192 722 l 210 722 q 238 735 226 722 q 250 763 250 747 l 250 765 q 238 794 250 782 q 210 806 226 806 l 207 806 m 346 806 l 346 806 q 318 794 331 806 q 306 765 306 782 l 306 763 q 318 735 306 747 q 346 722 331 722 l 349 722 q 377 735 365 722 q 389 763 389 747 l 389 765 q 377 794 389 782 q 349 806 365 806 l 346 806 m 485 806 l 485 806 q 457 794 469 806 q 444 765 444 782 l 444 763 q 457 735 444 747 q 485 722 469 722 l 488 722 q 516 735 504 722 q 528 763 528 747 l 528 765 q 516 794 528 782 q 488 806 504 806 l 485 806 m 624 806 l 624 806 q 596 794 608 806 q 583 765 583 782 l 583 763 q 596 735 583 747 q 624 722 608 722 l 626 722 q 655 735 643 722 q 667 763 667 747 l 667 765 q 655 794 667 782 q 626 806 643 806 l 624 806 m 207 667 l 207 667 q 179 655 192 667 q 167 626 167 643 l 167 624 q 179 596 167 608 q 207 583 192 583 l 210 583 q 238 596 226 583 q 250 624 250 608 l 250 626 q 238 655 250 643 q 210 667 226 667 l 207 667 m 485 667 l 485 667 q 457 655 469 667 q 444 626 444 643 l 444 624 q 457 596 444 608 q 485 583 469 583 l 488 583 q 516 596 504 583 q 528 624 528 608 l 528 626 q 516 655 528 643 q 488 667 504 667 l 485 667 m 207 528 l 207 528 q 179 516 192 528 q 167 488 167 504 l 167 485 q 179 457 167 469 q 207 444 192 444 l 210 444 q 238 457 226 444 q 250 485 250 469 l 250 488 q 238 516 250 504 q 210 528 226 528 l 207 528 m 346 528 l 346 528 q 318 516 331 528 q 306 488 306 504 l 306 485 q 318 457 306 469 q 346 444 331 444 l 349 444 q 377 457 365 444 q 389 485 389 469 l 389 488 q 377 516 389 504 q 349 528 365 528 l 346 528 m 485 528 l 485 528 q 457 516 469 528 q 444 488 444 504 l 444 485 q 457 457 444 469 q 485 444 469 444 l 488 444 q 516 457 504 444 q 528 485 528 469 l 528 488 q 516 516 528 504 q 488 528 504 528 l 485 528 m 207 389 l 207 389 q 179 377 192 389 q 167 349 167 365 l 167 346 q 179 318 167 331 q 207 306 192 306 l 210 306 q 238 318 226 306 q 250 346 250 331 l 250 349 q 238 377 250 365 q 210 389 226 389 l 207 389 m 485 389 l 485 389 q 457 377 469 389 q 444 349 444 365 l 444 346 q 457 318 444 331 q 485 306 469 306 l 488 306 q 516 318 504 306 q 528 346 528 331 l 528 349 q 516 377 528 365 q 488 389 504 389 l 485 389 m 207 250 l 207 250 q 179 238 192 250 q 167 210 167 226 l 167 207 q 179 179 167 192 q 207 167 192 167 l 210 167 q 238 179 226 167 q 250 207 250 192 l 250 210 q 238 238 250 226 q 210 250 226 250 l 207 250 m 485 250 l 485 250 q 457 238 469 250 q 444 210 444 226 l 444 207 q 457 179 444 192 q 485 167 469 167 l 488 167 q 516 179 504 167 q 528 207 528 192 l 528 210 q 516 238 528 226 q 488 250 504 250 l 485 250 m 207 111 l 207 111 q 179 99 192 111 q 167 71 167 88 l 167 68 q 179 40 167 53 q 207 28 192 28 l 210 28 q 238 40 226 28 q 250 68 250 53 l 250 71 q 238 99 250 88 q 210 111 226 111 l 207 111 m 485 111 l 485 111 q 457 99 469 111 q 444 71 444 88 l 444 68 q 457 40 444 53 q 485 28 469 28 l 488 28 q 516 40 504 28 q 528 68 528 53 l 528 71 q 516 99 528 88 q 488 111 504 111 l 485 111 z "},"I":{"ha":833,"x_min":167,"x_max":528,"o":"m 207 944 l 207 944 q 179 933 192 944 q 167 904 167 921 l 167 901 q 179 874 167 886 q 207 861 192 861 l 210 861 q 238 874 226 861 q 250 901 250 886 l 250 904 q 238 933 250 921 q 210 944 226 944 l 207 944 m 346 944 l 346 944 q 318 933 331 944 q 306 904 306 921 l 306 901 q 318 874 306 886 q 346 861 331 861 l 349 861 q 377 874 365 861 q 389 901 389 886 l 389 904 q 377 933 389 921 q 349 944 365 944 l 346 944 m 485 944 l 485 944 q 457 933 469 944 q 444 904 444 921 l 444 901 q 457 874 444 886 q 485 861 469 861 l 488 861 q 516 874 504 861 q 528 901 528 886 l 528 904 q 516 933 528 921 q 488 944 504 944 l 485 944 m 346 806 l 346 806 q 318 794 331 806 q 306 765 306 782 l 306 763 q 318 735 306 747 q 346 722 331 722 l 349 722 q 377 735 365 722 q 389 763 389 747 l 389 765 q 377 794 389 782 q 349 806 365 806 l 346 806 m 346 667 l 346 667 q 318 655 331 667 q 306 626 306 643 l 306 624 q 318 596 306 608 q 346 583 331 583 l 349 583 q 377 596 365 583 q 389 624 389 608 l 389 626 q 377 655 389 643 q 349 667 365 667 l 346 667 m 346 528 l 346 528 q 318 516 331 528 q 306 488 306 504 l 306 485 q 318 457 306 469 q 346 444 331 444 l 349 444 q 377 457 365 444 q 389 485 389 469 l 389 488 q 377 516 389 504 q 349 528 365 528 l 346 528 m 346 389 l 346 389 q 318 377 331 389 q 306 349 306 365 l 306 346 q 318 318 306 331 q 346 306 331 306 l 349 306 q 377 318 365 306 q 389 346 389 331 l 389 349 q 377 377 389 365 q 349 389 365 389 l 346 389 m 346 250 l 346 250 q 318 238 331 250 q 306 210 306 226 l 306 207 q 318 179 306 192 q 346 167 331 167 l 349 167 q 377 179 365 167 q 389 207 389 192 l 389 210 q 377 238 389 226 q 349 250 365 250 l 346 250 m 207 111 l 207 111 q 179 99 192 111 q 167 71 167 88 l 167 68 q 179 40 167 53 q 207 28 192 28 l 210 28 q 238 40 226 28 q 250 68 250 53 l 250 71 q 238 99 250 88 q 210 111 226 111 l 207 111 m 346 111 l 346 111 q 318 99 331 111 q 306 71 306 88 l 306 68 q 318 40 306 53 q 346 28 331 28 l 349 28 q 377 40 365 28 q 389 68 389 53 l 389 71 q 377 99 389 88 q 349 111 365 111 l 346 111 m 485 111 l 485 111 q 457 99 469 111 q 444 71 444 88 l 444 68 q 457 40 444 53 q 485 28 469 28 l 488 28 q 516 40 504 28 q 528 68 528 53 l 528 71 q 516 99 528 88 q 488 111 504 111 l 485 111 z "},"Í":{"ha":833,"x_min":167,"x_max":528,"o":"m 485 1083 l 485 1083 q 457 1072 469 1083 q 444 1043 444 1060 l 444 1040 q 457 1013 444 1025 q 485 1000 469 1000 l 488 1000 q 516 1013 504 1000 q 528 1040 528 1025 l 528 1043 q 516 1072 528 1060 q 488 1083 504 1083 l 485 1083 m 346 944 l 346 944 q 318 933 331 944 q 306 904 306 921 l 306 901 q 318 874 306 886 q 346 861 331 861 l 349 861 q 377 874 365 861 q 389 901 389 886 l 389 904 q 377 933 389 921 q 349 944 365 944 l 346 944 m 207 806 l 207 806 q 179 794 192 806 q 167 765 167 782 l 167 763 q 179 735 167 747 q 207 722 192 722 l 210 722 q 238 735 226 722 q 250 763 250 747 l 250 765 q 238 794 250 782 q 210 806 226 806 l 207 806 m 346 806 l 346 806 q 318 794 331 806 q 306 765 306 782 l 306 763 q 318 735 306 747 q 346 722 331 722 l 349 722 q 377 735 365 722 q 389 763 389 747 l 389 765 q 377 794 389 782 q 349 806 365 806 l 346 806 m 485 806 l 485 806 q 457 794 469 806 q 444 765 444 782 l 444 763 q 457 735 444 747 q 485 722 469 722 l 488 722 q 516 735 504 722 q 528 763 528 747 l 528 765 q 516 794 528 782 q 488 806 504 806 l 485 806 m 346 667 l 346 667 q 318 655 331 667 q 306 626 306 643 l 306 624 q 318 596 306 608 q 346 583 331 583 l 349 583 q 377 596 365 583 q 389 624 389 608 l 389 626 q 377 655 389 643 q 349 667 365 667 l 346 667 m 346 528 l 346 528 q 318 516 331 528 q 306 488 306 504 l 306 485 q 318 457 306 469 q 346 444 331 444 l 349 444 q 377 457 365 444 q 389 485 389 469 l 389 488 q 377 516 389 504 q 349 528 365 528 l 346 528 m 346 389 l 346 389 q 318 377 331 389 q 306 349 306 365 l 306 346 q 318 318 306 331 q 346 306 331 306 l 349 306 q 377 318 365 306 q 389 346 389 331 l 389 349 q 377 377 389 365 q 349 389 365 389 l 346 389 m 346 250 l 346 250 q 318 238 331 250 q 306 210 306 226 l 306 207 q 318 179 306 192 q 346 167 331 167 l 349 167 q 377 179 365 167 q 389 207 389 192 l 389 210 q 377 238 389 226 q 349 250 365 250 l 346 250 m 207 111 l 207 111 q 179 99 192 111 q 167 71 167 88 l 167 68 q 179 40 167 53 q 207 28 192 28 l 210 28 q 238 40 226 28 q 250 68 250 53 l 250 71 q 238 99 250 88 q 210 111 226 111 l 207 111 m 346 111 l 346 111 q 318 99 331 111 q 306 71 306 88 l 306 68 q 318 40 306 53 q 346 28 331 28 l 349 28 q 377 40 365 28 q 389 68 389 53 l 389 71 q 377 99 389 88 q 349 111 365 111 l 346 111 m 485 111 l 485 111 q 457 99 469 111 q 444 71 444 88 l 444 68 q 457 40 444 53 q 485 28 469 28 l 488 28 q 516 40 504 28 q 528 68 528 53 l 528 71 q 516 99 528 88 q 488 111 504 111 l 485 111 z "},"Î":{"ha":833,"x_min":167,"x_max":528,"o":"m 346 1083 l 346 1083 q 318 1072 331 1083 q 306 1043 306 1060 l 306 1040 q 318 1013 306 1025 q 346 1000 331 1000 l 349 1000 q 377 1013 365 1000 q 389 1040 389 1025 l 389 1043 q 377 1072 389 1060 q 349 1083 365 1083 l 346 1083 m 207 944 l 207 944 q 179 933 192 944 q 167 904 167 921 l 167 901 q 179 874 167 886 q 207 861 192 861 l 210 861 q 238 874 226 861 q 250 901 250 886 l 250 904 q 238 933 250 921 q 210 944 226 944 l 207 944 m 485 944 l 485 944 q 457 933 469 944 q 444 904 444 921 l 444 901 q 457 874 444 886 q 485 861 469 861 l 488 861 q 516 874 504 861 q 528 901 528 886 l 528 904 q 516 933 528 921 q 488 944 504 944 l 485 944 m 207 806 l 207 806 q 179 794 192 806 q 167 765 167 782 l 167 763 q 179 735 167 747 q 207 722 192 722 l 210 722 q 238 735 226 722 q 250 763 250 747 l 250 765 q 238 794 250 782 q 210 806 226 806 l 207 806 m 346 806 l 346 806 q 318 794 331 806 q 306 765 306 782 l 306 763 q 318 735 306 747 q 346 722 331 722 l 349 722 q 377 735 365 722 q 389 763 389 747 l 389 765 q 377 794 389 782 q 349 806 365 806 l 346 806 m 485 806 l 485 806 q 457 794 469 806 q 444 765 444 782 l 444 763 q 457 735 444 747 q 485 722 469 722 l 488 722 q 516 735 504 722 q 528 763 528 747 l 528 765 q 516 794 528 782 q 488 806 504 806 l 485 806 m 346 667 l 346 667 q 318 655 331 667 q 306 626 306 643 l 306 624 q 318 596 306 608 q 346 583 331 583 l 349 583 q 377 596 365 583 q 389 624 389 608 l 389 626 q 377 655 389 643 q 349 667 365 667 l 346 667 m 346 528 l 346 528 q 318 516 331 528 q 306 488 306 504 l 306 485 q 318 457 306 469 q 346 444 331 444 l 349 444 q 377 457 365 444 q 389 485 389 469 l 389 488 q 377 516 389 504 q 349 528 365 528 l 346 528 m 346 389 l 346 389 q 318 377 331 389 q 306 349 306 365 l 306 346 q 318 318 306 331 q 346 306 331 306 l 349 306 q 377 318 365 306 q 389 346 389 331 l 389 349 q 377 377 389 365 q 349 389 365 389 l 346 389 m 346 250 l 346 250 q 318 238 331 250 q 306 210 306 226 l 306 207 q 318 179 306 192 q 346 167 331 167 l 349 167 q 377 179 365 167 q 389 207 389 192 l 389 210 q 377 238 389 226 q 349 250 365 250 l 346 250 m 207 111 l 207 111 q 179 99 192 111 q 167 71 167 88 l 167 68 q 179 40 167 53 q 207 28 192 28 l 210 28 q 238 40 226 28 q 250 68 250 53 l 250 71 q 238 99 250 88 q 210 111 226 111 l 207 111 m 346 111 l 346 111 q 318 99 331 111 q 306 71 306 88 l 306 68 q 318 40 306 53 q 346 28 331 28 l 349 28 q 377 40 365 28 q 389 68 389 53 l 389 71 q 377 99 389 88 q 349 111 365 111 l 346 111 m 485 111 l 485 111 q 457 99 469 111 q 444 71 444 88 l 444 68 q 457 40 444 53 q 485 28 469 28 l 488 28 q 516 40 504 28 q 528 68 528 53 l 528 71 q 516 99 528 88 q 488 111 504 111 l 485 111 z "},"Ï":{"ha":833,"x_min":167,"x_max":528,"o":"m 207 1083 l 207 1083 q 179 1072 192 1083 q 167 1043 167 1060 l 167 1040 q 179 1013 167 1025 q 207 1000 192 1000 l 210 1000 q 238 1013 226 1000 q 250 1040 250 1025 l 250 1043 q 238 1072 250 1060 q 210 1083 226 1083 l 207 1083 m 485 1083 l 485 1083 q 457 1072 469 1083 q 444 1043 444 1060 l 444 1040 q 457 1013 444 1025 q 485 1000 469 1000 l 488 1000 q 516 1013 504 1000 q 528 1040 528 1025 l 528 1043 q 516 1072 528 1060 q 488 1083 504 1083 l 485 1083 m 207 806 l 207 806 q 179 794 192 806 q 167 765 167 782 l 167 763 q 179 735 167 747 q 207 722 192 722 l 210 722 q 238 735 226 722 q 250 763 250 747 l 250 765 q 238 794 250 782 q 210 806 226 806 l 207 806 m 346 806 l 346 806 q 318 794 331 806 q 306 765 306 782 l 306 763 q 318 735 306 747 q 346 722 331 722 l 349 722 q 377 735 365 722 q 389 763 389 747 l 389 765 q 377 794 389 782 q 349 806 365 806 l 346 806 m 485 806 l 485 806 q 457 794 469 806 q 444 765 444 782 l 444 763 q 457 735 444 747 q 485 722 469 722 l 488 722 q 516 735 504 722 q 528 763 528 747 l 528 765 q 516 794 528 782 q 488 806 504 806 l 485 806 m 346 667 l 346 667 q 318 655 331 667 q 306 626 306 643 l 306 624 q 318 596 306 608 q 346 583 331 583 l 349 583 q 377 596 365 583 q 389 624 389 608 l 389 626 q 377 655 389 643 q 349 667 365 667 l 346 667 m 346 528 l 346 528 q 318 516 331 528 q 306 488 306 504 l 306 485 q 318 457 306 469 q 346 444 331 444 l 349 444 q 377 457 365 444 q 389 485 389 469 l 389 488 q 377 516 389 504 q 349 528 365 528 l 346 528 m 346 389 l 346 389 q 318 377 331 389 q 306 349 306 365 l 306 346 q 318 318 306 331 q 346 306 331 306 l 349 306 q 377 318 365 306 q 389 346 389 331 l 389 349 q 377 377 389 365 q 349 389 365 389 l 346 389 m 346 250 l 346 250 q 318 238 331 250 q 306 210 306 226 l 306 207 q 318 179 306 192 q 346 167 331 167 l 349 167 q 377 179 365 167 q 389 207 389 192 l 389 210 q 377 238 389 226 q 349 250 365 250 l 346 250 m 207 111 l 207 111 q 179 99 192 111 q 167 71 167 88 l 167 68 q 179 40 167 53 q 207 28 192 28 l 210 28 q 238 40 226 28 q 250 68 250 53 l 250 71 q 238 99 250 88 q 210 111 226 111 l 207 111 m 346 111 l 346 111 q 318 99 331 111 q 306 71 306 88 l 306 68 q 318 40 306 53 q 346 28 331 28 l 349 28 q 377 40 365 28 q 389 68 389 53 l 389 71 q 377 99 389 88 q 349 111 365 111 l 346 111 m 485 111 l 485 111 q 457 99 469 111 q 444 71 444 88 l 444 68 q 457 40 444 53 q 485 28 469 28 l 488 28 q 516 40 504 28 q 528 68 528 53 l 528 71 q 516 99 528 88 q 488 111 504 111 l 485 111 z "},"İ":{"ha":833,"x_min":167,"x_max":528,"o":"m 346 1083 l 346 1083 q 318 1072 331 1083 q 306 1043 306 1060 l 306 1040 q 318 1013 306 1025 q 346 1000 331 1000 l 349 1000 q 377 1013 365 1000 q 389 1040 389 1025 l 389 1043 q 377 1072 389 1060 q 349 1083 365 1083 l 346 1083 m 207 806 l 207 806 q 179 794 192 806 q 167 765 167 782 l 167 763 q 179 735 167 747 q 207 722 192 722 l 210 722 q 238 735 226 722 q 250 763 250 747 l 250 765 q 238 794 250 782 q 210 806 226 806 l 207 806 m 346 806 l 346 806 q 318 794 331 806 q 306 765 306 782 l 306 763 q 318 735 306 747 q 346 722 331 722 l 349 722 q 377 735 365 722 q 389 763 389 747 l 389 765 q 377 794 389 782 q 349 806 365 806 l 346 806 m 485 806 l 485 806 q 457 794 469 806 q 444 765 444 782 l 444 763 q 457 735 444 747 q 485 722 469 722 l 488 722 q 516 735 504 722 q 528 763 528 747 l 528 765 q 516 794 528 782 q 488 806 504 806 l 485 806 m 346 667 l 346 667 q 318 655 331 667 q 306 626 306 643 l 306 624 q 318 596 306 608 q 346 583 331 583 l 349 583 q 377 596 365 583 q 389 624 389 608 l 389 626 q 377 655 389 643 q 349 667 365 667 l 346 667 m 346 528 l 346 528 q 318 516 331 528 q 306 488 306 504 l 306 485 q 318 457 306 469 q 346 444 331 444 l 349 444 q 377 457 365 444 q 389 485 389 469 l 389 488 q 377 516 389 504 q 349 528 365 528 l 346 528 m 346 389 l 346 389 q 318 377 331 389 q 306 349 306 365 l 306 346 q 318 318 306 331 q 346 306 331 306 l 349 306 q 377 318 365 306 q 389 346 389 331 l 389 349 q 377 377 389 365 q 349 389 365 389 l 346 389 m 346 250 l 346 250 q 318 238 331 250 q 306 210 306 226 l 306 207 q 318 179 306 192 q 346 167 331 167 l 349 167 q 377 179 365 167 q 389 207 389 192 l 389 210 q 377 238 389 226 q 349 250 365 250 l 346 250 m 207 111 l 207 111 q 179 99 192 111 q 167 71 167 88 l 167 68 q 179 40 167 53 q 207 28 192 28 l 210 28 q 238 40 226 28 q 250 68 250 53 l 250 71 q 238 99 250 88 q 210 111 226 111 l 207 111 m 346 111 l 346 111 q 318 99 331 111 q 306 71 306 88 l 306 68 q 318 40 306 53 q 346 28 331 28 l 349 28 q 377 40 365 28 q 389 68 389 53 l 389 71 q 377 99 389 88 q 349 111 365 111 l 346 111 m 485 111 l 485 111 q 457 99 469 111 q 444 71 444 88 l 444 68 q 457 40 444 53 q 485 28 469 28 l 488 28 q 516 40 504 28 q 528 68 528 53 l 528 71 q 516 99 528 88 q 488 111 504 111 l 485 111 z "},"Ì":{"ha":833,"x_min":167,"x_max":528,"o":"m 207 1083 l 207 1083 q 179 1072 192 1083 q 167 1043 167 1060 l 167 1040 q 179 1013 167 1025 q 207 1000 192 1000 l 210 1000 q 238 1013 226 1000 q 250 1040 250 1025 l 250 1043 q 238 1072 250 1060 q 210 1083 226 1083 l 207 1083 m 346 944 l 346 944 q 318 933 331 944 q 306 904 306 921 l 306 901 q 318 874 306 886 q 346 861 331 861 l 349 861 q 377 874 365 861 q 389 901 389 886 l 389 904 q 377 933 389 921 q 349 944 365 944 l 346 944 m 207 806 l 207 806 q 179 794 192 806 q 167 765 167 782 l 167 763 q 179 735 167 747 q 207 722 192 722 l 210 722 q 238 735 226 722 q 250 763 250 747 l 250 765 q 238 794 250 782 q 210 806 226 806 l 207 806 m 346 806 l 346 806 q 318 794 331 806 q 306 765 306 782 l 306 763 q 318 735 306 747 q 346 722 331 722 l 349 722 q 377 735 365 722 q 389 763 389 747 l 389 765 q 377 794 389 782 q 349 806 365 806 l 346 806 m 485 806 l 485 806 q 457 794 469 806 q 444 765 444 782 l 444 763 q 457 735 444 747 q 485 722 469 722 l 488 722 q 516 735 504 722 q 528 763 528 747 l 528 765 q 516 794 528 782 q 488 806 504 806 l 485 806 m 346 667 l 346 667 q 318 655 331 667 q 306 626 306 643 l 306 624 q 318 596 306 608 q 346 583 331 583 l 349 583 q 377 596 365 583 q 389 624 389 608 l 389 626 q 377 655 389 643 q 349 667 365 667 l 346 667 m 346 528 l 346 528 q 318 516 331 528 q 306 488 306 504 l 306 485 q 318 457 306 469 q 346 444 331 444 l 349 444 q 377 457 365 444 q 389 485 389 469 l 389 488 q 377 516 389 504 q 349 528 365 528 l 346 528 m 346 389 l 346 389 q 318 377 331 389 q 306 349 306 365 l 306 346 q 318 318 306 331 q 346 306 331 306 l 349 306 q 377 318 365 306 q 389 346 389 331 l 389 349 q 377 377 389 365 q 349 389 365 389 l 346 389 m 346 250 l 346 250 q 318 238 331 250 q 306 210 306 226 l 306 207 q 318 179 306 192 q 346 167 331 167 l 349 167 q 377 179 365 167 q 389 207 389 192 l 389 210 q 377 238 389 226 q 349 250 365 250 l 346 250 m 207 111 l 207 111 q 179 99 192 111 q 167 71 167 88 l 167 68 q 179 40 167 53 q 207 28 192 28 l 210 28 q 238 40 226 28 q 250 68 250 53 l 250 71 q 238 99 250 88 q 210 111 226 111 l 207 111 m 346 111 l 346 111 q 318 99 331 111 q 306 71 306 88 l 306 68 q 318 40 306 53 q 346 28 331 28 l 349 28 q 377 40 365 28 q 389 68 389 53 l 389 71 q 377 99 389 88 q 349 111 365 111 l 346 111 m 485 111 l 485 111 q 457 99 469 111 q 444 71 444 88 l 444 68 q 457 40 444 53 q 485 28 469 28 l 488 28 q 516 40 504 28 q 528 68 528 53 l 528 71 q 516 99 528 88 q 488 111 504 111 l 485 111 z "},"Ī":{"ha":833,"x_min":167,"x_max":528,"o":"m 207 1083 l 207 1083 q 179 1072 192 1083 q 167 1043 167 1060 l 167 1040 q 179 1013 167 1025 q 207 1000 192 1000 l 210 1000 q 238 1013 226 1000 q 250 1040 250 1025 l 250 1043 q 238 1072 250 1060 q 210 1083 226 1083 l 207 1083 m 346 1083 l 346 1083 q 318 1072 331 1083 q 306 1043 306 1060 l 306 1040 q 318 1013 306 1025 q 346 1000 331 1000 l 349 1000 q 377 1013 365 1000 q 389 1040 389 1025 l 389 1043 q 377 1072 389 1060 q 349 1083 365 1083 l 346 1083 m 485 1083 l 485 1083 q 457 1072 469 1083 q 444 1043 444 1060 l 444 1040 q 457 1013 444 1025 q 485 1000 469 1000 l 488 1000 q 516 1013 504 1000 q 528 1040 528 1025 l 528 1043 q 516 1072 528 1060 q 488 1083 504 1083 l 485 1083 m 207 806 l 207 806 q 179 794 192 806 q 167 765 167 782 l 167 763 q 179 735 167 747 q 207 722 192 722 l 210 722 q 238 735 226 722 q 250 763 250 747 l 250 765 q 238 794 250 782 q 210 806 226 806 l 207 806 m 346 806 l 346 806 q 318 794 331 806 q 306 765 306 782 l 306 763 q 318 735 306 747 q 346 722 331 722 l 349 722 q 377 735 365 722 q 389 763 389 747 l 389 765 q 377 794 389 782 q 349 806 365 806 l 346 806 m 485 806 l 485 806 q 457 794 469 806 q 444 765 444 782 l 444 763 q 457 735 444 747 q 485 722 469 722 l 488 722 q 516 735 504 722 q 528 763 528 747 l 528 765 q 516 794 528 782 q 488 806 504 806 l 485 806 m 346 667 l 346 667 q 318 655 331 667 q 306 626 306 643 l 306 624 q 318 596 306 608 q 346 583 331 583 l 349 583 q 377 596 365 583 q 389 624 389 608 l 389 626 q 377 655 389 643 q 349 667 365 667 l 346 667 m 346 528 l 346 528 q 318 516 331 528 q 306 488 306 504 l 306 485 q 318 457 306 469 q 346 444 331 444 l 349 444 q 377 457 365 444 q 389 485 389 469 l 389 488 q 377 516 389 504 q 349 528 365 528 l 346 528 m 346 389 l 346 389 q 318 377 331 389 q 306 349 306 365 l 306 346 q 318 318 306 331 q 346 306 331 306 l 349 306 q 377 318 365 306 q 389 346 389 331 l 389 349 q 377 377 389 365 q 349 389 365 389 l 346 389 m 346 250 l 346 250 q 318 238 331 250 q 306 210 306 226 l 306 207 q 318 179 306 192 q 346 167 331 167 l 349 167 q 377 179 365 167 q 389 207 389 192 l 389 210 q 377 238 389 226 q 349 250 365 250 l 346 250 m 207 111 l 207 111 q 179 99 192 111 q 167 71 167 88 l 167 68 q 179 40 167 53 q 207 28 192 28 l 210 28 q 238 40 226 28 q 250 68 250 53 l 250 71 q 238 99 250 88 q 210 111 226 111 l 207 111 m 346 111 l 346 111 q 318 99 331 111 q 306 71 306 88 l 306 68 q 318 40 306 53 q 346 28 331 28 l 349 28 q 377 40 365 28 q 389 68 389 53 l 389 71 q 377 99 389 88 q 349 111 365 111 l 346 111 m 485 111 l 485 111 q 457 99 469 111 q 444 71 444 88 l 444 68 q 457 40 444 53 q 485 28 469 28 l 488 28 q 516 40 504 28 q 528 68 528 53 l 528 71 q 516 99 528 88 q 488 111 504 111 l 485 111 z "},"Į":{"ha":833,"x_min":167,"x_max":528,"o":"m 207 944 l 207 944 q 179 933 192 944 q 167 904 167 921 l 167 901 q 179 874 167 886 q 207 861 192 861 l 210 861 q 238 874 226 861 q 250 901 250 886 l 250 904 q 238 933 250 921 q 210 944 226 944 l 207 944 m 346 944 l 346 944 q 318 933 331 944 q 306 904 306 921 l 306 901 q 318 874 306 886 q 346 861 331 861 l 349 861 q 377 874 365 861 q 389 901 389 886 l 389 904 q 377 933 389 921 q 349 944 365 944 l 346 944 m 485 944 l 485 944 q 457 933 469 944 q 444 904 444 921 l 444 901 q 457 874 444 886 q 485 861 469 861 l 488 861 q 516 874 504 861 q 528 901 528 886 l 528 904 q 516 933 528 921 q 488 944 504 944 l 485 944 m 346 806 l 346 806 q 318 794 331 806 q 306 765 306 782 l 306 763 q 318 735 306 747 q 346 722 331 722 l 349 722 q 377 735 365 722 q 389 763 389 747 l 389 765 q 377 794 389 782 q 349 806 365 806 l 346 806 m 346 667 l 346 667 q 318 655 331 667 q 306 626 306 643 l 306 624 q 318 596 306 608 q 346 583 331 583 l 349 583 q 377 596 365 583 q 389 624 389 608 l 389 626 q 377 655 389 643 q 349 667 365 667 l 346 667 m 346 528 l 346 528 q 318 516 331 528 q 306 488 306 504 l 306 485 q 318 457 306 469 q 346 444 331 444 l 349 444 q 377 457 365 444 q 389 485 389 469 l 389 488 q 377 516 389 504 q 349 528 365 528 l 346 528 m 346 389 l 346 389 q 318 377 331 389 q 306 349 306 365 l 306 346 q 318 318 306 331 q 346 306 331 306 l 349 306 q 377 318 365 306 q 389 346 389 331 l 389 349 q 377 377 389 365 q 349 389 365 389 l 346 389 m 346 250 l 346 250 q 318 238 331 250 q 306 210 306 226 l 306 207 q 318 179 306 192 q 346 167 331 167 l 349 167 q 377 179 365 167 q 389 207 389 192 l 389 210 q 377 238 389 226 q 349 250 365 250 l 346 250 m 207 111 l 207 111 q 179 99 192 111 q 167 71 167 88 l 167 68 q 179 40 167 53 q 207 28 192 28 l 210 28 q 238 40 226 28 q 250 68 250 53 l 250 71 q 238 99 250 88 q 210 111 226 111 l 207 111 m 346 111 l 346 111 q 318 99 331 111 q 306 71 306 88 l 306 68 q 318 40 306 53 q 346 28 331 28 l 349 28 q 377 40 365 28 q 389 68 389 53 l 389 71 q 377 99 389 88 q 349 111 365 111 l 346 111 m 485 111 l 485 111 q 457 99 469 111 q 444 71 444 88 l 444 68 q 457 40 444 53 q 485 28 469 28 l 488 28 q 516 40 504 28 q 528 68 528 53 l 528 71 q 516 99 528 88 q 488 111 504 111 l 485 111 m 346 -28 l 346 -28 q 318 -40 331 -28 q 306 -68 306 -51 l 306 -71 q 318 -99 306 -86 q 346 -111 331 -111 l 349 -111 q 377 -99 365 -111 q 389 -71 389 -86 l 389 -68 q 377 -40 389 -51 q 349 -28 365 -28 l 346 -28 m 346 -167 l 346 -167 q 318 -178 331 -167 q 306 -207 306 -190 l 306 -210 q 318 -237 306 -225 q 346 -250 331 -250 l 349 -250 q 377 -237 365 -250 q 389 -210 389 -225 l 389 -207 q 377 -178 389 -190 q 349 -167 365 -167 l 346 -167 m 485 -167 l 485 -167 q 457 -178 469 -167 q 444 -207 444 -190 l 444 -210 q 457 -237 444 -225 q 485 -250 469 -250 l 488 -250 q 516 -237 504 -250 q 528 -210 528 -225 l 528 -207 q 516 -178 528 -190 q 488 -167 504 -167 l 485 -167 z "},"J":{"ha":833,"x_min":28,"x_max":667,"o":"m 346 944 l 346 944 q 318 933 331 944 q 306 904 306 921 l 306 901 q 318 874 306 886 q 346 861 331 861 l 349 861 q 377 874 365 861 q 389 901 389 886 l 389 904 q 377 933 389 921 q 349 944 365 944 l 346 944 m 485 944 l 485 944 q 457 933 469 944 q 444 904 444 921 l 444 901 q 457 874 444 886 q 485 861 469 861 l 488 861 q 516 874 504 861 q 528 901 528 886 l 528 904 q 516 933 528 921 q 488 944 504 944 l 485 944 m 624 944 l 624 944 q 596 933 608 944 q 583 904 583 921 l 583 901 q 596 874 583 886 q 624 861 608 861 l 626 861 q 655 874 643 861 q 667 901 667 886 l 667 904 q 655 933 667 921 q 626 944 643 944 l 624 944 m 485 806 l 485 806 q 457 794 469 806 q 444 765 444 782 l 444 763 q 457 735 444 747 q 485 722 469 722 l 488 722 q 516 735 504 722 q 528 763 528 747 l 528 765 q 516 794 528 782 q 488 806 504 806 l 485 806 m 485 667 l 485 667 q 457 655 469 667 q 444 626 444 643 l 444 624 q 457 596 444 608 q 485 583 469 583 l 488 583 q 516 596 504 583 q 528 624 528 608 l 528 626 q 516 655 528 643 q 488 667 504 667 l 485 667 m 485 528 l 485 528 q 457 516 469 528 q 444 488 444 504 l 444 485 q 457 457 444 469 q 485 444 469 444 l 488 444 q 516 457 504 444 q 528 485 528 469 l 528 488 q 516 516 528 504 q 488 528 504 528 l 485 528 m 485 389 l 485 389 q 457 377 469 389 q 444 349 444 365 l 444 346 q 457 318 444 331 q 485 306 469 306 l 488 306 q 516 318 504 306 q 528 346 528 331 l 528 349 q 516 377 528 365 q 488 389 504 389 l 485 389 m 68 250 l 68 250 q 40 238 53 250 q 28 210 28 226 l 28 207 q 40 179 28 192 q 68 167 53 167 l 71 167 q 99 179 88 167 q 111 207 111 192 l 111 210 q 99 238 111 226 q 71 250 88 250 l 68 250 m 485 250 l 485 250 q 457 238 469 250 q 444 210 444 226 l 444 207 q 457 179 444 192 q 485 167 469 167 l 488 167 q 516 179 504 167 q 528 207 528 192 l 528 210 q 516 238 528 226 q 488 250 504 250 l 485 250 m 207 111 l 207 111 q 179 99 192 111 q 167 71 167 88 l 167 68 q 179 40 167 53 q 207 28 192 28 l 210 28 q 238 40 226 28 q 250 68 250 53 l 250 71 q 238 99 250 88 q 210 111 226 111 l 207 111 m 346 111 l 346 111 q 318 99 331 111 q 306 71 306 88 l 306 68 q 318 40 306 53 q 346 28 331 28 l 349 28 q 377 40 365 28 q 389 68 389 53 l 389 71 q 377 99 389 88 q 349 111 365 111 l 346 111 z "},"K":{"ha":833,"x_min":28,"x_max":667,"o":"m 68 944 l 68 944 q 40 933 53 944 q 28 904 28 921 l 28 901 q 40 874 28 886 q 68 861 53 861 l 71 861 q 99 874 88 861 q 111 901 111 886 l 111 904 q 99 933 111 921 q 71 944 88 944 l 68 944 m 624 944 l 624 944 q 596 933 608 944 q 583 904 583 921 l 583 901 q 596 874 583 886 q 624 861 608 861 l 626 861 q 655 874 643 861 q 667 901 667 886 l 667 904 q 655 933 667 921 q 626 944 643 944 l 624 944 m 68 806 l 68 806 q 40 794 53 806 q 28 765 28 782 l 28 763 q 40 735 28 747 q 68 722 53 722 l 71 722 q 99 735 88 722 q 111 763 111 747 l 111 765 q 99 794 111 782 q 71 806 88 806 l 68 806 m 485 806 l 485 806 q 457 794 469 806 q 444 765 444 782 l 444 763 q 457 735 444 747 q 485 722 469 722 l 488 722 q 516 735 504 722 q 528 763 528 747 l 528 765 q 516 794 528 782 q 488 806 504 806 l 485 806 m 68 667 l 68 667 q 40 655 53 667 q 28 626 28 643 l 28 624 q 40 596 28 608 q 68 583 53 583 l 71 583 q 99 596 88 583 q 111 624 111 608 l 111 626 q 99 655 111 643 q 71 667 88 667 l 68 667 m 346 667 l 346 667 q 318 655 331 667 q 306 626 306 643 l 306 624 q 318 596 306 608 q 346 583 331 583 l 349 583 q 377 596 365 583 q 389 624 389 608 l 389 626 q 377 655 389 643 q 349 667 365 667 l 346 667 m 68 528 l 68 528 q 40 516 53 528 q 28 488 28 504 l 28 485 q 40 457 28 469 q 68 444 53 444 l 71 444 q 99 457 88 444 q 111 485 111 469 l 111 488 q 99 516 111 504 q 71 528 88 528 l 68 528 m 207 528 l 207 528 q 179 516 192 528 q 167 488 167 504 l 167 485 q 179 457 167 469 q 207 444 192 444 l 210 444 q 238 457 226 444 q 250 485 250 469 l 250 488 q 238 516 250 504 q 210 528 226 528 l 207 528 m 68 389 l 68 389 q 40 377 53 389 q 28 349 28 365 l 28 346 q 40 318 28 331 q 68 306 53 306 l 71 306 q 99 318 88 306 q 111 346 111 331 l 111 349 q 99 377 111 365 q 71 389 88 389 l 68 389 m 346 389 l 346 389 q 318 377 331 389 q 306 349 306 365 l 306 346 q 318 318 306 331 q 346 306 331 306 l 349 306 q 377 318 365 306 q 389 346 389 331 l 389 349 q 377 377 389 365 q 349 389 365 389 l 346 389 m 68 250 l 68 250 q 40 238 53 250 q 28 210 28 226 l 28 207 q 40 179 28 192 q 68 167 53 167 l 71 167 q 99 179 88 167 q 111 207 111 192 l 111 210 q 99 238 111 226 q 71 250 88 250 l 68 250 m 485 250 l 485 250 q 457 238 469 250 q 444 210 444 226 l 444 207 q 457 179 444 192 q 485 167 469 167 l 488 167 q 516 179 504 167 q 528 207 528 192 l 528 210 q 516 238 528 226 q 488 250 504 250 l 485 250 m 68 111 l 68 111 q 40 99 53 111 q 28 71 28 88 l 28 68 q 40 40 28 53 q 68 28 53 28 l 71 28 q 99 40 88 28 q 111 68 111 53 l 111 71 q 99 99 111 88 q 71 111 88 111 l 68 111 m 624 111 l 624 111 q 596 99 608 111 q 583 71 583 88 l 583 68 q 596 40 583 53 q 624 28 608 28 l 626 28 q 655 40 643 28 q 667 68 667 53 l 667 71 q 655 99 667 88 q 626 111 643 111 l 624 111 z "},"L":{"ha":833,"x_min":28,"x_max":667,"o":"m 68 944 l 68 944 q 40 933 53 944 q 28 904 28 921 l 28 901 q 40 874 28 886 q 68 861 53 861 l 71 861 q 99 874 88 861 q 111 901 111 886 l 111 904 q 99 933 111 921 q 71 944 88 944 l 68 944 m 68 806 l 68 806 q 40 794 53 806 q 28 765 28 782 l 28 763 q 40 735 28 747 q 68 722 53 722 l 71 722 q 99 735 88 722 q 111 763 111 747 l 111 765 q 99 794 111 782 q 71 806 88 806 l 68 806 m 68 667 l 68 667 q 40 655 53 667 q 28 626 28 643 l 28 624 q 40 596 28 608 q 68 583 53 583 l 71 583 q 99 596 88 583 q 111 624 111 608 l 111 626 q 99 655 111 643 q 71 667 88 667 l 68 667 m 68 528 l 68 528 q 40 516 53 528 q 28 488 28 504 l 28 485 q 40 457 28 469 q 68 444 53 444 l 71 444 q 99 457 88 444 q 111 485 111 469 l 111 488 q 99 516 111 504 q 71 528 88 528 l 68 528 m 68 389 l 68 389 q 40 377 53 389 q 28 349 28 365 l 28 346 q 40 318 28 331 q 68 306 53 306 l 71 306 q 99 318 88 306 q 111 346 111 331 l 111 349 q 99 377 111 365 q 71 389 88 389 l 68 389 m 68 250 l 68 250 q 40 238 53 250 q 28 210 28 226 l 28 207 q 40 179 28 192 q 68 167 53 167 l 71 167 q 99 179 88 167 q 111 207 111 192 l 111 210 q 99 238 111 226 q 71 250 88 250 l 68 250 m 68 111 l 68 111 q 40 99 53 111 q 28 71 28 88 l 28 68 q 40 40 28 53 q 68 28 53 28 l 71 28 q 99 40 88 28 q 111 68 111 53 l 111 71 q 99 99 111 88 q 71 111 88 111 l 68 111 m 207 111 l 207 111 q 179 99 192 111 q 167 71 167 88 l 167 68 q 179 40 167 53 q 207 28 192 28 l 210 28 q 238 40 226 28 q 250 68 250 53 l 250 71 q 238 99 250 88 q 210 111 226 111 l 207 111 m 346 111 l 346 111 q 318 99 331 111 q 306 71 306 88 l 306 68 q 318 40 306 53 q 346 28 331 28 l 349 28 q 377 40 365 28 q 389 68 389 53 l 389 71 q 377 99 389 88 q 349 111 365 111 l 346 111 m 485 111 l 485 111 q 457 99 469 111 q 444 71 444 88 l 444 68 q 457 40 444 53 q 485 28 469 28 l 488 28 q 516 40 504 28 q 528 68 528 53 l 528 71 q 516 99 528 88 q 488 111 504 111 l 485 111 m 624 111 l 624 111 q 596 99 608 111 q 583 71 583 88 l 583 68 q 596 40 583 53 q 624 28 608 28 l 626 28 q 655 40 643 28 q 667 68 667 53 l 667 71 q 655 99 667 88 q 626 111 643 111 l 624 111 z "},"Ĺ":{"ha":833,"x_min":28,"x_max":667,"o":"m 485 1083 l 485 1083 q 457 1072 469 1083 q 444 1043 444 1060 l 444 1040 q 457 1013 444 1025 q 485 1000 469 1000 l 488 1000 q 516 1013 504 1000 q 528 1040 528 1025 l 528 1043 q 516 1072 528 1060 q 488 1083 504 1083 l 485 1083 m 68 944 l 68 944 q 40 933 53 944 q 28 904 28 921 l 28 901 q 40 874 28 886 q 68 861 53 861 l 71 861 q 99 874 88 861 q 111 901 111 886 l 111 904 q 99 933 111 921 q 71 944 88 944 l 68 944 m 346 944 l 346 944 q 318 933 331 944 q 306 904 306 921 l 306 901 q 318 874 306 886 q 346 861 331 861 l 349 861 q 377 874 365 861 q 389 901 389 886 l 389 904 q 377 933 389 921 q 349 944 365 944 l 346 944 m 68 806 l 68 806 q 40 794 53 806 q 28 765 28 782 l 28 763 q 40 735 28 747 q 68 722 53 722 l 71 722 q 99 735 88 722 q 111 763 111 747 l 111 765 q 99 794 111 782 q 71 806 88 806 l 68 806 m 68 667 l 68 667 q 40 655 53 667 q 28 626 28 643 l 28 624 q 40 596 28 608 q 68 583 53 583 l 71 583 q 99 596 88 583 q 111 624 111 608 l 111 626 q 99 655 111 643 q 71 667 88 667 l 68 667 m 68 528 l 68 528 q 40 516 53 528 q 28 488 28 504 l 28 485 q 40 457 28 469 q 68 444 53 444 l 71 444 q 99 457 88 444 q 111 485 111 469 l 111 488 q 99 516 111 504 q 71 528 88 528 l 68 528 m 68 389 l 68 389 q 40 377 53 389 q 28 349 28 365 l 28 346 q 40 318 28 331 q 68 306 53 306 l 71 306 q 99 318 88 306 q 111 346 111 331 l 111 349 q 99 377 111 365 q 71 389 88 389 l 68 389 m 68 250 l 68 250 q 40 238 53 250 q 28 210 28 226 l 28 207 q 40 179 28 192 q 68 167 53 167 l 71 167 q 99 179 88 167 q 111 207 111 192 l 111 210 q 99 238 111 226 q 71 250 88 250 l 68 250 m 68 111 l 68 111 q 40 99 53 111 q 28 71 28 88 l 28 68 q 40 40 28 53 q 68 28 53 28 l 71 28 q 99 40 88 28 q 111 68 111 53 l 111 71 q 99 99 111 88 q 71 111 88 111 l 68 111 m 207 111 l 207 111 q 179 99 192 111 q 167 71 167 88 l 167 68 q 179 40 167 53 q 207 28 192 28 l 210 28 q 238 40 226 28 q 250 68 250 53 l 250 71 q 238 99 250 88 q 210 111 226 111 l 207 111 m 346 111 l 346 111 q 318 99 331 111 q 306 71 306 88 l 306 68 q 318 40 306 53 q 346 28 331 28 l 349 28 q 377 40 365 28 q 389 68 389 53 l 389 71 q 377 99 389 88 q 349 111 365 111 l 346 111 m 485 111 l 485 111 q 457 99 469 111 q 444 71 444 88 l 444 68 q 457 40 444 53 q 485 28 469 28 l 488 28 q 516 40 504 28 q 528 68 528 53 l 528 71 q 516 99 528 88 q 488 111 504 111 l 485 111 m 624 111 l 624 111 q 596 99 608 111 q 583 71 583 88 l 583 68 q 596 40 583 53 q 624 28 608 28 l 626 28 q 655 40 643 28 q 667 68 667 53 l 667 71 q 655 99 667 88 q 626 111 643 111 l 624 111 z "},"Ľ":{"ha":833,"x_min":28,"x_max":667,"o":"m 346 1083 l 346 1083 q 318 1072 331 1083 q 306 1043 306 1060 l 306 1040 q 318 1013 306 1025 q 346 1000 331 1000 l 349 1000 q 377 1013 365 1000 q 389 1040 389 1025 l 389 1043 q 377 1072 389 1060 q 349 1083 365 1083 l 346 1083 m 68 944 l 68 944 q 40 933 53 944 q 28 904 28 921 l 28 901 q 40 874 28 886 q 68 861 53 861 l 71 861 q 99 874 88 861 q 111 901 111 886 l 111 904 q 99 933 111 921 q 71 944 88 944 l 68 944 m 346 944 l 346 944 q 318 933 331 944 q 306 904 306 921 l 306 901 q 318 874 306 886 q 346 861 331 861 l 349 861 q 377 874 365 861 q 389 901 389 886 l 389 904 q 377 933 389 921 q 349 944 365 944 l 346 944 m 68 806 l 68 806 q 40 794 53 806 q 28 765 28 782 l 28 763 q 40 735 28 747 q 68 722 53 722 l 71 722 q 99 735 88 722 q 111 763 111 747 l 111 765 q 99 794 111 782 q 71 806 88 806 l 68 806 m 68 667 l 68 667 q 40 655 53 667 q 28 626 28 643 l 28 624 q 40 596 28 608 q 68 583 53 583 l 71 583 q 99 596 88 583 q 111 624 111 608 l 111 626 q 99 655 111 643 q 71 667 88 667 l 68 667 m 68 528 l 68 528 q 40 516 53 528 q 28 488 28 504 l 28 485 q 40 457 28 469 q 68 444 53 444 l 71 444 q 99 457 88 444 q 111 485 111 469 l 111 488 q 99 516 111 504 q 71 528 88 528 l 68 528 m 68 389 l 68 389 q 40 377 53 389 q 28 349 28 365 l 28 346 q 40 318 28 331 q 68 306 53 306 l 71 306 q 99 318 88 306 q 111 346 111 331 l 111 349 q 99 377 111 365 q 71 389 88 389 l 68 389 m 68 250 l 68 250 q 40 238 53 250 q 28 210 28 226 l 28 207 q 40 179 28 192 q 68 167 53 167 l 71 167 q 99 179 88 167 q 111 207 111 192 l 111 210 q 99 238 111 226 q 71 250 88 250 l 68 250 m 68 111 l 68 111 q 40 99 53 111 q 28 71 28 88 l 28 68 q 40 40 28 53 q 68 28 53 28 l 71 28 q 99 40 88 28 q 111 68 111 53 l 111 71 q 99 99 111 88 q 71 111 88 111 l 68 111 m 207 111 l 207 111 q 179 99 192 111 q 167 71 167 88 l 167 68 q 179 40 167 53 q 207 28 192 28 l 210 28 q 238 40 226 28 q 250 68 250 53 l 250 71 q 238 99 250 88 q 210 111 226 111 l 207 111 m 346 111 l 346 111 q 318 99 331 111 q 306 71 306 88 l 306 68 q 318 40 306 53 q 346 28 331 28 l 349 28 q 377 40 365 28 q 389 68 389 53 l 389 71 q 377 99 389 88 q 349 111 365 111 l 346 111 m 485 111 l 485 111 q 457 99 469 111 q 444 71 444 88 l 444 68 q 457 40 444 53 q 485 28 469 28 l 488 28 q 516 40 504 28 q 528 68 528 53 l 528 71 q 516 99 528 88 q 488 111 504 111 l 485 111 m 624 111 l 624 111 q 596 99 608 111 q 583 71 583 88 l 583 68 q 596 40 583 53 q 624 28 608 28 l 626 28 q 655 40 643 28 q 667 68 667 53 l 667 71 q 655 99 667 88 q 626 111 643 111 l 624 111 z "},"Ł":{"ha":833,"x_min":28,"x_max":667,"o":"m 207 944 l 207 944 q 179 933 192 944 q 167 904 167 921 l 167 901 q 179 874 167 886 q 207 861 192 861 l 210 861 q 238 874 226 861 q 250 901 250 886 l 250 904 q 238 933 250 921 q 210 944 226 944 l 207 944 m 207 806 l 207 806 q 179 794 192 806 q 167 765 167 782 l 167 763 q 179 735 167 747 q 207 722 192 722 l 210 722 q 238 735 226 722 q 250 763 250 747 l 250 765 q 238 794 250 782 q 210 806 226 806 l 207 806 m 207 667 l 207 667 q 179 655 192 667 q 167 626 167 643 l 167 624 q 179 596 167 608 q 207 583 192 583 l 210 583 q 238 596 226 583 q 250 624 250 608 l 250 626 q 238 655 250 643 q 210 667 226 667 l 207 667 m 346 667 l 346 667 q 318 655 331 667 q 306 626 306 643 l 306 624 q 318 596 306 608 q 346 583 331 583 l 349 583 q 377 596 365 583 q 389 624 389 608 l 389 626 q 377 655 389 643 q 349 667 365 667 l 346 667 m 68 528 l 68 528 q 40 516 53 528 q 28 488 28 504 l 28 485 q 40 457 28 469 q 68 444 53 444 l 71 444 q 99 457 88 444 q 111 485 111 469 l 111 488 q 99 516 111 504 q 71 528 88 528 l 68 528 m 207 528 l 207 528 q 179 516 192 528 q 167 488 167 504 l 167 485 q 179 457 167 469 q 207 444 192 444 l 210 444 q 238 457 226 444 q 250 485 250 469 l 250 488 q 238 516 250 504 q 210 528 226 528 l 207 528 m 207 389 l 207 389 q 179 377 192 389 q 167 349 167 365 l 167 346 q 179 318 167 331 q 207 306 192 306 l 210 306 q 238 318 226 306 q 250 346 250 331 l 250 349 q 238 377 250 365 q 210 389 226 389 l 207 389 m 207 250 l 207 250 q 179 238 192 250 q 167 210 167 226 l 167 207 q 179 179 167 192 q 207 167 192 167 l 210 167 q 238 179 226 167 q 250 207 250 192 l 250 210 q 238 238 250 226 q 210 250 226 250 l 207 250 m 207 111 l 207 111 q 179 99 192 111 q 167 71 167 88 l 167 68 q 179 40 167 53 q 207 28 192 28 l 210 28 q 238 40 226 28 q 250 68 250 53 l 250 71 q 238 99 250 88 q 210 111 226 111 l 207 111 m 346 111 l 346 111 q 318 99 331 111 q 306 71 306 88 l 306 68 q 318 40 306 53 q 346 28 331 28 l 349 28 q 377 40 365 28 q 389 68 389 53 l 389 71 q 377 99 389 88 q 349 111 365 111 l 346 111 m 485 111 l 485 111 q 457 99 469 111 q 444 71 444 88 l 444 68 q 457 40 444 53 q 485 28 469 28 l 488 28 q 516 40 504 28 q 528 68 528 53 l 528 71 q 516 99 528 88 q 488 111 504 111 l 485 111 m 624 111 l 624 111 q 596 99 608 111 q 583 71 583 88 l 583 68 q 596 40 583 53 q 624 28 608 28 l 626 28 q 655 40 643 28 q 667 68 667 53 l 667 71 q 655 99 667 88 q 626 111 643 111 l 624 111 z "},"M":{"ha":833,"x_min":28,"x_max":667,"o":"m 68 944 l 68 944 q 40 933 53 944 q 28 904 28 921 l 28 901 q 40 874 28 886 q 68 861 53 861 l 71 861 q 99 874 88 861 q 111 901 111 886 l 111 904 q 99 933 111 921 q 71 944 88 944 l 68 944 m 624 944 l 624 944 q 596 933 608 944 q 583 904 583 921 l 583 901 q 596 874 583 886 q 624 861 608 861 l 626 861 q 655 874 643 861 q 667 901 667 886 l 667 904 q 655 933 667 921 q 626 944 643 944 l 624 944 m 68 806 l 68 806 q 40 794 53 806 q 28 765 28 782 l 28 763 q 40 735 28 747 q 68 722 53 722 l 71 722 q 99 735 88 722 q 111 763 111 747 l 111 765 q 99 794 111 782 q 71 806 88 806 l 68 806 m 624 806 l 624 806 q 596 794 608 806 q 583 765 583 782 l 583 763 q 596 735 583 747 q 624 722 608 722 l 626 722 q 655 735 643 722 q 667 763 667 747 l 667 765 q 655 794 667 782 q 626 806 643 806 l 624 806 m 68 667 l 68 667 q 40 655 53 667 q 28 626 28 643 l 28 624 q 40 596 28 608 q 68 583 53 583 l 71 583 q 99 596 88 583 q 111 624 111 608 l 111 626 q 99 655 111 643 q 71 667 88 667 l 68 667 m 207 667 l 207 667 q 179 655 192 667 q 167 626 167 643 l 167 624 q 179 596 167 608 q 207 583 192 583 l 210 583 q 238 596 226 583 q 250 624 250 608 l 250 626 q 238 655 250 643 q 210 667 226 667 l 207 667 m 485 667 l 485 667 q 457 655 469 667 q 444 626 444 643 l 444 624 q 457 596 444 608 q 485 583 469 583 l 488 583 q 516 596 504 583 q 528 624 528 608 l 528 626 q 516 655 528 643 q 488 667 504 667 l 485 667 m 624 667 l 624 667 q 596 655 608 667 q 583 626 583 643 l 583 624 q 596 596 583 608 q 624 583 608 583 l 626 583 q 655 596 643 583 q 667 624 667 608 l 667 626 q 655 655 667 643 q 626 667 643 667 l 624 667 m 68 528 l 68 528 q 40 516 53 528 q 28 488 28 504 l 28 485 q 40 457 28 469 q 68 444 53 444 l 71 444 q 99 457 88 444 q 111 485 111 469 l 111 488 q 99 516 111 504 q 71 528 88 528 l 68 528 m 346 528 l 346 528 q 318 516 331 528 q 306 488 306 504 l 306 485 q 318 457 306 469 q 346 444 331 444 l 349 444 q 377 457 365 444 q 389 485 389 469 l 389 488 q 377 516 389 504 q 349 528 365 528 l 346 528 m 624 528 l 624 528 q 596 516 608 528 q 583 488 583 504 l 583 485 q 596 457 583 469 q 624 444 608 444 l 626 444 q 655 457 643 444 q 667 485 667 469 l 667 488 q 655 516 667 504 q 626 528 643 528 l 624 528 m 68 389 l 68 389 q 40 377 53 389 q 28 349 28 365 l 28 346 q 40 318 28 331 q 68 306 53 306 l 71 306 q 99 318 88 306 q 111 346 111 331 l 111 349 q 99 377 111 365 q 71 389 88 389 l 68 389 m 624 389 l 624 389 q 596 377 608 389 q 583 349 583 365 l 583 346 q 596 318 583 331 q 624 306 608 306 l 626 306 q 655 318 643 306 q 667 346 667 331 l 667 349 q 655 377 667 365 q 626 389 643 389 l 624 389 m 68 250 l 68 250 q 40 238 53 250 q 28 210 28 226 l 28 207 q 40 179 28 192 q 68 167 53 167 l 71 167 q 99 179 88 167 q 111 207 111 192 l 111 210 q 99 238 111 226 q 71 250 88 250 l 68 250 m 624 250 l 624 250 q 596 238 608 250 q 583 210 583 226 l 583 207 q 596 179 583 192 q 624 167 608 167 l 626 167 q 655 179 643 167 q 667 207 667 192 l 667 210 q 655 238 667 226 q 626 250 643 250 l 624 250 m 68 111 l 68 111 q 40 99 53 111 q 28 71 28 88 l 28 68 q 40 40 28 53 q 68 28 53 28 l 71 28 q 99 40 88 28 q 111 68 111 53 l 111 71 q 99 99 111 88 q 71 111 88 111 l 68 111 m 624 111 l 624 111 q 596 99 608 111 q 583 71 583 88 l 583 68 q 596 40 583 53 q 624 28 608 28 l 626 28 q 655 40 643 28 q 667 68 667 53 l 667 71 q 655 99 667 88 q 626 111 643 111 l 624 111 z "}}}
